<svg width="375" height="197" viewBox="0 0 375 197" fill="none" xmlns="http://www.w3.org/2000/svg">
<path d="M0 15C0 6.71573 6.71573 0 15 0H360C368.284 0 375 6.71573 375 15V182C375 190.284 368.284 197 360 197H15C6.71574 197 0 190.284 0 182V15Z" fill="white"/>
<path d="M344.381 36.4039L335.44 45.998C335.056 46.41 334.579 46.708 334.056 46.8625L329.713 48.1435C329.533 48.1966 329.367 48.019 329.417 47.8255L330.61 43.1653C330.754 42.6035 331.032 42.0913 331.416 41.6793L340.357 32.0851C341.468 30.8928 343.27 30.8934 344.381 32.0858C345.492 33.2783 345.492 35.2114 344.381 36.4039Z" stroke="#FF9228" stroke-width="1.5"/>
<path d="M339.747 33.3553L343.309 37.1776" stroke="#FF9228" stroke-width="1.5" stroke-linecap="round"/>
<path d="M329.104 51.6523H349.254" stroke="#FF9228" stroke-width="1.5" stroke-linecap="round"/>
<path d="M35.8212 30.7797C41.54 30.7799 46.2643 35.7711 46.2645 42.0414C46.2645 48.312 41.5402 53.304 35.8212 53.3041C30.102 53.3041 25.3768 48.3121 25.3768 42.0414C25.3771 35.771 30.1022 30.7797 35.8212 30.7797Z" stroke="#FF9228" stroke-width="1.5"/>
<path d="M35.8208 34.8468C37.8305 34.8468 39.5482 36.6114 39.5483 38.9015C39.5483 41.1916 37.8306 42.9561 35.8208 42.9561C33.8111 42.9561 32.0933 41.1916 32.0933 38.9015C32.0934 36.6114 33.8111 34.8468 35.8208 34.8468Z" stroke="#FF9228" stroke-width="1.5"/>
<path d="M43.2262 49.8505C41.6143 47.3126 38.899 45.6462 35.821 45.6462C32.743 45.6462 30.0277 47.3126 28.4158 49.8505" stroke="#FF9228" stroke-width="1.5"/>
<path d="M22.3881 80.4819L352.612 80.4819" stroke="#DEE1E7" stroke-width="0.5" stroke-linecap="round"/>
<path d="M23.4381 118.506V108.706H24.6141V117.568H29.1781V118.506H23.4381ZM33.6001 118.674C32.9468 118.674 32.3588 118.525 31.8361 118.226C31.3134 117.918 30.9028 117.489 30.6041 116.938C30.3054 116.378 30.1561 115.729 30.1561 114.992C30.1561 114.236 30.3054 113.583 30.6041 113.032C30.9121 112.472 31.3274 112.043 31.8501 111.744C32.3821 111.436 32.9748 111.282 33.6281 111.282C34.3001 111.282 34.8928 111.436 35.4061 111.744C35.9288 112.043 36.3394 112.472 36.6381 113.032C36.9461 113.583 37.1001 114.231 37.1001 114.978C37.1001 115.725 36.9461 116.378 36.6381 116.938C36.3301 117.489 35.9148 117.918 35.3921 118.226C34.8694 118.525 34.2721 118.674 33.6001 118.674ZM33.6141 117.666C34.0154 117.666 34.3888 117.568 34.7341 117.372C35.0794 117.167 35.3594 116.863 35.5741 116.462C35.7888 116.061 35.8961 115.566 35.8961 114.978C35.8961 114.381 35.7888 113.886 35.5741 113.494C35.3688 113.093 35.0934 112.794 34.7481 112.598C34.4121 112.393 34.0388 112.29 33.6281 112.29C33.2361 112.29 32.8628 112.393 32.5081 112.598C32.1628 112.794 31.8828 113.093 31.6681 113.494C31.4628 113.886 31.3601 114.381 31.3601 114.978C31.3601 115.566 31.4628 116.061 31.6681 116.462C31.8828 116.863 32.1581 117.167 32.4941 117.372C32.8394 117.568 33.2128 117.666 33.6141 117.666ZM38.7489 118.506V111.45H39.8129L39.8969 112.794C40.0556 112.477 40.2563 112.206 40.4989 111.982C40.7509 111.758 41.0496 111.585 41.3949 111.464C41.7496 111.343 42.1509 111.282 42.5989 111.282V112.514H42.1649C41.8663 112.514 41.5816 112.556 41.3109 112.64C41.0403 112.715 40.7976 112.841 40.5829 113.018C40.3776 113.195 40.2143 113.438 40.0929 113.746C39.9809 114.045 39.9249 114.418 39.9249 114.866V118.506H38.7489ZM46.7648 118.674C46.1021 118.674 45.5141 118.52 45.0008 118.212C44.4968 117.904 44.1001 117.475 43.8108 116.924C43.5215 116.364 43.3768 115.715 43.3768 114.978C43.3768 114.231 43.5168 113.583 43.7968 113.032C44.0861 112.481 44.4875 112.052 45.0008 111.744C45.5235 111.436 46.1208 111.282 46.7928 111.282C47.4835 111.282 48.0668 111.436 48.5428 111.744C49.0281 112.052 49.3968 112.458 49.6488 112.962C49.9101 113.457 50.0408 114.003 50.0408 114.6C50.0408 114.693 50.0408 114.791 50.0408 114.894C50.0408 114.997 50.0361 115.113 50.0268 115.244H44.2588V114.334H48.8928C48.8648 113.69 48.6501 113.186 48.2488 112.822C47.8568 112.458 47.3621 112.276 46.7648 112.276C46.3635 112.276 45.9901 112.369 45.6448 112.556C45.3088 112.733 45.0381 112.999 44.8328 113.354C44.6275 113.699 44.5248 114.133 44.5248 114.656V115.048C44.5248 115.627 44.6275 116.112 44.8328 116.504C45.0475 116.896 45.3228 117.19 45.6588 117.386C46.0041 117.582 46.3728 117.68 46.7648 117.68C47.2595 117.68 47.6655 117.573 47.9828 117.358C48.3095 117.134 48.5428 116.835 48.6828 116.462H49.8448C49.7328 116.882 49.5368 117.26 49.2568 117.596C48.9768 117.932 48.6268 118.198 48.2068 118.394C47.7961 118.581 47.3155 118.674 46.7648 118.674ZM51.6278 118.506V111.45H52.6918L52.7618 112.458C52.9858 112.094 53.2845 111.809 53.6578 111.604C54.0405 111.389 54.4558 111.282 54.9038 111.282C55.2678 111.282 55.5945 111.333 55.8838 111.436C56.1825 111.529 56.4438 111.679 56.6678 111.884C56.8918 112.08 57.0738 112.332 57.2138 112.64C57.4565 112.211 57.7878 111.879 58.2078 111.646C58.6372 111.403 59.0945 111.282 59.5798 111.282C60.1212 111.282 60.5925 111.394 60.9938 111.618C61.4045 111.833 61.7172 112.164 61.9318 112.612C62.1558 113.051 62.2678 113.611 62.2678 114.292V118.506H61.1058V114.418C61.1058 113.709 60.9612 113.177 60.6718 112.822C60.3825 112.467 59.9765 112.29 59.4538 112.29C59.0898 112.29 58.7632 112.388 58.4738 112.584C58.1845 112.771 57.9558 113.046 57.7878 113.41C57.6198 113.774 57.5358 114.222 57.5358 114.754V118.506H56.3598V114.418C56.3598 113.709 56.2152 113.177 55.9258 112.822C55.6365 112.467 55.2258 112.29 54.6938 112.29C54.3392 112.29 54.0172 112.388 53.7278 112.584C53.4478 112.771 53.2238 113.046 53.0558 113.41C52.8878 113.774 52.8038 114.222 52.8038 114.754V118.506H51.6278ZM67.9273 118.506V111.45H69.1033V118.506H67.9273ZM68.5153 109.952C68.282 109.952 68.086 109.877 67.9273 109.728C67.778 109.569 67.7033 109.373 67.7033 109.14C67.7033 108.907 67.778 108.72 67.9273 108.58C68.086 108.431 68.282 108.356 68.5153 108.356C68.7393 108.356 68.9307 108.431 69.0893 108.58C69.248 108.72 69.3273 108.907 69.3273 109.14C69.3273 109.373 69.248 109.569 69.0893 109.728C68.9307 109.877 68.7393 109.952 68.5153 109.952ZM71.1786 121.586V111.45H72.2426L72.3406 112.598C72.4899 112.374 72.6813 112.164 72.9146 111.968C73.1479 111.763 73.4279 111.599 73.7546 111.478C74.0813 111.347 74.4546 111.282 74.8746 111.282C75.5653 111.282 76.1626 111.445 76.6666 111.772C77.1799 112.099 77.5766 112.542 77.8566 113.102C78.1459 113.653 78.2906 114.283 78.2906 114.992C78.2906 115.701 78.1459 116.336 77.8566 116.896C77.5766 117.447 77.1799 117.881 76.6666 118.198C76.1533 118.515 75.5513 118.674 74.8606 118.674C74.2913 118.674 73.7873 118.557 73.3486 118.324C72.9193 118.091 72.5879 117.764 72.3546 117.344V121.586H71.1786ZM74.7346 117.652C75.1919 117.652 75.5979 117.54 75.9526 117.316C76.3073 117.092 76.5826 116.784 76.7786 116.392C76.9839 115.991 77.0866 115.519 77.0866 114.978C77.0866 114.446 76.9839 113.979 76.7786 113.578C76.5826 113.177 76.3073 112.864 75.9526 112.64C75.5979 112.416 75.1919 112.304 74.7346 112.304C74.2679 112.304 73.8573 112.416 73.5026 112.64C73.1479 112.864 72.8726 113.177 72.6766 113.578C72.4806 113.979 72.3826 114.446 72.3826 114.978C72.3826 115.519 72.4806 115.991 72.6766 116.392C72.8726 116.784 73.1479 117.092 73.5026 117.316C73.8573 117.54 74.2679 117.652 74.7346 117.652ZM82.6023 118.674C82.0143 118.674 81.5009 118.576 81.0623 118.38C80.6329 118.184 80.2876 117.913 80.0263 117.568C79.7743 117.213 79.6203 116.798 79.5643 116.322H80.7683C80.8149 116.565 80.9129 116.789 81.0623 116.994C81.2116 117.199 81.4123 117.367 81.6643 117.498C81.9256 117.619 82.2429 117.68 82.6163 117.68C82.9429 117.68 83.2136 117.633 83.4283 117.54C83.6429 117.437 83.8016 117.302 83.9043 117.134C84.0163 116.966 84.0723 116.784 84.0723 116.588C84.0723 116.299 84.0023 116.079 83.8623 115.93C83.7316 115.781 83.5356 115.664 83.2743 115.58C83.0129 115.487 82.6956 115.407 82.3223 115.342C82.0143 115.286 81.7109 115.211 81.4123 115.118C81.1136 115.025 80.8476 114.903 80.6143 114.754C80.3809 114.595 80.1943 114.404 80.0543 114.18C79.9236 113.956 79.8583 113.681 79.8583 113.354C79.8583 112.953 79.9609 112.598 80.1663 112.29C80.3716 111.973 80.6656 111.725 81.0483 111.548C81.4403 111.371 81.8929 111.282 82.4063 111.282C83.1623 111.282 83.7736 111.464 84.2403 111.828C84.7069 112.192 84.9823 112.719 85.0663 113.41H83.9043C83.8576 113.055 83.7036 112.78 83.4423 112.584C83.1903 112.379 82.8403 112.276 82.3923 112.276C81.9536 112.276 81.6176 112.365 81.3843 112.542C81.1603 112.719 81.0483 112.953 81.0483 113.242C81.0483 113.429 81.1089 113.597 81.2303 113.746C81.3609 113.886 81.5476 114.007 81.7903 114.11C82.0423 114.213 82.3503 114.297 82.7143 114.362C83.1809 114.446 83.6056 114.558 83.9883 114.698C84.3709 114.838 84.6789 115.048 84.9123 115.328C85.1549 115.599 85.2763 115.986 85.2763 116.49C85.2763 116.929 85.1643 117.311 84.9403 117.638C84.7256 117.965 84.4176 118.221 84.0163 118.408C83.6149 118.585 83.1436 118.674 82.6023 118.674ZM89.5316 118.674C88.9903 118.674 88.5143 118.567 88.1036 118.352C87.7023 118.137 87.3896 117.806 87.1656 117.358C86.951 116.91 86.8436 116.35 86.8436 115.678V111.45H88.0196V115.552C88.0196 116.252 88.1736 116.779 88.4816 117.134C88.7896 117.489 89.2236 117.666 89.7836 117.666C90.1756 117.666 90.5303 117.573 90.8476 117.386C91.165 117.19 91.4123 116.915 91.5896 116.56C91.7763 116.196 91.8696 115.753 91.8696 115.23V111.45H93.0456V118.506H91.9816L91.9116 117.274C91.697 117.713 91.3796 118.058 90.9596 118.31C90.5396 118.553 90.0636 118.674 89.5316 118.674ZM94.995 118.506V111.45H96.059L96.129 112.458C96.353 112.094 96.6517 111.809 97.025 111.604C97.4077 111.389 97.823 111.282 98.271 111.282C98.635 111.282 98.9617 111.333 99.251 111.436C99.5497 111.529 99.811 111.679 100.035 111.884C100.259 112.08 100.441 112.332 100.581 112.64C100.824 112.211 101.155 111.879 101.575 111.646C102.004 111.403 102.462 111.282 102.947 111.282C103.488 111.282 103.96 111.394 104.361 111.618C104.772 111.833 105.084 112.164 105.299 112.612C105.523 113.051 105.635 113.611 105.635 114.292V118.506H104.473V114.418C104.473 113.709 104.328 113.177 104.039 112.822C103.75 112.467 103.344 112.29 102.821 112.29C102.457 112.29 102.13 112.388 101.841 112.584C101.552 112.771 101.323 113.046 101.155 113.41C100.987 113.774 100.903 114.222 100.903 114.754V118.506H99.727V114.418C99.727 113.709 99.5823 113.177 99.293 112.822C99.0037 112.467 98.593 112.29 98.061 112.29C97.7063 112.29 97.3843 112.388 97.095 112.584C96.815 112.771 96.591 113.046 96.423 113.41C96.255 113.774 96.171 114.222 96.171 114.754V118.506H94.995ZM114.291 118.674C113.609 118.674 113.012 118.515 112.499 118.198C111.985 117.871 111.589 117.428 111.309 116.868C111.029 116.308 110.889 115.673 110.889 114.964C110.889 114.255 111.029 113.625 111.309 113.074C111.589 112.514 111.985 112.075 112.499 111.758C113.021 111.441 113.623 111.282 114.305 111.282C114.883 111.282 115.387 111.399 115.817 111.632C116.255 111.865 116.591 112.192 116.825 112.612V108.426H118.001V118.506H116.937L116.839 117.344C116.689 117.577 116.498 117.797 116.265 118.002C116.031 118.198 115.751 118.361 115.425 118.492C115.098 118.613 114.72 118.674 114.291 118.674ZM114.431 117.652C114.897 117.652 115.308 117.54 115.663 117.316C116.017 117.092 116.293 116.784 116.489 116.392C116.685 115.991 116.783 115.519 116.783 114.978C116.783 114.446 116.685 113.979 116.489 113.578C116.293 113.177 116.017 112.864 115.663 112.64C115.308 112.416 114.897 112.304 114.431 112.304C113.973 112.304 113.567 112.416 113.213 112.64C112.858 112.864 112.583 113.177 112.387 113.578C112.191 113.979 112.093 114.446 112.093 114.978C112.093 115.519 112.191 115.991 112.387 116.392C112.583 116.784 112.858 117.092 113.213 117.316C113.567 117.54 113.973 117.652 114.431 117.652ZM123.11 118.674C122.457 118.674 121.869 118.525 121.346 118.226C120.823 117.918 120.413 117.489 120.114 116.938C119.815 116.378 119.666 115.729 119.666 114.992C119.666 114.236 119.815 113.583 120.114 113.032C120.422 112.472 120.837 112.043 121.36 111.744C121.892 111.436 122.485 111.282 123.138 111.282C123.81 111.282 124.403 111.436 124.916 111.744C125.439 112.043 125.849 112.472 126.148 113.032C126.456 113.583 126.61 114.231 126.61 114.978C126.61 115.725 126.456 116.378 126.148 116.938C125.84 117.489 125.425 117.918 124.902 118.226C124.379 118.525 123.782 118.674 123.11 118.674ZM123.124 117.666C123.525 117.666 123.899 117.568 124.244 117.372C124.589 117.167 124.869 116.863 125.084 116.462C125.299 116.061 125.406 115.566 125.406 114.978C125.406 114.381 125.299 113.886 125.084 113.494C124.879 113.093 124.603 112.794 124.258 112.598C123.922 112.393 123.549 112.29 123.138 112.29C122.746 112.29 122.373 112.393 122.018 112.598C121.673 112.794 121.393 113.093 121.178 113.494C120.973 113.886 120.87 114.381 120.87 114.978C120.87 115.566 120.973 116.061 121.178 116.462C121.393 116.863 121.668 117.167 122.004 117.372C122.349 117.568 122.723 117.666 123.124 117.666ZM128.259 118.506V108.426H129.435V118.506H128.259ZM134.526 118.674C133.873 118.674 133.285 118.525 132.762 118.226C132.239 117.918 131.829 117.489 131.53 116.938C131.231 116.378 131.082 115.729 131.082 114.992C131.082 114.236 131.231 113.583 131.53 113.032C131.838 112.472 132.253 112.043 132.776 111.744C133.308 111.436 133.901 111.282 134.554 111.282C135.226 111.282 135.819 111.436 136.332 111.744C136.855 112.043 137.265 112.472 137.564 113.032C137.872 113.583 138.026 114.231 138.026 114.978C138.026 115.725 137.872 116.378 137.564 116.938C137.256 117.489 136.841 117.918 136.318 118.226C135.795 118.525 135.198 118.674 134.526 118.674ZM134.54 117.666C134.941 117.666 135.315 117.568 135.66 117.372C136.005 117.167 136.285 116.863 136.5 116.462C136.715 116.061 136.822 115.566 136.822 114.978C136.822 114.381 136.715 113.886 136.5 113.494C136.295 113.093 136.019 112.794 135.674 112.598C135.338 112.393 134.965 112.29 134.554 112.29C134.162 112.29 133.789 112.393 133.434 112.598C133.089 112.794 132.809 113.093 132.594 113.494C132.389 113.886 132.286 114.381 132.286 114.978C132.286 115.566 132.389 116.061 132.594 116.462C132.809 116.863 133.084 117.167 133.42 117.372C133.765 117.568 134.139 117.666 134.54 117.666ZM139.675 118.506V111.45H140.739L140.823 112.794C140.981 112.477 141.182 112.206 141.425 111.982C141.677 111.758 141.975 111.585 142.321 111.464C142.675 111.343 143.077 111.282 143.525 111.282V112.514H143.091C142.792 112.514 142.507 112.556 142.237 112.64C141.966 112.715 141.723 112.841 141.509 113.018C141.303 113.195 141.14 113.438 141.019 113.746C140.907 114.045 140.851 114.418 140.851 114.866V118.506H139.675ZM151.235 118.674C150.647 118.674 150.134 118.576 149.695 118.38C149.266 118.184 148.92 117.913 148.659 117.568C148.407 117.213 148.253 116.798 148.197 116.322H149.401C149.448 116.565 149.546 116.789 149.695 116.994C149.844 117.199 150.045 117.367 150.297 117.498C150.558 117.619 150.876 117.68 151.249 117.68C151.576 117.68 151.846 117.633 152.061 117.54C152.276 117.437 152.434 117.302 152.537 117.134C152.649 116.966 152.705 116.784 152.705 116.588C152.705 116.299 152.635 116.079 152.495 115.93C152.364 115.781 152.168 115.664 151.907 115.58C151.646 115.487 151.328 115.407 150.955 115.342C150.647 115.286 150.344 115.211 150.045 115.118C149.746 115.025 149.48 114.903 149.247 114.754C149.014 114.595 148.827 114.404 148.687 114.18C148.556 113.956 148.491 113.681 148.491 113.354C148.491 112.953 148.594 112.598 148.799 112.29C149.004 111.973 149.298 111.725 149.681 111.548C150.073 111.371 150.526 111.282 151.039 111.282C151.795 111.282 152.406 111.464 152.873 111.828C153.34 112.192 153.615 112.719 153.699 113.41H152.537C152.49 113.055 152.336 112.78 152.075 112.584C151.823 112.379 151.473 112.276 151.025 112.276C150.586 112.276 150.25 112.365 150.017 112.542C149.793 112.719 149.681 112.953 149.681 113.242C149.681 113.429 149.742 113.597 149.863 113.746C149.994 113.886 150.18 114.007 150.423 114.11C150.675 114.213 150.983 114.297 151.347 114.362C151.814 114.446 152.238 114.558 152.621 114.698C153.004 114.838 153.312 115.048 153.545 115.328C153.788 115.599 153.909 115.986 153.909 116.49C153.909 116.929 153.797 117.311 153.573 117.638C153.358 117.965 153.05 118.221 152.649 118.408C152.248 118.585 151.776 118.674 151.235 118.674ZM155.714 118.506V111.45H156.89V118.506H155.714ZM156.302 109.952C156.069 109.952 155.873 109.877 155.714 109.728C155.565 109.569 155.49 109.373 155.49 109.14C155.49 108.907 155.565 108.72 155.714 108.58C155.873 108.431 156.069 108.356 156.302 108.356C156.526 108.356 156.718 108.431 156.876 108.58C157.035 108.72 157.114 108.907 157.114 109.14C157.114 109.373 157.035 109.569 156.876 109.728C156.718 109.877 156.526 109.952 156.302 109.952ZM161.738 118.506C161.318 118.506 160.954 118.441 160.646 118.31C160.338 118.179 160.1 117.96 159.932 117.652C159.773 117.335 159.694 116.91 159.694 116.378V112.444H158.462V111.45H159.694L159.848 109.742H160.87V111.45H162.914V112.444H160.87V116.378C160.87 116.817 160.958 117.115 161.136 117.274C161.313 117.423 161.626 117.498 162.074 117.498H162.83V118.506H161.738ZM170.463 118.674C169.894 118.674 169.418 118.576 169.035 118.38C168.652 118.175 168.368 117.909 168.181 117.582C167.994 117.246 167.901 116.882 167.901 116.49C167.901 116.014 168.022 115.613 168.265 115.286C168.517 114.95 168.867 114.698 169.315 114.53C169.772 114.353 170.309 114.264 170.925 114.264H172.787C172.787 113.825 172.717 113.461 172.577 113.172C172.446 112.873 172.25 112.649 171.989 112.5C171.737 112.351 171.42 112.276 171.037 112.276C170.589 112.276 170.202 112.388 169.875 112.612C169.548 112.836 169.348 113.167 169.273 113.606H168.069C168.125 113.102 168.293 112.682 168.573 112.346C168.862 112.001 169.226 111.739 169.665 111.562C170.104 111.375 170.561 111.282 171.037 111.282C171.69 111.282 172.232 111.403 172.661 111.646C173.1 111.879 173.426 112.211 173.641 112.64C173.856 113.06 173.963 113.559 173.963 114.138V118.506H172.913L172.843 117.26C172.75 117.456 172.628 117.643 172.479 117.82C172.339 117.988 172.171 118.137 171.975 118.268C171.779 118.389 171.555 118.487 171.303 118.562C171.06 118.637 170.78 118.674 170.463 118.674ZM170.645 117.68C170.972 117.68 171.266 117.615 171.527 117.484C171.798 117.344 172.026 117.157 172.213 116.924C172.4 116.681 172.54 116.415 172.633 116.126C172.736 115.837 172.787 115.533 172.787 115.216V115.174H171.023C170.566 115.174 170.197 115.23 169.917 115.342C169.637 115.445 169.436 115.594 169.315 115.79C169.194 115.977 169.133 116.191 169.133 116.434C169.133 116.686 169.189 116.905 169.301 117.092C169.422 117.279 169.595 117.423 169.819 117.526C170.052 117.629 170.328 117.68 170.645 117.68ZM175.782 118.506V111.45H176.846L176.916 112.458C177.14 112.094 177.439 111.809 177.812 111.604C178.195 111.389 178.61 111.282 179.058 111.282C179.422 111.282 179.749 111.333 180.038 111.436C180.337 111.529 180.598 111.679 180.822 111.884C181.046 112.08 181.228 112.332 181.368 112.64C181.611 112.211 181.942 111.879 182.362 111.646C182.791 111.403 183.249 111.282 183.734 111.282C184.275 111.282 184.747 111.394 185.148 111.618C185.559 111.833 185.871 112.164 186.086 112.612C186.31 113.051 186.422 113.611 186.422 114.292V118.506H185.26V114.418C185.26 113.709 185.115 113.177 184.826 112.822C184.537 112.467 184.131 112.29 183.608 112.29C183.244 112.29 182.917 112.388 182.628 112.584C182.339 112.771 182.11 113.046 181.942 113.41C181.774 113.774 181.69 114.222 181.69 114.754V118.506H180.514V114.418C180.514 113.709 180.369 113.177 180.08 112.822C179.791 112.467 179.38 112.29 178.848 112.29C178.493 112.29 178.171 112.388 177.882 112.584C177.602 112.771 177.378 113.046 177.21 113.41C177.042 113.774 176.958 114.222 176.958 114.754V118.506H175.782ZM191.345 118.674C190.682 118.674 190.094 118.52 189.581 118.212C189.077 117.904 188.68 117.475 188.391 116.924C188.102 116.364 187.957 115.715 187.957 114.978C187.957 114.231 188.097 113.583 188.377 113.032C188.666 112.481 189.068 112.052 189.581 111.744C190.104 111.436 190.701 111.282 191.373 111.282C192.064 111.282 192.647 111.436 193.123 111.744C193.608 112.052 193.977 112.458 194.229 112.962C194.49 113.457 194.621 114.003 194.621 114.6C194.621 114.693 194.621 114.791 194.621 114.894C194.621 114.997 194.616 115.113 194.607 115.244H188.839V114.334H193.473C193.445 113.69 193.23 113.186 192.829 112.822C192.437 112.458 191.942 112.276 191.345 112.276C190.944 112.276 190.57 112.369 190.225 112.556C189.889 112.733 189.618 112.999 189.413 113.354C189.208 113.699 189.105 114.133 189.105 114.656V115.048C189.105 115.627 189.208 116.112 189.413 116.504C189.628 116.896 189.903 117.19 190.239 117.386C190.584 117.582 190.953 117.68 191.345 117.68C191.84 117.68 192.246 117.573 192.563 117.358C192.89 117.134 193.123 116.835 193.263 116.462H194.425C194.313 116.882 194.117 117.26 193.837 117.596C193.557 117.932 193.207 118.198 192.787 118.394C192.376 118.581 191.896 118.674 191.345 118.674ZM198.747 118.506C198.327 118.506 197.963 118.441 197.655 118.31C197.347 118.179 197.109 117.96 196.941 117.652C196.783 117.335 196.703 116.91 196.703 116.378V112.444H195.471V111.45H196.703L196.857 109.742H197.879V111.45H199.923V112.444H197.879V116.378C197.879 116.817 197.968 117.115 198.145 117.274C198.323 117.423 198.635 117.498 199.083 117.498H199.839V118.506H198.747ZM201.259 120.228L202.071 117.134H203.289L202.071 120.228H201.259ZM211.622 118.674C210.96 118.674 210.362 118.52 209.83 118.212C209.308 117.904 208.897 117.475 208.598 116.924C208.3 116.364 208.15 115.72 208.15 114.992C208.15 114.245 208.3 113.597 208.598 113.046C208.897 112.495 209.308 112.066 209.83 111.758C210.362 111.441 210.96 111.282 211.622 111.282C212.462 111.282 213.162 111.501 213.722 111.94C214.282 112.369 214.637 112.948 214.786 113.676H213.582C213.489 113.237 213.26 112.897 212.896 112.654C212.532 112.411 212.103 112.29 211.608 112.29C211.207 112.29 210.834 112.393 210.488 112.598C210.143 112.794 209.868 113.093 209.662 113.494C209.457 113.895 209.354 114.39 209.354 114.978C209.354 115.417 209.415 115.809 209.536 116.154C209.658 116.49 209.821 116.77 210.026 116.994C210.232 117.218 210.47 117.391 210.74 117.512C211.02 117.624 211.31 117.68 211.608 117.68C211.944 117.68 212.248 117.629 212.518 117.526C212.789 117.414 213.018 117.251 213.204 117.036C213.391 116.821 213.517 116.569 213.582 116.28H214.786C214.637 116.989 214.278 117.568 213.708 118.016C213.148 118.455 212.453 118.674 211.622 118.674ZM219.606 118.674C218.953 118.674 218.365 118.525 217.842 118.226C217.319 117.918 216.909 117.489 216.61 116.938C216.311 116.378 216.162 115.729 216.162 114.992C216.162 114.236 216.311 113.583 216.61 113.032C216.918 112.472 217.333 112.043 217.856 111.744C218.388 111.436 218.981 111.282 219.634 111.282C220.306 111.282 220.899 111.436 221.412 111.744C221.935 112.043 222.345 112.472 222.644 113.032C222.952 113.583 223.106 114.231 223.106 114.978C223.106 115.725 222.952 116.378 222.644 116.938C222.336 117.489 221.921 117.918 221.398 118.226C220.875 118.525 220.278 118.674 219.606 118.674ZM219.62 117.666C220.021 117.666 220.395 117.568 220.74 117.372C221.085 117.167 221.365 116.863 221.58 116.462C221.795 116.061 221.902 115.566 221.902 114.978C221.902 114.381 221.795 113.886 221.58 113.494C221.375 113.093 221.099 112.794 220.754 112.598C220.418 112.393 220.045 112.29 219.634 112.29C219.242 112.29 218.869 112.393 218.514 112.598C218.169 112.794 217.889 113.093 217.674 113.494C217.469 113.886 217.366 114.381 217.366 114.978C217.366 115.566 217.469 116.061 217.674 116.462C217.889 116.863 218.164 117.167 218.5 117.372C218.845 117.568 219.219 117.666 219.62 117.666ZM224.755 118.506V111.45H225.819L225.875 112.682C226.099 112.243 226.416 111.903 226.827 111.66C227.247 111.408 227.723 111.282 228.255 111.282C228.805 111.282 229.281 111.394 229.683 111.618C230.084 111.833 230.397 112.164 230.621 112.612C230.845 113.051 230.957 113.611 230.957 114.292V118.506H229.781V114.418C229.781 113.709 229.622 113.177 229.305 112.822C228.997 112.467 228.558 112.29 227.989 112.29C227.597 112.29 227.247 112.388 226.939 112.584C226.631 112.771 226.383 113.046 226.197 113.41C226.019 113.765 225.931 114.208 225.931 114.74V118.506H224.755ZM235.454 118.674C234.866 118.674 234.353 118.576 233.914 118.38C233.485 118.184 233.139 117.913 232.878 117.568C232.626 117.213 232.472 116.798 232.416 116.322H233.62C233.667 116.565 233.765 116.789 233.914 116.994C234.063 117.199 234.264 117.367 234.516 117.498C234.777 117.619 235.095 117.68 235.468 117.68C235.795 117.68 236.065 117.633 236.28 117.54C236.495 117.437 236.653 117.302 236.756 117.134C236.868 116.966 236.924 116.784 236.924 116.588C236.924 116.299 236.854 116.079 236.714 115.93C236.583 115.781 236.387 115.664 236.126 115.58C235.865 115.487 235.547 115.407 235.174 115.342C234.866 115.286 234.563 115.211 234.264 115.118C233.965 115.025 233.699 114.903 233.466 114.754C233.233 114.595 233.046 114.404 232.906 114.18C232.775 113.956 232.71 113.681 232.71 113.354C232.71 112.953 232.813 112.598 233.018 112.29C233.223 111.973 233.517 111.725 233.9 111.548C234.292 111.371 234.745 111.282 235.258 111.282C236.014 111.282 236.625 111.464 237.092 111.828C237.559 112.192 237.834 112.719 237.918 113.41H236.756C236.709 113.055 236.555 112.78 236.294 112.584C236.042 112.379 235.692 112.276 235.244 112.276C234.805 112.276 234.469 112.365 234.236 112.542C234.012 112.719 233.9 112.953 233.9 113.242C233.9 113.429 233.961 113.597 234.082 113.746C234.213 113.886 234.399 114.007 234.642 114.11C234.894 114.213 235.202 114.297 235.566 114.362C236.033 114.446 236.457 114.558 236.84 114.698C237.223 114.838 237.531 115.048 237.764 115.328C238.007 115.599 238.128 115.986 238.128 116.49C238.128 116.929 238.016 117.311 237.792 117.638C237.577 117.965 237.269 118.221 236.868 118.408C236.467 118.585 235.995 118.674 235.454 118.674ZM242.915 118.674C242.253 118.674 241.665 118.52 241.151 118.212C240.647 117.904 240.251 117.475 239.961 116.924C239.672 116.364 239.527 115.715 239.527 114.978C239.527 114.231 239.667 113.583 239.947 113.032C240.237 112.481 240.638 112.052 241.151 111.744C241.674 111.436 242.271 111.282 242.943 111.282C243.634 111.282 244.217 111.436 244.693 111.744C245.179 112.052 245.547 112.458 245.799 112.962C246.061 113.457 246.191 114.003 246.191 114.6C246.191 114.693 246.191 114.791 246.191 114.894C246.191 114.997 246.187 115.113 246.177 115.244H240.409V114.334H245.043C245.015 113.69 244.801 113.186 244.399 112.822C244.007 112.458 243.513 112.276 242.915 112.276C242.514 112.276 242.141 112.369 241.795 112.556C241.459 112.733 241.189 112.999 240.983 113.354C240.778 113.699 240.675 114.133 240.675 114.656V115.048C240.675 115.627 240.778 116.112 240.983 116.504C241.198 116.896 241.473 117.19 241.809 117.386C242.155 117.582 242.523 117.68 242.915 117.68C243.41 117.68 243.816 117.573 244.133 117.358C244.46 117.134 244.693 116.835 244.833 116.462H245.995C245.883 116.882 245.687 117.26 245.407 117.596C245.127 117.932 244.777 118.198 244.357 118.394C243.947 118.581 243.466 118.674 242.915 118.674ZM250.956 118.674C250.294 118.674 249.696 118.52 249.164 118.212C248.642 117.904 248.231 117.475 247.932 116.924C247.634 116.364 247.484 115.72 247.484 114.992C247.484 114.245 247.634 113.597 247.932 113.046C248.231 112.495 248.642 112.066 249.164 111.758C249.696 111.441 250.294 111.282 250.956 111.282C251.796 111.282 252.496 111.501 253.056 111.94C253.616 112.369 253.971 112.948 254.12 113.676H252.916C252.823 113.237 252.594 112.897 252.23 112.654C251.866 112.411 251.437 112.29 250.942 112.29C250.541 112.29 250.168 112.393 249.822 112.598C249.477 112.794 249.202 113.093 248.996 113.494C248.791 113.895 248.688 114.39 248.688 114.978C248.688 115.417 248.749 115.809 248.87 116.154C248.992 116.49 249.155 116.77 249.36 116.994C249.566 117.218 249.804 117.391 250.074 117.512C250.354 117.624 250.644 117.68 250.942 117.68C251.278 117.68 251.582 117.629 251.852 117.526C252.123 117.414 252.352 117.251 252.538 117.036C252.725 116.821 252.851 116.569 252.916 116.28H254.12C253.971 116.989 253.612 117.568 253.042 118.016C252.482 118.455 251.787 118.674 250.956 118.674ZM258.371 118.506C257.951 118.506 257.587 118.441 257.279 118.31C256.971 118.179 256.733 117.96 256.565 117.652C256.406 117.335 256.327 116.91 256.327 116.378V112.444H255.095V111.45H256.327L256.481 109.742H257.503V111.45H259.547V112.444H257.503V116.378C257.503 116.817 257.591 117.115 257.769 117.274C257.946 117.423 258.259 117.498 258.707 117.498H259.463V118.506H258.371ZM263.984 118.674C263.321 118.674 262.733 118.52 262.22 118.212C261.716 117.904 261.319 117.475 261.03 116.924C260.74 116.364 260.596 115.715 260.596 114.978C260.596 114.231 260.736 113.583 261.016 113.032C261.305 112.481 261.706 112.052 262.22 111.744C262.742 111.436 263.34 111.282 264.012 111.282C264.702 111.282 265.286 111.436 265.762 111.744C266.247 112.052 266.616 112.458 266.868 112.962C267.129 113.457 267.26 114.003 267.26 114.6C267.26 114.693 267.26 114.791 267.26 114.894C267.26 114.997 267.255 115.113 267.246 115.244H261.478V114.334H266.112C266.084 113.69 265.869 113.186 265.468 112.822C265.076 112.458 264.581 112.276 263.984 112.276C263.582 112.276 263.209 112.369 262.864 112.556C262.528 112.733 262.257 112.999 262.052 113.354C261.846 113.699 261.744 114.133 261.744 114.656V115.048C261.744 115.627 261.846 116.112 262.052 116.504C262.266 116.896 262.542 117.19 262.878 117.386C263.223 117.582 263.592 117.68 263.984 117.68C264.478 117.68 264.884 117.573 265.202 117.358C265.528 117.134 265.762 116.835 265.902 116.462H267.064C266.952 116.882 266.756 117.26 266.476 117.596C266.196 117.932 265.846 118.198 265.426 118.394C265.015 118.581 264.534 118.674 263.984 118.674ZM271.386 118.506C270.966 118.506 270.602 118.441 270.294 118.31C269.986 118.179 269.748 117.96 269.58 117.652C269.421 117.335 269.342 116.91 269.342 116.378V112.444H268.11V111.45H269.342L269.496 109.742H270.518V111.45H272.562V112.444H270.518V116.378C270.518 116.817 270.607 117.115 270.784 117.274C270.961 117.423 271.274 117.498 271.722 117.498H272.478V118.506H271.386ZM276.659 118.674C276.117 118.674 275.641 118.567 275.231 118.352C274.829 118.137 274.517 117.806 274.293 117.358C274.078 116.91 273.971 116.35 273.971 115.678V111.45H275.147V115.552C275.147 116.252 275.301 116.779 275.609 117.134C275.917 117.489 276.351 117.666 276.911 117.666C277.303 117.666 277.657 117.573 277.975 117.386C278.292 117.19 278.539 116.915 278.717 116.56C278.903 116.196 278.997 115.753 278.997 115.23V111.45H280.173V118.506H279.109L279.039 117.274C278.824 117.713 278.507 118.058 278.087 118.31C277.667 118.553 277.191 118.674 276.659 118.674ZM282.122 118.506V111.45H283.186L283.27 112.794C283.429 112.477 283.629 112.206 283.872 111.982C284.124 111.758 284.423 111.585 284.768 111.464C285.123 111.343 285.524 111.282 285.972 111.282V112.514H285.538C285.239 112.514 284.955 112.556 284.684 112.64C284.413 112.715 284.171 112.841 283.956 113.018C283.751 113.195 283.587 113.438 283.466 113.746C283.354 114.045 283.298 114.418 283.298 114.866V118.506H282.122ZM25.6641 136.674C25.0947 136.674 24.6187 136.576 24.2361 136.38C23.8534 136.175 23.5687 135.909 23.3821 135.582C23.1954 135.246 23.1021 134.882 23.1021 134.49C23.1021 134.014 23.2234 133.613 23.4661 133.286C23.7181 132.95 24.0681 132.698 24.5161 132.53C24.9734 132.353 25.5101 132.264 26.1261 132.264H27.9881C27.9881 131.825 27.9181 131.461 27.7781 131.172C27.6474 130.873 27.4514 130.649 27.1901 130.5C26.9381 130.351 26.6207 130.276 26.2381 130.276C25.7901 130.276 25.4027 130.388 25.0761 130.612C24.7494 130.836 24.5487 131.167 24.4741 131.606H23.2701C23.3261 131.102 23.4941 130.682 23.7741 130.346C24.0634 130.001 24.4274 129.739 24.8661 129.562C25.3047 129.375 25.7621 129.282 26.2381 129.282C26.8914 129.282 27.4327 129.403 27.8621 129.646C28.3007 129.879 28.6274 130.211 28.8421 130.64C29.0567 131.06 29.1641 131.559 29.1641 132.138V136.506H28.1141L28.0441 135.26C27.9507 135.456 27.8294 135.643 27.6801 135.82C27.5401 135.988 27.3721 136.137 27.1761 136.268C26.9801 136.389 26.7561 136.487 26.5041 136.562C26.2614 136.637 25.9814 136.674 25.6641 136.674ZM25.8461 135.68C26.1727 135.68 26.4667 135.615 26.7281 135.484C26.9987 135.344 27.2274 135.157 27.4141 134.924C27.6007 134.681 27.7407 134.415 27.8341 134.126C27.9367 133.837 27.9881 133.533 27.9881 133.216V133.174H26.2241C25.7667 133.174 25.3981 133.23 25.1181 133.342C24.8381 133.445 24.6374 133.594 24.5161 133.79C24.3947 133.977 24.3341 134.191 24.3341 134.434C24.3341 134.686 24.3901 134.905 24.5021 135.092C24.6234 135.279 24.7961 135.423 25.0201 135.526C25.2534 135.629 25.5287 135.68 25.8461 135.68ZM34.0913 136.674C33.41 136.674 32.8126 136.515 32.2993 136.198C31.786 135.871 31.3893 135.428 31.1093 134.868C30.8293 134.308 30.6893 133.673 30.6893 132.964C30.6893 132.255 30.8293 131.625 31.1093 131.074C31.3893 130.514 31.786 130.075 32.2993 129.758C32.822 129.441 33.424 129.282 34.1053 129.282C34.684 129.282 35.188 129.399 35.6173 129.632C36.056 129.865 36.392 130.192 36.6253 130.612V126.426H37.8013V136.506H36.7373L36.6393 135.344C36.49 135.577 36.2986 135.797 36.0653 136.002C35.832 136.198 35.552 136.361 35.2253 136.492C34.8986 136.613 34.5206 136.674 34.0913 136.674ZM34.2313 135.652C34.698 135.652 35.1086 135.54 35.4633 135.316C35.818 135.092 36.0933 134.784 36.2893 134.392C36.4853 133.991 36.5833 133.519 36.5833 132.978C36.5833 132.446 36.4853 131.979 36.2893 131.578C36.0933 131.177 35.818 130.864 35.4633 130.64C35.1086 130.416 34.698 130.304 34.2313 130.304C33.774 130.304 33.368 130.416 33.0133 130.64C32.6586 130.864 32.3833 131.177 32.1873 131.578C31.9913 131.979 31.8933 132.446 31.8933 132.978C31.8933 133.519 31.9913 133.991 32.1873 134.392C32.3833 134.784 32.6586 135.092 33.0133 135.316C33.368 135.54 33.774 135.652 34.2313 135.652ZM39.8726 136.506V129.45H41.0486V136.506H39.8726ZM40.4606 127.952C40.2273 127.952 40.0313 127.877 39.8726 127.728C39.7233 127.569 39.6486 127.373 39.6486 127.14C39.6486 126.907 39.7233 126.72 39.8726 126.58C40.0313 126.431 40.2273 126.356 40.4606 126.356C40.6846 126.356 40.876 126.431 41.0346 126.58C41.1933 126.72 41.2726 126.907 41.2726 127.14C41.2726 127.373 41.1933 127.569 41.0346 127.728C40.876 127.877 40.6846 127.952 40.4606 127.952ZM43.1239 139.586V129.45H44.1879L44.2859 130.598C44.4353 130.374 44.6266 130.164 44.8599 129.968C45.0933 129.763 45.3733 129.599 45.6999 129.478C46.0266 129.347 46.3999 129.282 46.8199 129.282C47.5106 129.282 48.1079 129.445 48.6119 129.772C49.1253 130.099 49.5219 130.542 49.8019 131.102C50.0913 131.653 50.2359 132.283 50.2359 132.992C50.2359 133.701 50.0913 134.336 49.8019 134.896C49.5219 135.447 49.1253 135.881 48.6119 136.198C48.0986 136.515 47.4966 136.674 46.8059 136.674C46.2366 136.674 45.7326 136.557 45.2939 136.324C44.8646 136.091 44.5333 135.764 44.2999 135.344V139.586H43.1239ZM46.6799 135.652C47.1373 135.652 47.5433 135.54 47.8979 135.316C48.2526 135.092 48.5279 134.784 48.7239 134.392C48.9293 133.991 49.0319 133.519 49.0319 132.978C49.0319 132.446 48.9293 131.979 48.7239 131.578C48.5279 131.177 48.2526 130.864 47.8979 130.64C47.5433 130.416 47.1373 130.304 46.6799 130.304C46.2133 130.304 45.8026 130.416 45.4479 130.64C45.0933 130.864 44.8179 131.177 44.6219 131.578C44.4259 131.979 44.3279 132.446 44.3279 132.978C44.3279 133.519 44.4259 133.991 44.6219 134.392C44.8179 134.784 45.0933 135.092 45.4479 135.316C45.8026 135.54 46.2133 135.652 46.6799 135.652ZM51.9996 136.506V129.45H53.1756V136.506H51.9996ZM52.5876 127.952C52.3543 127.952 52.1583 127.877 51.9996 127.728C51.8503 127.569 51.7756 127.373 51.7756 127.14C51.7756 126.907 51.8503 126.72 51.9996 126.58C52.1583 126.431 52.3543 126.356 52.5876 126.356C52.8116 126.356 53.0029 126.431 53.1616 126.58C53.3203 126.72 53.3996 126.907 53.3996 127.14C53.3996 127.373 53.3203 127.569 53.1616 127.728C53.0029 127.877 52.8116 127.952 52.5876 127.952ZM57.9109 136.674C57.3229 136.674 56.8095 136.576 56.3709 136.38C55.9415 136.184 55.5962 135.913 55.3349 135.568C55.0829 135.213 54.9289 134.798 54.8729 134.322H56.0769C56.1235 134.565 56.2215 134.789 56.3709 134.994C56.5202 135.199 56.7209 135.367 56.9729 135.498C57.2342 135.619 57.5515 135.68 57.9249 135.68C58.2515 135.68 58.5222 135.633 58.7369 135.54C58.9515 135.437 59.1102 135.302 59.2129 135.134C59.3249 134.966 59.3809 134.784 59.3809 134.588C59.3809 134.299 59.3109 134.079 59.1709 133.93C59.0402 133.781 58.8442 133.664 58.5829 133.58C58.3215 133.487 58.0042 133.407 57.6309 133.342C57.3229 133.286 57.0195 133.211 56.7209 133.118C56.4222 133.025 56.1562 132.903 55.9229 132.754C55.6895 132.595 55.5029 132.404 55.3629 132.18C55.2322 131.956 55.1669 131.681 55.1669 131.354C55.1669 130.953 55.2695 130.598 55.4749 130.29C55.6802 129.973 55.9742 129.725 56.3569 129.548C56.7489 129.371 57.2015 129.282 57.7149 129.282C58.4709 129.282 59.0822 129.464 59.5489 129.828C60.0155 130.192 60.2909 130.719 60.3749 131.41H59.2129C59.1662 131.055 59.0122 130.78 58.7509 130.584C58.4989 130.379 58.1489 130.276 57.7009 130.276C57.2622 130.276 56.9262 130.365 56.6929 130.542C56.4689 130.719 56.3569 130.953 56.3569 131.242C56.3569 131.429 56.4175 131.597 56.5389 131.746C56.6695 131.886 56.8562 132.007 57.0989 132.11C57.3509 132.213 57.6589 132.297 58.0229 132.362C58.4895 132.446 58.9142 132.558 59.2969 132.698C59.6795 132.838 59.9875 133.048 60.2209 133.328C60.4635 133.599 60.5849 133.986 60.5849 134.49C60.5849 134.929 60.4729 135.311 60.2489 135.638C60.0342 135.965 59.7262 136.221 59.3249 136.408C58.9235 136.585 58.4522 136.674 57.9109 136.674ZM65.4562 136.674C64.7936 136.674 64.1962 136.52 63.6642 136.212C63.1416 135.904 62.7309 135.475 62.4322 134.924C62.1336 134.364 61.9842 133.72 61.9842 132.992C61.9842 132.245 62.1336 131.597 62.4322 131.046C62.7309 130.495 63.1416 130.066 63.6642 129.758C64.1962 129.441 64.7936 129.282 65.4562 129.282C66.2962 129.282 66.9962 129.501 67.5562 129.94C68.1162 130.369 68.4709 130.948 68.6202 131.676H67.4162C67.3229 131.237 67.0942 130.897 66.7302 130.654C66.3662 130.411 65.9369 130.29 65.4422 130.29C65.0409 130.29 64.6676 130.393 64.3222 130.598C63.9769 130.794 63.7016 131.093 63.4962 131.494C63.2909 131.895 63.1882 132.39 63.1882 132.978C63.1882 133.417 63.2489 133.809 63.3702 134.154C63.4916 134.49 63.6549 134.77 63.8602 134.994C64.0656 135.218 64.3036 135.391 64.5742 135.512C64.8542 135.624 65.1436 135.68 65.4422 135.68C65.7782 135.68 66.0816 135.629 66.3522 135.526C66.6229 135.414 66.8516 135.251 67.0382 135.036C67.2249 134.821 67.3509 134.569 67.4162 134.28H68.6202C68.4709 134.989 68.1116 135.568 67.5422 136.016C66.9822 136.455 66.2869 136.674 65.4562 136.674ZM70.4019 136.506V129.45H71.5779V136.506H70.4019ZM70.9899 127.952C70.7566 127.952 70.5606 127.877 70.4019 127.728C70.2526 127.569 70.1779 127.373 70.1779 127.14C70.1779 126.907 70.2526 126.72 70.4019 126.58C70.5606 126.431 70.7566 126.356 70.9899 126.356C71.2139 126.356 71.4053 126.431 71.5639 126.58C71.7226 126.72 71.8019 126.907 71.8019 127.14C71.8019 127.373 71.7226 127.569 71.5639 127.728C71.4053 127.877 71.2139 127.952 70.9899 127.952ZM73.6532 136.506V129.45H74.7172L74.7732 130.682C74.9972 130.243 75.3146 129.903 75.7252 129.66C76.1452 129.408 76.6212 129.282 77.1532 129.282C77.7039 129.282 78.1799 129.394 78.5812 129.618C78.9826 129.833 79.2952 130.164 79.5192 130.612C79.7432 131.051 79.8552 131.611 79.8552 132.292V136.506H78.6792V132.418C78.6792 131.709 78.5206 131.177 78.2032 130.822C77.8952 130.467 77.4566 130.29 76.8872 130.29C76.4952 130.29 76.1452 130.388 75.8372 130.584C75.5292 130.771 75.2819 131.046 75.0952 131.41C74.9179 131.765 74.8292 132.208 74.8292 132.74V136.506H73.6532ZM84.4783 139.754C83.8436 139.754 83.2789 139.67 82.7843 139.502C82.2989 139.343 81.9209 139.096 81.6503 138.76C81.3796 138.424 81.2443 138.009 81.2443 137.514C81.2443 137.299 81.2863 137.071 81.3703 136.828C81.4636 136.585 81.6176 136.347 81.8323 136.114C82.0563 135.881 82.3689 135.671 82.7703 135.484L83.5823 135.96C83.0876 136.165 82.7656 136.399 82.6163 136.66C82.4669 136.931 82.3923 137.178 82.3923 137.402C82.3923 137.71 82.4809 137.967 82.6583 138.172C82.8356 138.377 83.0829 138.531 83.4003 138.634C83.7176 138.737 84.0769 138.788 84.4783 138.788C84.8796 138.788 85.2249 138.732 85.5143 138.62C85.8036 138.508 86.0276 138.349 86.1863 138.144C86.3449 137.939 86.4243 137.696 86.4243 137.416C86.4243 137.089 86.3029 136.814 86.0603 136.59C85.8176 136.375 85.3556 136.249 84.6743 136.212C84.1236 136.175 83.6616 136.123 83.2883 136.058C82.9149 135.993 82.6069 135.918 82.3643 135.834C82.1216 135.741 81.9163 135.638 81.7483 135.526C81.5896 135.414 81.4449 135.297 81.3143 135.176V134.854L82.6723 133.51L83.6943 133.874L82.2943 135.134L82.4763 134.644C82.5789 134.719 82.6769 134.789 82.7703 134.854C82.8636 134.919 82.9896 134.975 83.1483 135.022C83.3069 135.069 83.5263 135.111 83.8063 135.148C84.0956 135.185 84.4736 135.223 84.9403 135.26C85.5843 135.307 86.0976 135.419 86.4803 135.596C86.8723 135.773 87.1523 136.011 87.3203 136.31C87.4976 136.609 87.5863 136.963 87.5863 137.374C87.5863 137.775 87.4743 138.153 87.2503 138.508C87.0356 138.872 86.6996 139.171 86.2423 139.404C85.7849 139.637 85.1969 139.754 84.4783 139.754ZM84.4643 134.294C83.8763 134.294 83.3723 134.182 82.9523 133.958C82.5416 133.734 82.2289 133.435 82.0143 133.062C81.7996 132.679 81.6923 132.255 81.6923 131.788C81.6923 131.321 81.7996 130.901 82.0143 130.528C82.2383 130.155 82.5556 129.856 82.9663 129.632C83.3769 129.399 83.8763 129.282 84.4643 129.282C85.0523 129.282 85.5516 129.399 85.9623 129.632C86.3729 129.856 86.6856 130.155 86.9003 130.528C87.1149 130.901 87.2223 131.321 87.2223 131.788C87.2223 132.255 87.1149 132.679 86.9003 133.062C86.6856 133.435 86.3729 133.734 85.9623 133.958C85.5516 134.182 85.0523 134.294 84.4643 134.294ZM84.4643 133.328C84.9683 133.328 85.3649 133.197 85.6543 132.936C85.9436 132.675 86.0883 132.292 86.0883 131.788C86.0883 131.293 85.9436 130.915 85.6543 130.654C85.3649 130.393 84.9683 130.262 84.4643 130.262C83.9696 130.262 83.5683 130.393 83.2603 130.654C82.9616 130.915 82.8123 131.293 82.8123 131.788C82.8123 132.292 82.9616 132.675 83.2603 132.936C83.5589 133.197 83.9603 133.328 84.4643 133.328ZM85.6123 130.444L85.2623 129.45H88.1463V130.332L85.6123 130.444ZM96.3117 136.674C95.649 136.674 95.061 136.52 94.5477 136.212C94.0437 135.904 93.647 135.475 93.3577 134.924C93.0683 134.364 92.9237 133.715 92.9237 132.978C92.9237 132.231 93.0637 131.583 93.3437 131.032C93.633 130.481 94.0343 130.052 94.5477 129.744C95.0703 129.436 95.6677 129.282 96.3397 129.282C97.0303 129.282 97.6137 129.436 98.0897 129.744C98.575 130.052 98.9437 130.458 99.1957 130.962C99.457 131.457 99.5877 132.003 99.5877 132.6C99.5877 132.693 99.5877 132.791 99.5877 132.894C99.5877 132.997 99.583 133.113 99.5737 133.244H93.8057V132.334H98.4397C98.4117 131.69 98.197 131.186 97.7957 130.822C97.4037 130.458 96.909 130.276 96.3117 130.276C95.9103 130.276 95.537 130.369 95.1917 130.556C94.8557 130.733 94.585 130.999 94.3797 131.354C94.1743 131.699 94.0717 132.133 94.0717 132.656V133.048C94.0717 133.627 94.1743 134.112 94.3797 134.504C94.5943 134.896 94.8697 135.19 95.2057 135.386C95.551 135.582 95.9197 135.68 96.3117 135.68C96.8063 135.68 97.2123 135.573 97.5297 135.358C97.8563 135.134 98.0897 134.835 98.2297 134.462H99.3917C99.2797 134.882 99.0837 135.26 98.8037 135.596C98.5237 135.932 98.1737 136.198 97.7537 136.394C97.343 136.581 96.8623 136.674 96.3117 136.674ZM101.175 136.506V126.426H102.351V136.506H101.175ZM104.404 136.506V129.45H105.58V136.506H104.404ZM104.992 127.952C104.759 127.952 104.563 127.877 104.404 127.728C104.255 127.569 104.18 127.373 104.18 127.14C104.18 126.907 104.255 126.72 104.404 126.58C104.563 126.431 104.759 126.356 104.992 126.356C105.216 126.356 105.407 126.431 105.566 126.58C105.725 126.72 105.804 126.907 105.804 127.14C105.804 127.373 105.725 127.569 105.566 127.728C105.407 127.877 105.216 127.952 104.992 127.952ZM110.427 136.506C110.007 136.506 109.643 136.441 109.335 136.31C109.027 136.179 108.789 135.96 108.621 135.652C108.463 135.335 108.383 134.91 108.383 134.378V130.444H107.151V129.45H108.383L108.537 127.742H109.559V129.45H111.603V130.444H109.559V134.378C109.559 134.817 109.648 135.115 109.825 135.274C110.003 135.423 110.315 135.498 110.763 135.498H111.519V136.506H110.427ZM113.558 136.576C113.324 136.576 113.128 136.501 112.97 136.352C112.82 136.193 112.746 136.002 112.746 135.778C112.746 135.554 112.82 135.367 112.97 135.218C113.128 135.059 113.324 134.98 113.558 134.98C113.791 134.98 113.982 135.059 114.132 135.218C114.281 135.367 114.356 135.554 114.356 135.778C114.356 136.002 114.281 136.193 114.132 136.352C113.982 136.501 113.791 136.576 113.558 136.576ZM119.702 136.506V126.706H120.878V135.568H125.442V136.506H119.702ZM129.808 136.674C129.145 136.674 128.557 136.52 128.044 136.212C127.54 135.904 127.143 135.475 126.854 134.924C126.564 134.364 126.42 133.715 126.42 132.978C126.42 132.231 126.56 131.583 126.84 131.032C127.129 130.481 127.53 130.052 128.044 129.744C128.566 129.436 129.164 129.282 129.836 129.282C130.526 129.282 131.11 129.436 131.586 129.744C132.071 130.052 132.44 130.458 132.692 130.962C132.953 131.457 133.084 132.003 133.084 132.6C133.084 132.693 133.084 132.791 133.084 132.894C133.084 132.997 133.079 133.113 133.07 133.244H127.302V132.334H131.936C131.908 131.69 131.693 131.186 131.292 130.822C130.9 130.458 130.405 130.276 129.808 130.276C129.406 130.276 129.033 130.369 128.688 130.556C128.352 130.733 128.081 130.999 127.876 131.354C127.67 131.699 127.568 132.133 127.568 132.656V133.048C127.568 133.627 127.67 134.112 127.876 134.504C128.09 134.896 128.366 135.19 128.702 135.386C129.047 135.582 129.416 135.68 129.808 135.68C130.302 135.68 130.708 135.573 131.026 135.358C131.352 135.134 131.586 134.835 131.726 134.462H132.888C132.776 134.882 132.58 135.26 132.3 135.596C132.02 135.932 131.67 136.198 131.25 136.394C130.839 136.581 130.358 136.674 129.808 136.674ZM137.849 136.674C137.186 136.674 136.589 136.52 136.057 136.212C135.534 135.904 135.123 135.475 134.825 134.924C134.526 134.364 134.377 133.72 134.377 132.992C134.377 132.245 134.526 131.597 134.825 131.046C135.123 130.495 135.534 130.066 136.057 129.758C136.589 129.441 137.186 129.282 137.849 129.282C138.689 129.282 139.389 129.501 139.949 129.94C140.509 130.369 140.863 130.948 141.013 131.676H139.809C139.715 131.237 139.487 130.897 139.123 130.654C138.759 130.411 138.329 130.29 137.835 130.29C137.433 130.29 137.06 130.393 136.715 130.598C136.369 130.794 136.094 131.093 135.889 131.494C135.683 131.895 135.581 132.39 135.581 132.978C135.581 133.417 135.641 133.809 135.763 134.154C135.884 134.49 136.047 134.77 136.253 134.994C136.458 135.218 136.696 135.391 136.967 135.512C137.247 135.624 137.536 135.68 137.835 135.68C138.171 135.68 138.474 135.629 138.745 135.526C139.015 135.414 139.244 135.251 139.431 135.036C139.617 134.821 139.743 134.569 139.809 134.28H141.013C140.863 134.989 140.504 135.568 139.935 136.016C139.375 136.455 138.679 136.674 137.849 136.674ZM145.263 136.506C144.843 136.506 144.479 136.441 144.171 136.31C143.863 136.179 143.625 135.96 143.457 135.652C143.298 135.335 143.219 134.91 143.219 134.378V130.444H141.987V129.45H143.219L143.373 127.742H144.395V129.45H146.439V130.444H144.395V134.378C144.395 134.817 144.484 135.115 144.661 135.274C144.838 135.423 145.151 135.498 145.599 135.498H146.355V136.506H145.263ZM150.536 136.674C149.994 136.674 149.518 136.567 149.108 136.352C148.706 136.137 148.394 135.806 148.17 135.358C147.955 134.91 147.848 134.35 147.848 133.678V129.45H149.024V133.552C149.024 134.252 149.178 134.779 149.486 135.134C149.794 135.489 150.228 135.666 150.788 135.666C151.18 135.666 151.534 135.573 151.852 135.386C152.169 135.19 152.416 134.915 152.594 134.56C152.78 134.196 152.874 133.753 152.874 133.23V129.45H154.05V136.506H152.986L152.916 135.274C152.701 135.713 152.384 136.058 151.964 136.31C151.544 136.553 151.068 136.674 150.536 136.674ZM158.659 136.674C158.071 136.674 157.558 136.576 157.119 136.38C156.69 136.184 156.344 135.913 156.083 135.568C155.831 135.213 155.677 134.798 155.621 134.322H156.825C156.872 134.565 156.97 134.789 157.119 134.994C157.268 135.199 157.469 135.367 157.721 135.498C157.982 135.619 158.3 135.68 158.673 135.68C159 135.68 159.27 135.633 159.485 135.54C159.7 135.437 159.858 135.302 159.961 135.134C160.073 134.966 160.129 134.784 160.129 134.588C160.129 134.299 160.059 134.079 159.919 133.93C159.788 133.781 159.592 133.664 159.331 133.58C159.07 133.487 158.752 133.407 158.379 133.342C158.071 133.286 157.768 133.211 157.469 133.118C157.17 133.025 156.904 132.903 156.671 132.754C156.438 132.595 156.251 132.404 156.111 132.18C155.98 131.956 155.915 131.681 155.915 131.354C155.915 130.953 156.018 130.598 156.223 130.29C156.428 129.973 156.722 129.725 157.105 129.548C157.497 129.371 157.95 129.282 158.463 129.282C159.219 129.282 159.83 129.464 160.297 129.828C160.764 130.192 161.039 130.719 161.123 131.41H159.961C159.914 131.055 159.76 130.78 159.499 130.584C159.247 130.379 158.897 130.276 158.449 130.276C158.01 130.276 157.674 130.365 157.441 130.542C157.217 130.719 157.105 130.953 157.105 131.242C157.105 131.429 157.166 131.597 157.287 131.746C157.418 131.886 157.604 132.007 157.847 132.11C158.099 132.213 158.407 132.297 158.771 132.362C159.238 132.446 159.662 132.558 160.045 132.698C160.428 132.838 160.736 133.048 160.969 133.328C161.212 133.599 161.333 133.986 161.333 134.49C161.333 134.929 161.221 135.311 160.997 135.638C160.782 135.965 160.474 136.221 160.073 136.408C159.672 136.585 159.2 136.674 158.659 136.674ZM166.857 136.506V129.45H168.033V136.506H166.857ZM167.445 127.952C167.212 127.952 167.016 127.877 166.857 127.728C166.708 127.569 166.633 127.373 166.633 127.14C166.633 126.907 166.708 126.72 166.857 126.58C167.016 126.431 167.212 126.356 167.445 126.356C167.669 126.356 167.86 126.431 168.019 126.58C168.178 126.72 168.257 126.907 168.257 127.14C168.257 127.373 168.178 127.569 168.019 127.728C167.86 127.877 167.669 127.952 167.445 127.952ZM173.216 136.674C172.535 136.674 171.938 136.515 171.424 136.198C170.911 135.871 170.514 135.428 170.234 134.868C169.954 134.308 169.814 133.673 169.814 132.964C169.814 132.255 169.954 131.625 170.234 131.074C170.514 130.514 170.911 130.075 171.424 129.758C171.947 129.441 172.549 129.282 173.23 129.282C173.809 129.282 174.313 129.399 174.742 129.632C175.181 129.865 175.517 130.192 175.75 130.612V126.426H176.926V136.506H175.862L175.764 135.344C175.615 135.577 175.424 135.797 175.19 136.002C174.957 136.198 174.677 136.361 174.35 136.492C174.024 136.613 173.646 136.674 173.216 136.674ZM173.356 135.652C173.823 135.652 174.234 135.54 174.588 135.316C174.943 135.092 175.218 134.784 175.414 134.392C175.61 133.991 175.708 133.519 175.708 132.978C175.708 132.446 175.61 131.979 175.414 131.578C175.218 131.177 174.943 130.864 174.588 130.64C174.234 130.416 173.823 130.304 173.356 130.304C172.899 130.304 172.493 130.416 172.138 130.64C171.784 130.864 171.508 131.177 171.312 131.578C171.116 131.979 171.018 132.446 171.018 132.978C171.018 133.519 171.116 133.991 171.312 134.392C171.508 134.784 171.784 135.092 172.138 135.316C172.493 135.54 172.899 135.652 173.356 135.652ZM185.782 136.674C185.12 136.674 184.522 136.52 183.99 136.212C183.468 135.904 183.057 135.475 182.758 134.924C182.46 134.364 182.31 133.72 182.31 132.992C182.31 132.245 182.46 131.597 182.758 131.046C183.057 130.495 183.468 130.066 183.99 129.758C184.522 129.441 185.12 129.282 185.782 129.282C186.622 129.282 187.322 129.501 187.882 129.94C188.442 130.369 188.797 130.948 188.946 131.676H187.742C187.649 131.237 187.42 130.897 187.056 130.654C186.692 130.411 186.263 130.29 185.768 130.29C185.367 130.29 184.994 130.393 184.648 130.598C184.303 130.794 184.028 131.093 183.822 131.494C183.617 131.895 183.514 132.39 183.514 132.978C183.514 133.417 183.575 133.809 183.696 134.154C183.818 134.49 183.981 134.77 184.186 134.994C184.392 135.218 184.63 135.391 184.9 135.512C185.18 135.624 185.47 135.68 185.768 135.68C186.104 135.68 186.408 135.629 186.678 135.526C186.949 135.414 187.178 135.251 187.364 135.036C187.551 134.821 187.677 134.569 187.742 134.28H188.946C188.797 134.989 188.438 135.568 187.868 136.016C187.308 136.455 186.613 136.674 185.782 136.674ZM193.766 136.674C193.113 136.674 192.525 136.525 192.002 136.226C191.479 135.918 191.069 135.489 190.77 134.938C190.471 134.378 190.322 133.729 190.322 132.992C190.322 132.236 190.471 131.583 190.77 131.032C191.078 130.472 191.493 130.043 192.016 129.744C192.548 129.436 193.141 129.282 193.794 129.282C194.466 129.282 195.059 129.436 195.572 129.744C196.095 130.043 196.505 130.472 196.804 131.032C197.112 131.583 197.266 132.231 197.266 132.978C197.266 133.725 197.112 134.378 196.804 134.938C196.496 135.489 196.081 135.918 195.558 136.226C195.035 136.525 194.438 136.674 193.766 136.674ZM193.78 135.666C194.181 135.666 194.555 135.568 194.9 135.372C195.245 135.167 195.525 134.863 195.74 134.462C195.955 134.061 196.062 133.566 196.062 132.978C196.062 132.381 195.955 131.886 195.74 131.494C195.535 131.093 195.259 130.794 194.914 130.598C194.578 130.393 194.205 130.29 193.794 130.29C193.402 130.29 193.029 130.393 192.674 130.598C192.329 130.794 192.049 131.093 191.834 131.494C191.629 131.886 191.526 132.381 191.526 132.978C191.526 133.566 191.629 134.061 191.834 134.462C192.049 134.863 192.324 135.167 192.66 135.372C193.005 135.568 193.379 135.666 193.78 135.666ZM198.915 136.506V129.45H199.979L200.049 130.458C200.273 130.094 200.572 129.809 200.945 129.604C201.328 129.389 201.743 129.282 202.191 129.282C202.555 129.282 202.882 129.333 203.171 129.436C203.47 129.529 203.731 129.679 203.955 129.884C204.179 130.08 204.361 130.332 204.501 130.64C204.744 130.211 205.075 129.879 205.495 129.646C205.924 129.403 206.382 129.282 206.867 129.282C207.408 129.282 207.88 129.394 208.281 129.618C208.692 129.833 209.004 130.164 209.219 130.612C209.443 131.051 209.555 131.611 209.555 132.292V136.506H208.393V132.418C208.393 131.709 208.248 131.177 207.959 130.822C207.67 130.467 207.264 130.29 206.741 130.29C206.377 130.29 206.05 130.388 205.761 130.584C205.472 130.771 205.243 131.046 205.075 131.41C204.907 131.774 204.823 132.222 204.823 132.754V136.506H203.647V132.418C203.647 131.709 203.502 131.177 203.213 130.822C202.924 130.467 202.513 130.29 201.981 130.29C201.626 130.29 201.304 130.388 201.015 130.584C200.735 130.771 200.511 131.046 200.343 131.41C200.175 131.774 200.091 132.222 200.091 132.754V136.506H198.915ZM211.384 136.506V129.45H212.448L212.518 130.458C212.742 130.094 213.04 129.809 213.414 129.604C213.796 129.389 214.212 129.282 214.66 129.282C215.024 129.282 215.35 129.333 215.64 129.436C215.938 129.529 216.2 129.679 216.424 129.884C216.648 130.08 216.83 130.332 216.97 130.64C217.212 130.211 217.544 129.879 217.964 129.646C218.393 129.403 218.85 129.282 219.336 129.282C219.877 129.282 220.348 129.394 220.75 129.618C221.16 129.833 221.473 130.164 221.688 130.612C221.912 131.051 222.024 131.611 222.024 132.292V136.506H220.862V132.418C220.862 131.709 220.717 131.177 220.428 130.822C220.138 130.467 219.732 130.29 219.21 130.29C218.846 130.29 218.519 130.388 218.23 130.584C217.94 130.771 217.712 131.046 217.544 131.41C217.376 131.774 217.292 132.222 217.292 132.754V136.506H216.116V132.418C216.116 131.709 215.971 131.177 215.682 130.822C215.392 130.467 214.982 130.29 214.45 130.29C214.095 130.29 213.773 130.388 213.484 130.584C213.204 130.771 212.98 131.046 212.812 131.41C212.644 131.774 212.56 132.222 212.56 132.754V136.506H211.384ZM227.002 136.674C226.349 136.674 225.761 136.525 225.238 136.226C224.716 135.918 224.305 135.489 224.006 134.938C223.708 134.378 223.558 133.729 223.558 132.992C223.558 132.236 223.708 131.583 224.006 131.032C224.314 130.472 224.73 130.043 225.252 129.744C225.784 129.436 226.377 129.282 227.03 129.282C227.702 129.282 228.295 129.436 228.808 129.744C229.331 130.043 229.742 130.472 230.04 131.032C230.348 131.583 230.502 132.231 230.502 132.978C230.502 133.725 230.348 134.378 230.04 134.938C229.732 135.489 229.317 135.918 228.794 136.226C228.272 136.525 227.674 136.674 227.002 136.674ZM227.016 135.666C227.418 135.666 227.791 135.568 228.136 135.372C228.482 135.167 228.762 134.863 228.976 134.462C229.191 134.061 229.298 133.566 229.298 132.978C229.298 132.381 229.191 131.886 228.976 131.494C228.771 131.093 228.496 130.794 228.15 130.598C227.814 130.393 227.441 130.29 227.03 130.29C226.638 130.29 226.265 130.393 225.91 130.598C225.565 130.794 225.285 131.093 225.07 131.494C224.865 131.886 224.762 132.381 224.762 132.978C224.762 133.566 224.865 134.061 225.07 134.462C225.285 134.863 225.56 135.167 225.896 135.372C226.242 135.568 226.615 135.666 227.016 135.666ZM235.259 136.674C234.578 136.674 233.981 136.515 233.467 136.198C232.954 135.871 232.557 135.428 232.277 134.868C231.997 134.308 231.857 133.673 231.857 132.964C231.857 132.255 231.997 131.625 232.277 131.074C232.557 130.514 232.954 130.075 233.467 129.758C233.99 129.441 234.592 129.282 235.273 129.282C235.852 129.282 236.356 129.399 236.785 129.632C237.224 129.865 237.56 130.192 237.793 130.612V126.426H238.969V136.506H237.905L237.807 135.344C237.658 135.577 237.467 135.797 237.233 136.002C237 136.198 236.72 136.361 236.393 136.492C236.067 136.613 235.689 136.674 235.259 136.674ZM235.399 135.652C235.866 135.652 236.277 135.54 236.631 135.316C236.986 135.092 237.261 134.784 237.457 134.392C237.653 133.991 237.751 133.519 237.751 132.978C237.751 132.446 237.653 131.979 237.457 131.578C237.261 131.177 236.986 130.864 236.631 130.64C236.277 130.416 235.866 130.304 235.399 130.304C234.942 130.304 234.536 130.416 234.181 130.64C233.827 130.864 233.551 131.177 233.355 131.578C233.159 131.979 233.061 132.446 233.061 132.978C233.061 133.519 233.159 133.991 233.355 134.392C233.551 134.784 233.827 135.092 234.181 135.316C234.536 135.54 234.942 135.652 235.399 135.652ZM244.079 136.674C243.425 136.674 242.837 136.525 242.315 136.226C241.792 135.918 241.381 135.489 241.083 134.938C240.784 134.378 240.635 133.729 240.635 132.992C240.635 132.236 240.784 131.583 241.083 131.032C241.391 130.472 241.806 130.043 242.329 129.744C242.861 129.436 243.453 129.282 244.107 129.282C244.779 129.282 245.371 129.436 245.885 129.744C246.407 130.043 246.818 130.472 247.117 131.032C247.425 131.583 247.579 132.231 247.579 132.978C247.579 133.725 247.425 134.378 247.117 134.938C246.809 135.489 246.393 135.918 245.871 136.226C245.348 136.525 244.751 136.674 244.079 136.674ZM244.093 135.666C244.494 135.666 244.867 135.568 245.213 135.372C245.558 135.167 245.838 134.863 246.053 134.462C246.267 134.061 246.375 133.566 246.375 132.978C246.375 132.381 246.267 131.886 246.053 131.494C245.847 131.093 245.572 130.794 245.227 130.598C244.891 130.393 244.517 130.29 244.107 130.29C243.715 130.29 243.341 130.393 242.987 130.598C242.641 130.794 242.361 131.093 242.147 131.494C241.941 131.886 241.839 132.381 241.839 132.978C241.839 133.566 241.941 134.061 242.147 134.462C242.361 134.863 242.637 135.167 242.973 135.372C243.318 135.568 243.691 135.666 244.093 135.666ZM256.04 136.674C255.378 136.674 254.79 136.52 254.276 136.212C253.772 135.904 253.376 135.475 253.086 134.924C252.797 134.364 252.652 133.715 252.652 132.978C252.652 132.231 252.792 131.583 253.072 131.032C253.362 130.481 253.763 130.052 254.276 129.744C254.799 129.436 255.396 129.282 256.068 129.282C256.759 129.282 257.342 129.436 257.818 129.744C258.304 130.052 258.672 130.458 258.924 130.962C259.186 131.457 259.316 132.003 259.316 132.6C259.316 132.693 259.316 132.791 259.316 132.894C259.316 132.997 259.312 133.113 259.302 133.244H253.534V132.334H258.168C258.14 131.69 257.926 131.186 257.524 130.822C257.132 130.458 256.638 130.276 256.04 130.276C255.639 130.276 255.266 130.369 254.92 130.556C254.584 130.733 254.314 130.999 254.108 131.354C253.903 131.699 253.8 132.133 253.8 132.656V133.048C253.8 133.627 253.903 134.112 254.108 134.504C254.323 134.896 254.598 135.19 254.934 135.386C255.28 135.582 255.648 135.68 256.04 135.68C256.535 135.68 256.941 135.573 257.258 135.358C257.585 135.134 257.818 134.835 257.958 134.462H259.12C259.008 134.882 258.812 135.26 258.532 135.596C258.252 135.932 257.902 136.198 257.482 136.394C257.072 136.581 256.591 136.674 256.04 136.674ZM263.648 139.754C263.014 139.754 262.449 139.67 261.954 139.502C261.469 139.343 261.091 139.096 260.82 138.76C260.55 138.424 260.414 138.009 260.414 137.514C260.414 137.299 260.456 137.071 260.54 136.828C260.634 136.585 260.788 136.347 261.002 136.114C261.226 135.881 261.539 135.671 261.94 135.484L262.752 135.96C262.258 136.165 261.936 136.399 261.786 136.66C261.637 136.931 261.562 137.178 261.562 137.402C261.562 137.71 261.651 137.967 261.828 138.172C262.006 138.377 262.253 138.531 262.57 138.634C262.888 138.737 263.247 138.788 263.648 138.788C264.05 138.788 264.395 138.732 264.684 138.62C264.974 138.508 265.198 138.349 265.356 138.144C265.515 137.939 265.594 137.696 265.594 137.416C265.594 137.089 265.473 136.814 265.23 136.59C264.988 136.375 264.526 136.249 263.844 136.212C263.294 136.175 262.832 136.123 262.458 136.058C262.085 135.993 261.777 135.918 261.534 135.834C261.292 135.741 261.086 135.638 260.918 135.526C260.76 135.414 260.615 135.297 260.484 135.176V134.854L261.842 133.51L262.864 133.874L261.464 135.134L261.646 134.644C261.749 134.719 261.847 134.789 261.94 134.854C262.034 134.919 262.16 134.975 262.318 135.022C262.477 135.069 262.696 135.111 262.976 135.148C263.266 135.185 263.644 135.223 264.11 135.26C264.754 135.307 265.268 135.419 265.65 135.596C266.042 135.773 266.322 136.011 266.49 136.31C266.668 136.609 266.756 136.963 266.756 137.374C266.756 137.775 266.644 138.153 266.42 138.508C266.206 138.872 265.87 139.171 265.412 139.404C264.955 139.637 264.367 139.754 263.648 139.754ZM263.634 134.294C263.046 134.294 262.542 134.182 262.122 133.958C261.712 133.734 261.399 133.435 261.184 133.062C260.97 132.679 260.862 132.255 260.862 131.788C260.862 131.321 260.97 130.901 261.184 130.528C261.408 130.155 261.726 129.856 262.136 129.632C262.547 129.399 263.046 129.282 263.634 129.282C264.222 129.282 264.722 129.399 265.132 129.632C265.543 129.856 265.856 130.155 266.07 130.528C266.285 130.901 266.392 131.321 266.392 131.788C266.392 132.255 266.285 132.679 266.07 133.062C265.856 133.435 265.543 133.734 265.132 133.958C264.722 134.182 264.222 134.294 263.634 134.294ZM263.634 133.328C264.138 133.328 264.535 133.197 264.824 132.936C265.114 132.675 265.258 132.292 265.258 131.788C265.258 131.293 265.114 130.915 264.824 130.654C264.535 130.393 264.138 130.262 263.634 130.262C263.14 130.262 262.738 130.393 262.43 130.654C262.132 130.915 261.982 131.293 261.982 131.788C261.982 132.292 262.132 132.675 262.43 132.936C262.729 133.197 263.13 133.328 263.634 133.328ZM264.782 130.444L264.432 129.45H267.316V130.332L264.782 130.444ZM271.489 136.674C270.827 136.674 270.239 136.52 269.725 136.212C269.221 135.904 268.825 135.475 268.535 134.924C268.246 134.364 268.101 133.715 268.101 132.978C268.101 132.231 268.241 131.583 268.521 131.032C268.811 130.481 269.212 130.052 269.725 129.744C270.248 129.436 270.845 129.282 271.517 129.282C272.208 129.282 272.791 129.436 273.267 129.744C273.753 130.052 274.121 130.458 274.373 130.962C274.635 131.457 274.765 132.003 274.765 132.6C274.765 132.693 274.765 132.791 274.765 132.894C274.765 132.997 274.761 133.113 274.751 133.244H268.983V132.334H273.617C273.589 131.69 273.375 131.186 272.973 130.822C272.581 130.458 272.087 130.276 271.489 130.276C271.088 130.276 270.715 130.369 270.369 130.556C270.033 130.733 269.763 130.999 269.557 131.354C269.352 131.699 269.249 132.133 269.249 132.656V133.048C269.249 133.627 269.352 134.112 269.557 134.504C269.772 134.896 270.047 135.19 270.383 135.386C270.729 135.582 271.097 135.68 271.489 135.68C271.984 135.68 272.39 135.573 272.707 135.358C273.034 135.134 273.267 134.835 273.407 134.462H274.569C274.457 134.882 274.261 135.26 273.981 135.596C273.701 135.932 273.351 136.198 272.931 136.394C272.521 136.581 272.04 136.674 271.489 136.674ZM279.012 136.674C278.424 136.674 277.911 136.576 277.472 136.38C277.043 136.184 276.698 135.913 276.436 135.568C276.184 135.213 276.03 134.798 275.974 134.322H277.178C277.225 134.565 277.323 134.789 277.472 134.994C277.622 135.199 277.822 135.367 278.074 135.498C278.336 135.619 278.653 135.68 279.026 135.68C279.353 135.68 279.624 135.633 279.838 135.54C280.053 135.437 280.212 135.302 280.314 135.134C280.426 134.966 280.482 134.784 280.482 134.588C280.482 134.299 280.412 134.079 280.272 133.93C280.142 133.781 279.946 133.664 279.684 133.58C279.423 133.487 279.106 133.407 278.732 133.342C278.424 133.286 278.121 133.211 277.822 133.118C277.524 133.025 277.258 132.903 277.024 132.754C276.791 132.595 276.604 132.404 276.464 132.18C276.334 131.956 276.268 131.681 276.268 131.354C276.268 130.953 276.371 130.598 276.576 130.29C276.782 129.973 277.076 129.725 277.458 129.548C277.85 129.371 278.303 129.282 278.816 129.282C279.572 129.282 280.184 129.464 280.65 129.828C281.117 130.192 281.392 130.719 281.476 131.41H280.314C280.268 131.055 280.114 130.78 279.852 130.584C279.6 130.379 279.25 130.276 278.802 130.276C278.364 130.276 278.028 130.365 277.794 130.542C277.57 130.719 277.458 130.953 277.458 131.242C277.458 131.429 277.519 131.597 277.64 131.746C277.771 131.886 277.958 132.007 278.2 132.11C278.452 132.213 278.76 132.297 279.124 132.362C279.591 132.446 280.016 132.558 280.398 132.698C280.781 132.838 281.089 133.048 281.322 133.328C281.565 133.599 281.686 133.986 281.686 134.49C281.686 134.929 281.574 135.311 281.35 135.638C281.136 135.965 280.828 136.221 280.426 136.408C280.025 136.585 279.554 136.674 279.012 136.674ZM285.837 136.506C285.417 136.506 285.053 136.441 284.745 136.31C284.437 136.179 284.199 135.96 284.031 135.652C283.873 135.335 283.793 134.91 283.793 134.378V130.444H282.561V129.45H283.793L283.947 127.742H284.969V129.45H287.013V130.444H284.969V134.378C284.969 134.817 285.058 135.115 285.235 135.274C285.413 135.423 285.725 135.498 286.173 135.498H286.929V136.506H285.837ZM290.844 136.674C290.274 136.674 289.798 136.576 289.416 136.38C289.033 136.175 288.748 135.909 288.562 135.582C288.375 135.246 288.282 134.882 288.282 134.49C288.282 134.014 288.403 133.613 288.646 133.286C288.898 132.95 289.248 132.698 289.696 132.53C290.153 132.353 290.69 132.264 291.306 132.264H293.168C293.168 131.825 293.098 131.461 292.958 131.172C292.827 130.873 292.631 130.649 292.37 130.5C292.118 130.351 291.8 130.276 291.418 130.276C290.97 130.276 290.582 130.388 290.256 130.612C289.929 130.836 289.728 131.167 289.654 131.606H288.45C288.506 131.102 288.674 130.682 288.954 130.346C289.243 130.001 289.607 129.739 290.046 129.562C290.484 129.375 290.942 129.282 291.418 129.282C292.071 129.282 292.612 129.403 293.042 129.646C293.48 129.879 293.807 130.211 294.022 130.64C294.236 131.06 294.344 131.559 294.344 132.138V136.506H293.294L293.224 135.26C293.13 135.456 293.009 135.643 292.86 135.82C292.72 135.988 292.552 136.137 292.356 136.268C292.16 136.389 291.936 136.487 291.684 136.562C291.441 136.637 291.161 136.674 290.844 136.674ZM291.026 135.68C291.352 135.68 291.646 135.615 291.908 135.484C292.178 135.344 292.407 135.157 292.594 134.924C292.78 134.681 292.92 134.415 293.014 134.126C293.116 133.837 293.168 133.533 293.168 133.216V133.174H291.404C290.946 133.174 290.578 133.23 290.298 133.342C290.018 133.445 289.817 133.594 289.696 133.79C289.574 133.977 289.514 134.191 289.514 134.434C289.514 134.686 289.57 134.905 289.682 135.092C289.803 135.279 289.976 135.423 290.2 135.526C290.433 135.629 290.708 135.68 291.026 135.68ZM298.823 136.674C298.235 136.674 297.722 136.576 297.283 136.38C296.854 136.184 296.508 135.913 296.247 135.568C295.995 135.213 295.841 134.798 295.785 134.322H296.989C297.036 134.565 297.134 134.789 297.283 134.994C297.432 135.199 297.633 135.367 297.885 135.498C298.146 135.619 298.464 135.68 298.837 135.68C299.164 135.68 299.434 135.633 299.649 135.54C299.864 135.437 300.022 135.302 300.125 135.134C300.237 134.966 300.293 134.784 300.293 134.588C300.293 134.299 300.223 134.079 300.083 133.93C299.952 133.781 299.756 133.664 299.495 133.58C299.234 133.487 298.916 133.407 298.543 133.342C298.235 133.286 297.932 133.211 297.633 133.118C297.334 133.025 297.068 132.903 296.835 132.754C296.602 132.595 296.415 132.404 296.275 132.18C296.144 131.956 296.079 131.681 296.079 131.354C296.079 130.953 296.182 130.598 296.387 130.29C296.592 129.973 296.886 129.725 297.269 129.548C297.661 129.371 298.114 129.282 298.627 129.282C299.383 129.282 299.994 129.464 300.461 129.828C300.928 130.192 301.203 130.719 301.287 131.41H300.125C300.078 131.055 299.924 130.78 299.663 130.584C299.411 130.379 299.061 130.276 298.613 130.276C298.174 130.276 297.838 130.365 297.605 130.542C297.381 130.719 297.269 130.953 297.269 131.242C297.269 131.429 297.33 131.597 297.451 131.746C297.582 131.886 297.768 132.007 298.011 132.11C298.263 132.213 298.571 132.297 298.935 132.362C299.402 132.446 299.826 132.558 300.209 132.698C300.592 132.838 300.9 133.048 301.133 133.328C301.376 133.599 301.497 133.986 301.497 134.49C301.497 134.929 301.385 135.311 301.161 135.638C300.946 135.965 300.638 136.221 300.237 136.408C299.836 136.585 299.364 136.674 298.823 136.674ZM23.3681 154.506V147.45H24.4321L24.5021 148.458C24.7261 148.094 25.0247 147.809 25.3981 147.604C25.7807 147.389 26.1961 147.282 26.6441 147.282C27.0081 147.282 27.3347 147.333 27.6241 147.436C27.9227 147.529 28.1841 147.679 28.4081 147.884C28.6321 148.08 28.8141 148.332 28.9541 148.64C29.1967 148.211 29.5281 147.879 29.9481 147.646C30.3774 147.403 30.8347 147.282 31.3201 147.282C31.8614 147.282 32.3327 147.394 32.7341 147.618C33.1447 147.833 33.4574 148.164 33.6721 148.612C33.8961 149.051 34.0081 149.611 34.0081 150.292V154.506H32.8461V150.418C32.8461 149.709 32.7014 149.177 32.4121 148.822C32.1227 148.467 31.7167 148.29 31.1941 148.29C30.8301 148.29 30.5034 148.388 30.2141 148.584C29.9247 148.771 29.6961 149.046 29.5281 149.41C29.3601 149.774 29.2761 150.222 29.2761 150.754V154.506H28.1001V150.418C28.1001 149.709 27.9554 149.177 27.6661 148.822C27.3767 148.467 26.9661 148.29 26.4341 148.29C26.0794 148.29 25.7574 148.388 25.4681 148.584C25.1881 148.771 24.9641 149.046 24.7961 149.41C24.6281 149.774 24.5441 150.222 24.5441 150.754V154.506H23.3681ZM38.9308 154.674C38.2681 154.674 37.6801 154.52 37.1668 154.212C36.6628 153.904 36.2661 153.475 35.9768 152.924C35.6875 152.364 35.5428 151.715 35.5428 150.978C35.5428 150.231 35.6828 149.583 35.9628 149.032C36.2521 148.481 36.6535 148.052 37.1668 147.744C37.6895 147.436 38.2868 147.282 38.9588 147.282C39.6495 147.282 40.2328 147.436 40.7088 147.744C41.1941 148.052 41.5628 148.458 41.8148 148.962C42.0761 149.457 42.2068 150.003 42.2068 150.6C42.2068 150.693 42.2068 150.791 42.2068 150.894C42.2068 150.997 42.2021 151.113 42.1928 151.244H36.4248V150.334H41.0588C41.0308 149.69 40.8161 149.186 40.4148 148.822C40.0228 148.458 39.5281 148.276 38.9308 148.276C38.5295 148.276 38.1561 148.369 37.8108 148.556C37.4748 148.733 37.2041 148.999 36.9988 149.354C36.7935 149.699 36.6908 150.133 36.6908 150.656V151.048C36.6908 151.627 36.7935 152.112 36.9988 152.504C37.2135 152.896 37.4888 153.19 37.8248 153.386C38.1701 153.582 38.5388 153.68 38.9308 153.68C39.4255 153.68 39.8315 153.573 40.1488 153.358C40.4755 153.134 40.7088 152.835 40.8488 152.462H42.0108C41.8988 152.882 41.7028 153.26 41.4228 153.596C41.1428 153.932 40.7928 154.198 40.3728 154.394C39.9621 154.581 39.4815 154.674 38.9308 154.674ZM46.3334 154.506C45.9134 154.506 45.5494 154.441 45.2414 154.31C44.9334 154.179 44.6954 153.96 44.5274 153.652C44.3688 153.335 44.2894 152.91 44.2894 152.378V148.444H43.0574V147.45H44.2894L44.4434 145.742H45.4654V147.45H47.5094V148.444H45.4654V152.378C45.4654 152.817 45.5541 153.115 45.7314 153.274C45.9088 153.423 46.2214 153.498 46.6694 153.498H47.4254V154.506H46.3334ZM51.6058 154.674C51.0645 154.674 50.5885 154.567 50.1778 154.352C49.7765 154.137 49.4638 153.806 49.2398 153.358C49.0252 152.91 48.9178 152.35 48.9178 151.678V147.45H50.0938V151.552C50.0938 152.252 50.2478 152.779 50.5558 153.134C50.8638 153.489 51.2978 153.666 51.8578 153.666C52.2498 153.666 52.6045 153.573 52.9218 153.386C53.2392 153.19 53.4865 152.915 53.6638 152.56C53.8505 152.196 53.9438 151.753 53.9438 151.23V147.45H55.1198V154.506H54.0558L53.9858 153.274C53.7712 153.713 53.4538 154.058 53.0338 154.31C52.6138 154.553 52.1378 154.674 51.6058 154.674ZM59.7292 154.674C59.1412 154.674 58.6279 154.576 58.1892 154.38C57.7599 154.184 57.4146 153.913 57.1532 153.568C56.9012 153.213 56.7472 152.798 56.6912 152.322H57.8952C57.9419 152.565 58.0399 152.789 58.1892 152.994C58.3386 153.199 58.5392 153.367 58.7912 153.498C59.0526 153.619 59.3699 153.68 59.7432 153.68C60.0699 153.68 60.3406 153.633 60.5552 153.54C60.7699 153.437 60.9286 153.302 61.0312 153.134C61.1432 152.966 61.1992 152.784 61.1992 152.588C61.1992 152.299 61.1292 152.079 60.9892 151.93C60.8586 151.781 60.6626 151.664 60.4012 151.58C60.1399 151.487 59.8226 151.407 59.4492 151.342C59.1412 151.286 58.8379 151.211 58.5392 151.118C58.2406 151.025 57.9746 150.903 57.7412 150.754C57.5079 150.595 57.3212 150.404 57.1812 150.18C57.0506 149.956 56.9852 149.681 56.9852 149.354C56.9852 148.953 57.0879 148.598 57.2932 148.29C57.4986 147.973 57.7926 147.725 58.1752 147.548C58.5672 147.371 59.0199 147.282 59.5332 147.282C60.2892 147.282 60.9006 147.464 61.3672 147.828C61.8339 148.192 62.1092 148.719 62.1932 149.41H61.0312C60.9846 149.055 60.8306 148.78 60.5692 148.584C60.3172 148.379 59.9672 148.276 59.5192 148.276C59.0806 148.276 58.7446 148.365 58.5112 148.542C58.2872 148.719 58.1752 148.953 58.1752 149.242C58.1752 149.429 58.2359 149.597 58.3572 149.746C58.4879 149.886 58.6746 150.007 58.9172 150.11C59.1692 150.213 59.4772 150.297 59.8412 150.362C60.3079 150.446 60.7326 150.558 61.1152 150.698C61.4979 150.838 61.8059 151.048 62.0392 151.328C62.2819 151.599 62.4032 151.986 62.4032 152.49C62.4032 152.929 62.2912 153.311 62.0672 153.638C61.8526 153.965 61.5446 154.221 61.1432 154.408C60.7419 154.585 60.2706 154.674 59.7292 154.674ZM67.9273 154.506V147.45H69.1033V154.506H67.9273ZM68.5153 145.952C68.282 145.952 68.086 145.877 67.9273 145.728C67.778 145.569 67.7033 145.373 67.7033 145.14C67.7033 144.907 67.778 144.72 67.9273 144.58C68.086 144.431 68.282 144.356 68.5153 144.356C68.7393 144.356 68.9307 144.431 69.0893 144.58C69.248 144.72 69.3273 144.907 69.3273 145.14C69.3273 145.373 69.248 145.569 69.0893 145.728C68.9307 145.877 68.7393 145.952 68.5153 145.952ZM71.1786 154.506V147.45H72.2426L72.2986 148.682C72.5226 148.243 72.8399 147.903 73.2506 147.66C73.6706 147.408 74.1466 147.282 74.6786 147.282C75.2293 147.282 75.7053 147.394 76.1066 147.618C76.5079 147.833 76.8206 148.164 77.0446 148.612C77.2686 149.051 77.3806 149.611 77.3806 150.292V154.506H76.2046V150.418C76.2046 149.709 76.0459 149.177 75.7286 148.822C75.4206 148.467 74.9819 148.29 74.4126 148.29C74.0206 148.29 73.6706 148.388 73.3626 148.584C73.0546 148.771 72.8073 149.046 72.6206 149.41C72.4433 149.765 72.3546 150.208 72.3546 150.74V154.506H71.1786ZM81.9897 154.506C81.5697 154.506 81.2057 154.441 80.8977 154.31C80.5897 154.179 80.3517 153.96 80.1837 153.652C80.025 153.335 79.9457 152.91 79.9457 152.378V148.444H78.7137V147.45H79.9457L80.0997 145.742H81.1217V147.45H83.1657V148.444H81.1217V152.378C81.1217 152.817 81.2103 153.115 81.3877 153.274C81.565 153.423 81.8777 153.498 82.3257 153.498H83.0817V154.506H81.9897ZM87.6027 154.674C86.94 154.674 86.352 154.52 85.8387 154.212C85.3347 153.904 84.938 153.475 84.6487 152.924C84.3594 152.364 84.2147 151.715 84.2147 150.978C84.2147 150.231 84.3547 149.583 84.6347 149.032C84.924 148.481 85.3254 148.052 85.8387 147.744C86.3614 147.436 86.9587 147.282 87.6307 147.282C88.3214 147.282 88.9047 147.436 89.3807 147.744C89.866 148.052 90.2347 148.458 90.4867 148.962C90.748 149.457 90.8787 150.003 90.8787 150.6C90.8787 150.693 90.8787 150.791 90.8787 150.894C90.8787 150.997 90.874 151.113 90.8647 151.244H85.0967V150.334H89.7307C89.7027 149.69 89.488 149.186 89.0867 148.822C88.6947 148.458 88.2 148.276 87.6027 148.276C87.2014 148.276 86.828 148.369 86.4827 148.556C86.1467 148.733 85.876 148.999 85.6707 149.354C85.4654 149.699 85.3627 150.133 85.3627 150.656V151.048C85.3627 151.627 85.4654 152.112 85.6707 152.504C85.8854 152.896 86.1607 153.19 86.4967 153.386C86.842 153.582 87.2107 153.68 87.6027 153.68C88.0974 153.68 88.5034 153.573 88.8207 153.358C89.1474 153.134 89.3807 152.835 89.5207 152.462H90.6827C90.5707 152.882 90.3747 153.26 90.0947 153.596C89.8147 153.932 89.4647 154.198 89.0447 154.394C88.634 154.581 88.1534 154.674 87.6027 154.674ZM92.4657 154.506V147.45H93.5297L93.6137 148.794C93.7724 148.477 93.9731 148.206 94.2157 147.982C94.4677 147.758 94.7664 147.585 95.1117 147.464C95.4664 147.343 95.8677 147.282 96.3157 147.282V148.514H95.8817C95.5831 148.514 95.2984 148.556 95.0277 148.64C94.7571 148.715 94.5144 148.841 94.2997 149.018C94.0944 149.195 93.9311 149.438 93.8097 149.746C93.6977 150.045 93.6417 150.418 93.6417 150.866V154.506H92.4657ZM100.496 154.674C99.8143 154.674 99.2169 154.515 98.7036 154.198C98.1903 153.871 97.7936 153.428 97.5136 152.868C97.2336 152.308 97.0936 151.673 97.0936 150.964C97.0936 150.255 97.2336 149.625 97.5136 149.074C97.7936 148.514 98.1903 148.075 98.7036 147.758C99.2263 147.441 99.8283 147.282 100.51 147.282C101.088 147.282 101.592 147.399 102.022 147.632C102.46 147.865 102.796 148.192 103.03 148.612V144.426H104.206V154.506H103.142L103.044 153.344C102.894 153.577 102.703 153.797 102.47 154.002C102.236 154.198 101.956 154.361 101.63 154.492C101.303 154.613 100.925 154.674 100.496 154.674ZM100.636 153.652C101.102 153.652 101.513 153.54 101.868 153.316C102.222 153.092 102.498 152.784 102.694 152.392C102.89 151.991 102.988 151.519 102.988 150.978C102.988 150.446 102.89 149.979 102.694 149.578C102.498 149.177 102.222 148.864 101.868 148.64C101.513 148.416 101.102 148.304 100.636 148.304C100.178 148.304 99.7723 148.416 99.4176 148.64C99.0629 148.864 98.7876 149.177 98.5916 149.578C98.3956 149.979 98.2976 150.446 98.2976 150.978C98.2976 151.519 98.3956 151.991 98.5916 152.392C98.7876 152.784 99.0629 153.092 99.4176 153.316C99.7723 153.54 100.178 153.652 100.636 153.652ZM108.727 154.674C108.186 154.674 107.71 154.567 107.299 154.352C106.898 154.137 106.585 153.806 106.361 153.358C106.146 152.91 106.039 152.35 106.039 151.678V147.45H107.215V151.552C107.215 152.252 107.369 152.779 107.677 153.134C107.985 153.489 108.419 153.666 108.979 153.666C109.371 153.666 109.726 153.573 110.043 153.386C110.36 153.19 110.608 152.915 110.785 152.56C110.972 152.196 111.065 151.753 111.065 151.23V147.45H112.241V154.506H111.177L111.107 153.274C110.892 153.713 110.575 154.058 110.155 154.31C109.735 154.553 109.259 154.674 108.727 154.674ZM114.19 154.506V147.45H115.254L115.324 148.458C115.548 148.094 115.847 147.809 116.22 147.604C116.603 147.389 117.018 147.282 117.466 147.282C117.83 147.282 118.157 147.333 118.446 147.436C118.745 147.529 119.006 147.679 119.23 147.884C119.454 148.08 119.636 148.332 119.776 148.64C120.019 148.211 120.35 147.879 120.77 147.646C121.2 147.403 121.657 147.282 122.142 147.282C122.684 147.282 123.155 147.394 123.556 147.618C123.967 147.833 124.28 148.164 124.494 148.612C124.718 149.051 124.83 149.611 124.83 150.292V154.506H123.668V150.418C123.668 149.709 123.524 149.177 123.234 148.822C122.945 148.467 122.539 148.29 122.016 148.29C121.652 148.29 121.326 148.388 121.036 148.584C120.747 148.771 120.518 149.046 120.35 149.41C120.182 149.774 120.098 150.222 120.098 150.754V154.506H118.922V150.418C118.922 149.709 118.778 149.177 118.488 148.822C118.199 148.467 117.788 148.29 117.256 148.29C116.902 148.29 116.58 148.388 116.29 148.584C116.01 148.771 115.786 149.046 115.618 149.41C115.45 149.774 115.366 150.222 115.366 150.754V154.506H114.19ZM133.486 154.674C132.804 154.674 132.207 154.515 131.694 154.198C131.18 153.871 130.784 153.428 130.504 152.868C130.224 152.308 130.084 151.673 130.084 150.964C130.084 150.255 130.224 149.625 130.504 149.074C130.784 148.514 131.18 148.075 131.694 147.758C132.216 147.441 132.818 147.282 133.5 147.282C134.078 147.282 134.582 147.399 135.012 147.632C135.45 147.865 135.786 148.192 136.02 148.612V144.426H137.196V154.506H136.132L136.034 153.344C135.884 153.577 135.693 153.797 135.46 154.002C135.226 154.198 134.946 154.361 134.62 154.492C134.293 154.613 133.915 154.674 133.486 154.674ZM133.626 153.652C134.092 153.652 134.503 153.54 134.858 153.316C135.212 153.092 135.488 152.784 135.684 152.392C135.88 151.991 135.978 151.519 135.978 150.978C135.978 150.446 135.88 149.979 135.684 149.578C135.488 149.177 135.212 148.864 134.858 148.64C134.503 148.416 134.092 148.304 133.626 148.304C133.168 148.304 132.762 148.416 132.408 148.64C132.053 148.864 131.778 149.177 131.582 149.578C131.386 149.979 131.288 150.446 131.288 150.978C131.288 151.519 131.386 151.991 131.582 152.392C131.778 152.784 132.053 153.092 132.408 153.316C132.762 153.54 133.168 153.652 133.626 153.652ZM142.305 154.674C141.652 154.674 141.064 154.525 140.541 154.226C140.019 153.918 139.608 153.489 139.309 152.938C139.011 152.378 138.861 151.729 138.861 150.992C138.861 150.236 139.011 149.583 139.309 149.032C139.617 148.472 140.033 148.043 140.555 147.744C141.087 147.436 141.68 147.282 142.333 147.282C143.005 147.282 143.598 147.436 144.111 147.744C144.634 148.043 145.045 148.472 145.343 149.032C145.651 149.583 145.805 150.231 145.805 150.978C145.805 151.725 145.651 152.378 145.343 152.938C145.035 153.489 144.62 153.918 144.097 154.226C143.575 154.525 142.977 154.674 142.305 154.674ZM142.319 153.666C142.721 153.666 143.094 153.568 143.439 153.372C143.785 153.167 144.065 152.863 144.279 152.462C144.494 152.061 144.601 151.566 144.601 150.978C144.601 150.381 144.494 149.886 144.279 149.494C144.074 149.093 143.799 148.794 143.453 148.598C143.117 148.393 142.744 148.29 142.333 148.29C141.941 148.29 141.568 148.393 141.213 148.598C140.868 148.794 140.588 149.093 140.373 149.494C140.168 149.886 140.065 150.381 140.065 150.978C140.065 151.566 140.168 152.061 140.373 152.462C140.588 152.863 140.863 153.167 141.199 153.372C141.545 153.568 141.918 153.666 142.319 153.666ZM147.454 154.506V144.426H148.63V154.506H147.454ZM153.721 154.674C153.068 154.674 152.48 154.525 151.957 154.226C151.435 153.918 151.024 153.489 150.725 152.938C150.427 152.378 150.277 151.729 150.277 150.992C150.277 150.236 150.427 149.583 150.725 149.032C151.033 148.472 151.449 148.043 151.971 147.744C152.503 147.436 153.096 147.282 153.749 147.282C154.421 147.282 155.014 147.436 155.527 147.744C156.05 148.043 156.461 148.472 156.759 149.032C157.067 149.583 157.221 150.231 157.221 150.978C157.221 151.725 157.067 152.378 156.759 152.938C156.451 153.489 156.036 153.918 155.513 154.226C154.991 154.525 154.393 154.674 153.721 154.674ZM153.735 153.666C154.137 153.666 154.51 153.568 154.855 153.372C155.201 153.167 155.481 152.863 155.695 152.462C155.91 152.061 156.017 151.566 156.017 150.978C156.017 150.381 155.91 149.886 155.695 149.494C155.49 149.093 155.215 148.794 154.869 148.598C154.533 148.393 154.16 148.29 153.749 148.29C153.357 148.29 152.984 148.393 152.629 148.598C152.284 148.794 152.004 149.093 151.789 149.494C151.584 149.886 151.481 150.381 151.481 150.978C151.481 151.566 151.584 152.061 151.789 152.462C152.004 152.863 152.279 153.167 152.615 153.372C152.961 153.568 153.334 153.666 153.735 153.666ZM158.87 154.506V147.45H159.934L160.018 148.794C160.177 148.477 160.377 148.206 160.62 147.982C160.872 147.758 161.171 147.585 161.516 147.464C161.871 147.343 162.272 147.282 162.72 147.282V148.514H162.286C161.987 148.514 161.703 148.556 161.432 148.64C161.161 148.715 160.919 148.841 160.704 149.018C160.499 149.195 160.335 149.438 160.214 149.746C160.102 150.045 160.046 150.418 160.046 150.866V154.506H158.87ZM163.911 154.576C163.678 154.576 163.482 154.501 163.323 154.352C163.174 154.193 163.099 154.002 163.099 153.778C163.099 153.554 163.174 153.367 163.323 153.218C163.482 153.059 163.678 152.98 163.911 152.98C164.144 152.98 164.336 153.059 164.485 153.218C164.634 153.367 164.709 153.554 164.709 153.778C164.709 154.002 164.634 154.193 164.485 154.352C164.336 154.501 164.144 154.576 163.911 154.576Z" fill="#524B6B"/>
<path d="M60.7558 44.0301L64.3398 34.2301H66.4818L70.0518 44.0301H68.0498L65.4038 36.3861L62.7438 44.0301H60.7558ZM62.3378 41.8041L62.8418 40.3341H67.8258L68.3158 41.8041H62.3378ZM75.4695 44.1981C75.1055 44.1981 74.7789 44.1514 74.4895 44.0581C74.2095 43.9648 73.9575 43.8388 73.7335 43.6801C73.5189 43.5121 73.3369 43.3254 73.1875 43.1201L72.9775 44.0301H71.2975V33.9501H73.1875V37.9541C73.4115 37.6274 73.7055 37.3568 74.0695 37.1421C74.4429 36.9181 74.9049 36.8061 75.4555 36.8061C76.1089 36.8061 76.6875 36.9694 77.1915 37.2961C77.7049 37.6134 78.1062 38.0521 78.3955 38.6121C78.6942 39.1628 78.8435 39.7974 78.8435 40.5161C78.8435 41.2161 78.6942 41.8461 78.3955 42.4061C78.1062 42.9661 77.7095 43.4048 77.2055 43.7221C76.7015 44.0394 76.1229 44.1981 75.4695 44.1981ZM75.0215 42.5461C75.3949 42.5461 75.7215 42.4621 76.0015 42.2941C76.2909 42.1168 76.5149 41.8788 76.6735 41.5801C76.8322 41.2721 76.9115 40.9174 76.9115 40.5161C76.9115 40.1148 76.8322 39.7601 76.6735 39.4521C76.5149 39.1348 76.2909 38.8921 76.0015 38.7241C75.7215 38.5468 75.3949 38.4581 75.0215 38.4581C74.6575 38.4581 74.3309 38.5468 74.0415 38.7241C73.7615 38.8921 73.5375 39.1301 73.3695 39.4381C73.2109 39.7461 73.1315 40.1008 73.1315 40.5021C73.1315 40.9034 73.2109 41.2628 73.3695 41.5801C73.5375 41.8881 73.7615 42.1261 74.0415 42.2941C74.3309 42.4621 74.6575 42.5461 75.0215 42.5461ZM83.8034 44.1981C83.1314 44.1981 82.5247 44.0441 81.9834 43.7361C81.4514 43.4188 81.0267 42.9848 80.7094 42.4341C80.4014 41.8741 80.2474 41.2348 80.2474 40.5161C80.2474 39.7788 80.4014 39.1348 80.7094 38.5841C81.0267 38.0241 81.456 37.5901 81.9974 37.2821C82.5387 36.9648 83.1454 36.8061 83.8174 36.8061C84.4987 36.8061 85.1054 36.9648 85.6374 37.2821C86.1787 37.5901 86.6034 38.0241 86.9114 38.5841C87.2287 39.1348 87.3874 39.7741 87.3874 40.5021C87.3874 41.2301 87.2287 41.8741 86.9114 42.4341C86.6034 42.9848 86.1787 43.4188 85.6374 43.7361C85.096 44.0441 84.4847 44.1981 83.8034 44.1981ZM83.8034 42.5601C84.1207 42.5601 84.4007 42.4854 84.6434 42.3361C84.8954 42.1868 85.0914 41.9581 85.2314 41.6501C85.3807 41.3421 85.4554 40.9594 85.4554 40.5021C85.4554 40.0448 85.3807 39.6668 85.2314 39.3681C85.0914 39.0601 84.8954 38.8314 84.6434 38.6821C84.4007 38.5234 84.1254 38.4441 83.8174 38.4441C83.5187 38.4441 83.2434 38.5234 82.9914 38.6821C82.7394 38.8314 82.5387 39.0601 82.3894 39.3681C82.2494 39.6668 82.1794 40.0448 82.1794 40.5021C82.1794 40.9594 82.2494 41.3421 82.3894 41.6501C82.5387 41.9581 82.7347 42.1868 82.9774 42.3361C83.2294 42.4854 83.5047 42.5601 83.8034 42.5601ZM91.6483 44.1981C91.079 44.1981 90.589 44.0814 90.1783 43.8481C89.777 43.6054 89.469 43.2554 89.2543 42.7981C89.0396 42.3314 88.9323 41.7574 88.9323 41.0761V36.9741H90.8223V40.8801C90.8223 41.4494 90.939 41.8788 91.1723 42.1681C91.415 42.4574 91.7836 42.6021 92.2783 42.6021C92.5956 42.6021 92.8756 42.5321 93.1183 42.3921C93.361 42.2428 93.5523 42.0328 93.6923 41.7621C93.8416 41.4821 93.9163 41.1414 93.9163 40.7401V36.9741H95.7923V44.0301H94.1403L93.9863 42.8821C93.781 43.2834 93.4776 43.6054 93.0763 43.8481C92.675 44.0814 92.199 44.1981 91.6483 44.1981ZM100.821 44.0301C100.327 44.0301 99.8926 43.9554 99.5192 43.8061C99.1552 43.6474 98.8706 43.3908 98.6652 43.0361C98.4599 42.6721 98.3572 42.1774 98.3572 41.5521V38.5561H97.1532V36.9741H98.3572L98.5672 35.0561H100.247V36.9741H102.109V38.5561H100.247V41.5801C100.247 41.8974 100.317 42.1168 100.457 42.2381C100.597 42.3594 100.835 42.4201 101.171 42.4201H102.095V44.0301H100.821ZM106.995 44.0301V36.9741H108.661L108.815 37.9121C109.039 37.5761 109.333 37.3101 109.697 37.1141C110.07 36.9088 110.495 36.8061 110.971 36.8061C111.325 36.8061 111.643 36.8528 111.923 36.9461C112.203 37.0394 112.45 37.1748 112.665 37.3521C112.889 37.5294 113.071 37.7534 113.211 38.0241C113.472 37.6414 113.813 37.3428 114.233 37.1281C114.653 36.9134 115.11 36.8061 115.605 36.8061C116.221 36.8061 116.734 36.9321 117.145 37.1841C117.555 37.4268 117.863 37.7814 118.069 38.2481C118.283 38.7148 118.391 39.2888 118.391 39.9701V44.0301H116.515V40.1381C116.515 39.5781 116.403 39.1488 116.179 38.8501C115.964 38.5514 115.628 38.4021 115.171 38.4021C114.872 38.4021 114.606 38.4768 114.373 38.6261C114.139 38.7754 113.957 38.9901 113.827 39.2701C113.705 39.5501 113.645 39.8861 113.645 40.2781V44.0301H111.755V40.1381C111.755 39.5781 111.643 39.1488 111.419 38.8501C111.195 38.5514 110.849 38.4021 110.383 38.4021C110.093 38.4021 109.832 38.4768 109.599 38.6261C109.375 38.7754 109.197 38.9901 109.067 39.2701C108.945 39.5501 108.885 39.8861 108.885 40.2781V44.0301H106.995ZM123.562 44.1981C122.853 44.1981 122.223 44.0488 121.672 43.7501C121.131 43.4421 120.706 43.0174 120.398 42.4761C120.1 41.9254 119.95 41.2908 119.95 40.5721C119.95 39.8348 120.1 39.1861 120.398 38.6261C120.706 38.0568 121.131 37.6134 121.672 37.2961C122.214 36.9694 122.844 36.8061 123.562 36.8061C124.262 36.8061 124.874 36.9601 125.396 37.2681C125.919 37.5761 126.325 37.9914 126.614 38.5141C126.904 39.0368 127.048 39.6294 127.048 40.2921C127.048 40.3854 127.048 40.4928 127.048 40.6141C127.048 40.7261 127.039 40.8428 127.02 40.9641H121.294V39.8161H125.144C125.116 39.3588 124.953 38.9994 124.654 38.7381C124.365 38.4768 124.001 38.3461 123.562 38.3461C123.245 38.3461 122.951 38.4208 122.68 38.5701C122.41 38.7101 122.195 38.9294 122.036 39.2281C121.887 39.5268 121.812 39.9048 121.812 40.3621V40.7681C121.812 41.1508 121.882 41.4868 122.022 41.7761C122.172 42.0561 122.377 42.2754 122.638 42.4341C122.9 42.5834 123.203 42.6581 123.548 42.6581C123.894 42.6581 124.178 42.5834 124.402 42.4341C124.636 42.2848 124.808 42.0934 124.92 41.8601H126.852C126.722 42.2988 126.502 42.6954 126.194 43.0501C125.886 43.4048 125.508 43.6848 125.06 43.8901C124.612 44.0954 124.113 44.1981 123.562 44.1981Z" fill="#150B3D"/>
</svg>
