<svg width="375" height="418" viewBox="0 0 375 418" fill="none" xmlns="http://www.w3.org/2000/svg">
<g clip-path="url(#clip0_225_184)">
<rect width="375" height="418" rx="30" fill="#F9F9F9"/>
<g filter="url(#filter0_d_225_184)">
<path d="M22 100C22 88.9543 30.9543 80 42 80H337C348.046 80 357 88.9543 357 100V292C357 303.046 348.046 312 337 312H42C30.9543 312 22 303.046 22 292V100Z" fill="white"/>
</g>
<path d="M45.8027 110H44.8008V102.312H42.1055V101.434H48.4863V102.312H45.8027V110ZM52.1074 103.461C52.6543 103.461 53.123 103.582 53.5137 103.824C53.9043 104.066 54.2031 104.406 54.4102 104.844C54.6172 105.277 54.7207 105.785 54.7207 106.367V106.971H50.2852C50.2969 107.725 50.4844 108.299 50.8477 108.693C51.2109 109.088 51.7227 109.285 52.3828 109.285C52.7891 109.285 53.1484 109.248 53.4609 109.174C53.7734 109.1 54.0977 108.99 54.4336 108.846V109.701C54.1094 109.846 53.7871 109.951 53.4668 110.018C53.1504 110.084 52.7754 110.117 52.3418 110.117C51.7246 110.117 51.1855 109.992 50.7246 109.742C50.2676 109.488 49.9121 109.117 49.6582 108.629C49.4043 108.141 49.2773 107.543 49.2773 106.836C49.2773 106.145 49.3926 105.547 49.623 105.043C49.8574 104.535 50.1855 104.145 50.6074 103.871C51.0332 103.598 51.5332 103.461 52.1074 103.461ZM52.0957 104.258C51.5762 104.258 51.1621 104.428 50.8535 104.768C50.5449 105.107 50.3613 105.582 50.3027 106.191H53.7012C53.6973 105.809 53.6367 105.473 53.5195 105.184C53.4062 104.891 53.2324 104.664 52.998 104.504C52.7637 104.34 52.4629 104.258 52.0957 104.258ZM57.3516 110H56.373V100.883H57.3516V110ZM60.3867 110H59.4082V100.883H60.3867V110ZM72.5332 103.461C73.2402 103.461 73.7734 103.646 74.1328 104.018C74.4922 104.385 74.6719 104.977 74.6719 105.793V110H73.7109V105.84C73.7109 105.32 73.5977 104.932 73.3711 104.674C73.1484 104.412 72.8164 104.281 72.375 104.281C71.7539 104.281 71.3027 104.461 71.0215 104.82C70.7402 105.18 70.5996 105.709 70.5996 106.408V110H69.6328V105.84C69.6328 105.492 69.582 105.203 69.4805 104.973C69.3828 104.742 69.2344 104.57 69.0352 104.457C68.8398 104.34 68.5918 104.281 68.291 104.281C67.8652 104.281 67.5234 104.369 67.2656 104.545C67.0078 104.721 66.8203 104.982 66.7031 105.33C66.5898 105.674 66.5332 106.098 66.5332 106.602V110H65.5605V103.578H66.3457L66.4922 104.486H66.5449C66.6738 104.264 66.8359 104.076 67.0312 103.924C67.2266 103.771 67.4453 103.656 67.6875 103.578C67.9297 103.5 68.1875 103.461 68.4609 103.461C68.9492 103.461 69.3574 103.553 69.6855 103.736C70.0176 103.916 70.2578 104.191 70.4062 104.562H70.459C70.6699 104.191 70.959 103.916 71.3262 103.736C71.6934 103.553 72.0957 103.461 72.5332 103.461ZM79.1426 103.461C79.6895 103.461 80.1582 103.582 80.5488 103.824C80.9395 104.066 81.2383 104.406 81.4453 104.844C81.6523 105.277 81.7559 105.785 81.7559 106.367V106.971H77.3203C77.332 107.725 77.5195 108.299 77.8828 108.693C78.2461 109.088 78.7578 109.285 79.418 109.285C79.8242 109.285 80.1836 109.248 80.4961 109.174C80.8086 109.1 81.1328 108.99 81.4688 108.846V109.701C81.1445 109.846 80.8223 109.951 80.502 110.018C80.1855 110.084 79.8105 110.117 79.377 110.117C78.7598 110.117 78.2207 109.992 77.7598 109.742C77.3027 109.488 76.9473 109.117 76.6934 108.629C76.4395 108.141 76.3125 107.543 76.3125 106.836C76.3125 106.145 76.4277 105.547 76.6582 105.043C76.8926 104.535 77.2207 104.145 77.6426 103.871C78.0684 103.598 78.5684 103.461 79.1426 103.461ZM79.1309 104.258C78.6113 104.258 78.1973 104.428 77.8887 104.768C77.5801 105.107 77.3965 105.582 77.3379 106.191H80.7363C80.7324 105.809 80.6719 105.473 80.5547 105.184C80.4414 104.891 80.2676 104.664 80.0332 104.504C79.7988 104.34 79.498 104.258 79.1309 104.258ZM88.9277 103.473C89.6934 103.473 90.2617 103.645 90.6328 103.988C91.0039 104.332 91.1895 104.881 91.1895 105.635V110H90.4805L90.293 109.051H90.2461C90.0664 109.285 89.8789 109.482 89.6836 109.643C89.4883 109.799 89.2617 109.918 89.0039 110C88.75 110.078 88.4375 110.117 88.0664 110.117C87.6758 110.117 87.3281 110.049 87.0234 109.912C86.7227 109.775 86.4844 109.568 86.3086 109.291C86.1367 109.014 86.0508 108.662 86.0508 108.236C86.0508 107.596 86.3047 107.104 86.8125 106.76C87.3203 106.416 88.0938 106.229 89.1328 106.197L90.2402 106.15V105.758C90.2402 105.203 90.1211 104.814 89.8828 104.592C89.6445 104.369 89.3086 104.258 88.875 104.258C88.5391 104.258 88.2188 104.307 87.9141 104.404C87.6094 104.502 87.3203 104.617 87.0469 104.75L86.748 104.012C87.0371 103.863 87.3691 103.736 87.7441 103.631C88.1191 103.525 88.5137 103.473 88.9277 103.473ZM90.2285 106.836L89.25 106.877C88.4492 106.908 87.8848 107.039 87.5566 107.27C87.2285 107.5 87.0645 107.826 87.0645 108.248C87.0645 108.615 87.1758 108.887 87.3984 109.062C87.6211 109.238 87.916 109.326 88.2832 109.326C88.8535 109.326 89.3203 109.168 89.6836 108.852C90.0469 108.535 90.2285 108.061 90.2285 107.428V106.836ZM94.166 100.883V103.162C94.166 103.424 94.1582 103.678 94.1426 103.924C94.1309 104.17 94.1211 104.361 94.1133 104.498H94.166C94.3418 104.209 94.5957 103.965 94.9277 103.766C95.2598 103.566 95.6836 103.467 96.1992 103.467C97.0039 103.467 97.6445 103.746 98.1211 104.305C98.6016 104.859 98.8418 105.686 98.8418 106.783C98.8418 107.506 98.7324 108.115 98.5137 108.611C98.2949 109.107 97.9863 109.482 97.5879 109.736C97.1895 109.99 96.7188 110.117 96.1758 110.117C95.668 110.117 95.25 110.023 94.9219 109.836C94.5977 109.645 94.3477 109.412 94.1719 109.139H94.0957L93.8965 110H93.1934V100.883H94.166ZM96.041 104.281C95.5762 104.281 95.207 104.373 94.9336 104.557C94.6602 104.736 94.4629 105.01 94.3418 105.377C94.2246 105.74 94.166 106.201 94.166 106.76V106.812C94.166 107.621 94.3008 108.24 94.5703 108.67C94.8398 109.096 95.3301 109.309 96.041 109.309C96.6387 109.309 97.0859 109.09 97.3828 108.652C97.6836 108.215 97.834 107.59 97.834 106.777C97.834 105.949 97.6855 105.326 97.3887 104.908C97.0957 104.49 96.6465 104.281 96.041 104.281ZM106.078 106.777C106.078 107.305 106.01 107.775 105.873 108.189C105.736 108.604 105.539 108.953 105.281 109.238C105.023 109.523 104.711 109.742 104.344 109.895C103.98 110.043 103.568 110.117 103.107 110.117C102.678 110.117 102.283 110.043 101.924 109.895C101.568 109.742 101.26 109.523 100.998 109.238C100.74 108.953 100.539 108.604 100.395 108.189C100.254 107.775 100.184 107.305 100.184 106.777C100.184 106.074 100.303 105.477 100.541 104.984C100.779 104.488 101.119 104.111 101.561 103.854C102.006 103.592 102.535 103.461 103.148 103.461C103.734 103.461 104.246 103.592 104.684 103.854C105.125 104.115 105.467 104.494 105.709 104.99C105.955 105.482 106.078 106.078 106.078 106.777ZM101.191 106.777C101.191 107.293 101.26 107.74 101.396 108.119C101.533 108.498 101.744 108.791 102.029 108.998C102.314 109.205 102.682 109.309 103.131 109.309C103.576 109.309 103.941 109.205 104.227 108.998C104.516 108.791 104.729 108.498 104.865 108.119C105.002 107.74 105.07 107.293 105.07 106.777C105.07 106.266 105.002 105.824 104.865 105.453C104.729 105.078 104.518 104.789 104.232 104.586C103.947 104.383 103.578 104.281 103.125 104.281C102.457 104.281 101.967 104.502 101.654 104.943C101.346 105.385 101.191 105.996 101.191 106.777ZM113.062 103.578V110H112.266L112.125 109.098H112.072C111.939 109.32 111.768 109.508 111.557 109.66C111.346 109.812 111.107 109.926 110.842 110C110.58 110.078 110.301 110.117 110.004 110.117C109.496 110.117 109.07 110.035 108.727 109.871C108.383 109.707 108.123 109.453 107.947 109.109C107.775 108.766 107.689 108.324 107.689 107.785V103.578H108.674V107.715C108.674 108.25 108.795 108.65 109.037 108.916C109.279 109.178 109.648 109.309 110.145 109.309C110.621 109.309 111 109.219 111.281 109.039C111.566 108.859 111.771 108.596 111.896 108.248C112.021 107.896 112.084 107.467 112.084 106.959V103.578H113.062ZM117.193 109.32C117.354 109.32 117.518 109.307 117.686 109.279C117.854 109.252 117.99 109.219 118.096 109.18V109.936C117.982 109.986 117.824 110.029 117.621 110.064C117.422 110.1 117.227 110.117 117.035 110.117C116.695 110.117 116.387 110.059 116.109 109.941C115.832 109.82 115.609 109.617 115.441 109.332C115.277 109.047 115.195 108.652 115.195 108.148V104.34H114.281V103.865L115.201 103.484L115.588 102.09H116.174V103.578H118.055V104.34H116.174V108.119C116.174 108.521 116.266 108.822 116.449 109.021C116.637 109.221 116.885 109.32 117.193 109.32ZM121.5 103.578H122.543L123.961 107.305C124.043 107.523 124.119 107.734 124.189 107.938C124.26 108.137 124.322 108.328 124.377 108.512C124.432 108.695 124.475 108.873 124.506 109.045H124.547C124.602 108.85 124.68 108.594 124.781 108.277C124.883 107.957 124.992 107.631 125.109 107.299L126.451 103.578H127.5L124.705 110.943C124.557 111.338 124.383 111.682 124.184 111.975C123.988 112.268 123.75 112.492 123.469 112.648C123.188 112.809 122.848 112.889 122.449 112.889C122.266 112.889 122.104 112.877 121.963 112.854C121.822 112.834 121.701 112.811 121.6 112.783V112.004C121.686 112.023 121.789 112.041 121.91 112.057C122.035 112.072 122.164 112.08 122.297 112.08C122.539 112.08 122.748 112.033 122.924 111.939C123.104 111.85 123.258 111.717 123.387 111.541C123.516 111.365 123.627 111.156 123.721 110.914L124.072 110.012L121.5 103.578ZM134.062 106.777C134.062 107.305 133.994 107.775 133.857 108.189C133.721 108.604 133.523 108.953 133.266 109.238C133.008 109.523 132.695 109.742 132.328 109.895C131.965 110.043 131.553 110.117 131.092 110.117C130.662 110.117 130.268 110.043 129.908 109.895C129.553 109.742 129.244 109.523 128.982 109.238C128.725 108.953 128.523 108.604 128.379 108.189C128.238 107.775 128.168 107.305 128.168 106.777C128.168 106.074 128.287 105.477 128.525 104.984C128.764 104.488 129.104 104.111 129.545 103.854C129.99 103.592 130.52 103.461 131.133 103.461C131.719 103.461 132.23 103.592 132.668 103.854C133.109 104.115 133.451 104.494 133.693 104.99C133.939 105.482 134.062 106.078 134.062 106.777ZM129.176 106.777C129.176 107.293 129.244 107.74 129.381 108.119C129.518 108.498 129.729 108.791 130.014 108.998C130.299 109.205 130.666 109.309 131.115 109.309C131.561 109.309 131.926 109.205 132.211 108.998C132.5 108.791 132.713 108.498 132.85 108.119C132.986 107.74 133.055 107.293 133.055 106.777C133.055 106.266 132.986 105.824 132.85 105.453C132.713 105.078 132.502 104.789 132.217 104.586C131.932 104.383 131.562 104.281 131.109 104.281C130.441 104.281 129.951 104.502 129.639 104.943C129.33 105.385 129.176 105.996 129.176 106.777ZM141.047 103.578V110H140.25L140.109 109.098H140.057C139.924 109.32 139.752 109.508 139.541 109.66C139.33 109.812 139.092 109.926 138.826 110C138.564 110.078 138.285 110.117 137.988 110.117C137.48 110.117 137.055 110.035 136.711 109.871C136.367 109.707 136.107 109.453 135.932 109.109C135.76 108.766 135.674 108.324 135.674 107.785V103.578H136.658V107.715C136.658 108.25 136.779 108.65 137.021 108.916C137.264 109.178 137.633 109.309 138.129 109.309C138.605 109.309 138.984 109.219 139.266 109.039C139.551 108.859 139.756 108.596 139.881 108.248C140.006 107.896 140.068 107.467 140.068 106.959V103.578H141.047ZM142.957 109.391C142.957 109.117 143.023 108.924 143.156 108.811C143.289 108.693 143.451 108.635 143.643 108.635C143.842 108.635 144.01 108.693 144.146 108.811C144.283 108.924 144.352 109.117 144.352 109.391C144.352 109.66 144.283 109.857 144.146 109.982C144.01 110.104 143.842 110.164 143.643 110.164C143.451 110.164 143.289 110.104 143.156 109.982C143.023 109.857 142.957 109.66 142.957 109.391Z" fill="#AAA6B9"/>
<path d="M30.5781 45L29.4609 41.8281H25.0938L23.9766 45H22L26.25 33.5312H28.3281L32.5703 45H30.5781ZM28.9766 40.2188L27.8906 37.0938C27.849 36.9583 27.7891 36.7682 27.7109 36.5234C27.6328 36.2734 27.5547 36.0208 27.4766 35.7656C27.3984 35.5052 27.3333 35.2865 27.2812 35.1094C27.2292 35.3229 27.1641 35.5625 27.0859 35.8281C27.013 36.0885 26.9401 36.3333 26.8672 36.5625C26.7995 36.7917 26.7474 36.9688 26.7109 37.0938L25.6172 40.2188H28.9766ZM35.7266 32.8438V35.7734C35.7266 36.112 35.7161 36.4453 35.6953 36.7734C35.6797 37.0964 35.6641 37.349 35.6484 37.5312H35.7266C35.9609 37.1562 36.2865 36.8411 36.7031 36.5859C37.125 36.3255 37.6641 36.1953 38.3203 36.1953C39.3464 36.1953 40.1719 36.5729 40.7969 37.3281C41.4219 38.0781 41.7344 39.1901 41.7344 40.6641C41.7344 41.6432 41.5911 42.4661 41.3047 43.1328C41.0182 43.7995 40.6146 44.3047 40.0938 44.6484C39.5781 44.987 38.9714 45.1562 38.2734 45.1562C37.6172 45.1562 37.0859 45.0365 36.6797 44.7969C36.2786 44.5521 35.9635 44.2682 35.7344 43.9453H35.6016L35.2656 45H33.8906V32.8438H35.7266ZM37.8359 37.6875C37.3151 37.6875 36.901 37.7917 36.5938 38C36.2917 38.2083 36.0729 38.5208 35.9375 38.9375C35.8021 39.349 35.7318 39.8724 35.7266 40.5078V40.6719C35.7266 41.6354 35.8776 42.3724 36.1797 42.8828C36.487 43.3932 37.0443 43.6484 37.8516 43.6484C38.4922 43.6484 38.9844 43.3906 39.3281 42.875C39.6719 42.3542 39.8438 41.6094 39.8438 40.6406C39.8438 39.6615 39.6719 38.9245 39.3281 38.4297C38.9896 37.9349 38.4922 37.6875 37.8359 37.6875ZM51.5156 40.6562C51.5156 41.375 51.4219 42.013 51.2344 42.5703C51.0469 43.1276 50.7734 43.599 50.4141 43.9844C50.0547 44.3646 49.6224 44.6562 49.1172 44.8594C48.612 45.0573 48.0417 45.1562 47.4062 45.1562C46.8125 45.1562 46.2682 45.0573 45.7734 44.8594C45.2786 44.6562 44.849 44.3646 44.4844 43.9844C44.125 43.599 43.8464 43.1276 43.6484 42.5703C43.4505 42.013 43.3516 41.375 43.3516 40.6562C43.3516 39.7031 43.5156 38.8958 43.8438 38.2344C44.1771 37.5677 44.651 37.0599 45.2656 36.7109C45.8802 36.362 46.612 36.1875 47.4609 36.1875C48.2578 36.1875 48.9609 36.362 49.5703 36.7109C50.1797 37.0599 50.6562 37.5677 51 38.2344C51.3438 38.901 51.5156 39.7083 51.5156 40.6562ZM45.2422 40.6562C45.2422 41.2865 45.3177 41.8255 45.4688 42.2734C45.625 42.7214 45.8646 43.0651 46.1875 43.3047C46.5104 43.5391 46.9271 43.6562 47.4375 43.6562C47.9479 43.6562 48.3646 43.5391 48.6875 43.3047C49.0104 43.0651 49.2474 42.7214 49.3984 42.2734C49.5495 41.8255 49.625 41.2865 49.625 40.6562C49.625 40.026 49.5495 39.4922 49.3984 39.0547C49.2474 38.612 49.0104 38.276 48.6875 38.0469C48.3646 37.8125 47.9453 37.6953 47.4297 37.6953C46.6693 37.6953 46.1146 37.9505 45.7656 38.4609C45.4167 38.9714 45.2422 39.7031 45.2422 40.6562ZM61.1641 36.3516V45H59.7188L59.4688 43.8359H59.3672C59.1849 44.1328 58.9531 44.3802 58.6719 44.5781C58.3906 44.7708 58.0781 44.9141 57.7344 45.0078C57.3906 45.1068 57.0286 45.1562 56.6484 45.1562C55.9974 45.1562 55.4401 45.0469 54.9766 44.8281C54.5182 44.6042 54.1667 44.2604 53.9219 43.7969C53.6771 43.3333 53.5547 42.7344 53.5547 42V36.3516H55.3984V41.6562C55.3984 42.3281 55.5339 42.8307 55.8047 43.1641C56.0807 43.4974 56.5078 43.6641 57.0859 43.6641C57.6432 43.6641 58.0859 43.5495 58.4141 43.3203C58.7422 43.0911 58.974 42.7526 59.1094 42.3047C59.25 41.8568 59.3203 41.3073 59.3203 40.6562V36.3516H61.1641ZM67.0156 43.6719C67.2552 43.6719 67.4922 43.651 67.7266 43.6094C67.9609 43.5625 68.1745 43.5078 68.3672 43.4453V44.8359C68.1641 44.9245 67.901 45 67.5781 45.0625C67.2552 45.125 66.9193 45.1562 66.5703 45.1562C66.0807 45.1562 65.6406 45.0755 65.25 44.9141C64.8594 44.7474 64.5495 44.4635 64.3203 44.0625C64.0911 43.6615 63.9766 43.1068 63.9766 42.3984V37.75H62.7969V36.9297L64.0625 36.2812L64.6641 34.4297H65.8203V36.3516H68.2969V37.75H65.8203V42.375C65.8203 42.8125 65.9297 43.138 66.1484 43.3516C66.3672 43.5651 66.6562 43.6719 67.0156 43.6719ZM84.0547 36.1875C85.0234 36.1875 85.7526 36.4375 86.2422 36.9375C86.737 37.4375 86.9844 38.2396 86.9844 39.3438V45H85.1484V39.6719C85.1484 39.0156 85.0208 38.5208 84.7656 38.1875C84.5104 37.8542 84.1224 37.6875 83.6016 37.6875C82.8724 37.6875 82.3464 37.9219 82.0234 38.3906C81.7057 38.8542 81.5469 39.5286 81.5469 40.4141V45H79.7109V39.6719C79.7109 39.2344 79.6536 38.8698 79.5391 38.5781C79.4297 38.2812 79.2604 38.0599 79.0312 37.9141C78.8021 37.763 78.513 37.6875 78.1641 37.6875C77.6589 37.6875 77.2552 37.8021 76.9531 38.0312C76.6562 38.2604 76.4427 38.599 76.3125 39.0469C76.1823 39.4896 76.1172 40.0339 76.1172 40.6797V45H74.2812V36.3516H75.7109L75.9688 37.5156H76.0703C76.2474 37.2135 76.4661 36.9661 76.7266 36.7734C76.9922 36.5755 77.2865 36.4297 77.6094 36.3359C77.9323 36.237 78.2682 36.1875 78.6172 36.1875C79.263 36.1875 79.8073 36.3021 80.25 36.5312C80.6927 36.7552 81.0234 37.099 81.2422 37.5625H81.3828C81.6536 37.0938 82.0312 36.7474 82.5156 36.5234C83 36.2995 83.513 36.1875 84.0547 36.1875ZM92.9922 36.1875C93.763 36.1875 94.4245 36.3464 94.9766 36.6641C95.5286 36.9818 95.9531 37.4323 96.25 38.0156C96.5469 38.599 96.6953 39.2969 96.6953 40.1094V41.0938H90.9219C90.9427 41.9323 91.1667 42.5781 91.5938 43.0312C92.026 43.4844 92.6302 43.7109 93.4062 43.7109C93.9583 43.7109 94.4531 43.6589 94.8906 43.5547C95.3333 43.4453 95.7891 43.2865 96.2578 43.0781V44.5703C95.8255 44.7734 95.3854 44.9219 94.9375 45.0156C94.4896 45.1094 93.9531 45.1562 93.3281 45.1562C92.4792 45.1562 91.7318 44.9922 91.0859 44.6641C90.4453 44.3307 89.9427 43.8359 89.5781 43.1797C89.2188 42.5234 89.0391 41.7083 89.0391 40.7344C89.0391 39.7656 89.2031 38.9427 89.5312 38.2656C89.8594 37.5885 90.3203 37.0729 90.9141 36.7188C91.5078 36.3646 92.2005 36.1875 92.9922 36.1875ZM92.9922 37.5703C92.4141 37.5703 91.9453 37.7578 91.5859 38.1328C91.2318 38.5078 91.0234 39.0573 90.9609 39.7812H94.8984C94.8932 39.349 94.8203 38.9661 94.6797 38.6328C94.5443 38.2995 94.3359 38.0391 94.0547 37.8516C93.7786 37.6641 93.4245 37.5703 92.9922 37.5703Z" fill="#150B3D"/>
<g filter="url(#filter1_d_225_184)">
<rect x="25" y="341" width="158" height="50" rx="6" fill="#130160"/>
</g>
<path d="M89.4774 371.168C88.7681 371.168 88.1334 371.047 87.5734 370.804C87.0228 370.561 86.5841 370.207 86.2574 369.74C85.9401 369.273 85.7768 368.709 85.7674 368.046H87.7694C87.7788 368.335 87.8534 368.597 87.9934 368.83C88.1334 369.063 88.3248 369.25 88.5674 369.39C88.8194 369.521 89.1181 369.586 89.4634 369.586C89.7621 369.586 90.0188 369.539 90.2334 369.446C90.4574 369.343 90.6301 369.203 90.7514 369.026C90.8728 368.849 90.9334 368.639 90.9334 368.396C90.9334 368.116 90.8634 367.883 90.7234 367.696C90.5928 367.509 90.4061 367.351 90.1634 367.22C89.9301 367.089 89.6548 366.973 89.3374 366.87C89.0294 366.758 88.7028 366.641 88.3574 366.52C87.5828 366.268 86.9901 365.932 86.5794 365.512C86.1781 365.092 85.9774 364.537 85.9774 363.846C85.9774 363.258 86.1174 362.754 86.3974 362.334C86.6868 361.914 87.0834 361.592 87.5874 361.368C88.0914 361.144 88.6654 361.032 89.3094 361.032C89.9721 361.032 90.5508 361.149 91.0454 361.382C91.5494 361.606 91.9461 361.933 92.2354 362.362C92.5341 362.791 92.6881 363.295 92.6974 363.874H90.6814C90.6721 363.659 90.6068 363.459 90.4854 363.272C90.3734 363.076 90.2148 362.922 90.0094 362.81C89.8041 362.689 89.5614 362.628 89.2814 362.628C89.0388 362.619 88.8148 362.656 88.6094 362.74C88.4134 362.824 88.2548 362.95 88.1334 363.118C88.0214 363.277 87.9654 363.477 87.9654 363.72C87.9654 363.953 88.0214 364.149 88.1334 364.308C88.2548 364.467 88.4181 364.607 88.6234 364.728C88.8288 364.84 89.0714 364.947 89.3514 365.05C89.6314 365.143 89.9348 365.241 90.2614 365.344C90.7468 365.512 91.1948 365.713 91.6054 365.946C92.0161 366.17 92.3428 366.464 92.5854 366.828C92.8281 367.192 92.9494 367.673 92.9494 368.27C92.9494 368.783 92.8141 369.259 92.5434 369.698C92.2728 370.137 91.8808 370.491 91.3674 370.762C90.8634 371.033 90.2334 371.168 89.4774 371.168ZM94.7347 371L98.3187 361.2H100.461L104.031 371H102.029L99.3827 363.356L96.7227 371H94.7347ZM96.3167 368.774L96.8207 367.304H101.805L102.295 368.774H96.3167ZM107.756 371L104.186 361.2H106.202L108.918 369.068L111.648 361.2H113.65L110.08 371H107.756ZM115.666 371V361.2H122.106V362.726H117.556V365.288H121.686V366.758H117.556V369.474H122.106V371H115.666Z" fill="white"/>
<g filter="url(#filter2_d_225_184)">
<rect x="193.5" y="341.5" width="163" height="49" rx="5.5" stroke="#130160" shape-rendering="crispEdges"/>
</g>
<path d="M256.253 371.168C255.273 371.168 254.429 370.958 253.719 370.538C253.019 370.109 252.478 369.516 252.095 368.76C251.722 367.995 251.535 367.113 251.535 366.114C251.535 365.115 251.722 364.233 252.095 363.468C252.478 362.703 253.019 362.105 253.719 361.676C254.429 361.247 255.273 361.032 256.253 361.032C257.439 361.032 258.409 361.326 259.165 361.914C259.921 362.502 260.393 363.333 260.579 364.406H258.521C258.4 363.883 258.143 363.477 257.751 363.188C257.369 362.889 256.865 362.74 256.239 362.74C255.661 362.74 255.161 362.88 254.741 363.16C254.331 363.431 254.013 363.818 253.789 364.322C253.565 364.817 253.453 365.414 253.453 366.114C253.453 366.805 253.565 367.402 253.789 367.906C254.013 368.41 254.331 368.797 254.741 369.068C255.161 369.339 255.661 369.474 256.239 369.474C256.865 369.474 257.369 369.339 257.751 369.068C258.134 368.788 258.386 368.401 258.507 367.906H260.579C260.393 368.923 259.921 369.721 259.165 370.3C258.409 370.879 257.439 371.168 256.253 371.168ZM263.033 371V361.2H264.923V369.53H269.221V371H263.033ZM275.327 371.168C274.375 371.168 273.535 370.953 272.807 370.524C272.079 370.095 271.51 369.502 271.099 368.746C270.688 367.981 270.483 367.099 270.483 366.1C270.483 365.101 270.688 364.224 271.099 363.468C271.51 362.703 272.079 362.105 272.807 361.676C273.535 361.247 274.375 361.032 275.327 361.032C276.288 361.032 277.133 361.247 277.861 361.676C278.589 362.105 279.154 362.703 279.555 363.468C279.966 364.224 280.171 365.101 280.171 366.1C280.171 367.099 279.966 367.981 279.555 368.746C279.154 369.502 278.589 370.095 277.861 370.524C277.133 370.953 276.288 371.168 275.327 371.168ZM275.327 369.474C275.924 369.474 276.438 369.339 276.867 369.068C277.306 368.788 277.646 368.396 277.889 367.892C278.132 367.388 278.253 366.791 278.253 366.1C278.253 365.4 278.132 364.803 277.889 364.308C277.646 363.804 277.306 363.417 276.867 363.146C276.438 362.875 275.924 362.74 275.327 362.74C274.739 362.74 274.226 362.875 273.787 363.146C273.348 363.417 273.008 363.804 272.765 364.308C272.522 364.803 272.401 365.4 272.401 366.1C272.401 366.791 272.522 367.388 272.765 367.892C273.008 368.396 273.348 368.788 273.787 369.068C274.226 369.339 274.739 369.474 275.327 369.474ZM285.997 371.168C285.288 371.168 284.653 371.047 284.093 370.804C283.543 370.561 283.104 370.207 282.777 369.74C282.46 369.273 282.297 368.709 282.287 368.046H284.289C284.299 368.335 284.373 368.597 284.513 368.83C284.653 369.063 284.845 369.25 285.087 369.39C285.339 369.521 285.638 369.586 285.983 369.586C286.282 369.586 286.539 369.539 286.753 369.446C286.977 369.343 287.15 369.203 287.271 369.026C287.393 368.849 287.453 368.639 287.453 368.396C287.453 368.116 287.383 367.883 287.243 367.696C287.113 367.509 286.926 367.351 286.683 367.22C286.45 367.089 286.175 366.973 285.857 366.87C285.549 366.758 285.223 366.641 284.877 366.52C284.103 366.268 283.51 365.932 283.099 365.512C282.698 365.092 282.497 364.537 282.497 363.846C282.497 363.258 282.637 362.754 282.917 362.334C283.207 361.914 283.603 361.592 284.107 361.368C284.611 361.144 285.185 361.032 285.829 361.032C286.492 361.032 287.071 361.149 287.565 361.382C288.069 361.606 288.466 361.933 288.755 362.362C289.054 362.791 289.208 363.295 289.217 363.874H287.201C287.192 363.659 287.127 363.459 287.005 363.272C286.893 363.076 286.735 362.922 286.529 362.81C286.324 362.689 286.081 362.628 285.801 362.628C285.559 362.619 285.335 362.656 285.129 362.74C284.933 362.824 284.775 362.95 284.653 363.118C284.541 363.277 284.485 363.477 284.485 363.72C284.485 363.953 284.541 364.149 284.653 364.308C284.775 364.467 284.938 364.607 285.143 364.728C285.349 364.84 285.591 364.947 285.871 365.05C286.151 365.143 286.455 365.241 286.781 365.344C287.267 365.512 287.715 365.713 288.125 365.946C288.536 366.17 288.863 366.464 289.105 366.828C289.348 367.192 289.469 367.673 289.469 368.27C289.469 368.783 289.334 369.259 289.063 369.698C288.793 370.137 288.401 370.491 287.887 370.762C287.383 371.033 286.753 371.168 285.997 371.168ZM291.913 371V361.2H298.353V362.726H293.803V365.288H297.933V366.758H293.803V369.474H298.353V371H291.913Z" fill="#130160"/>
</g>
<defs>
<filter id="filter0_d_225_184" x="-40" y="22" width="459" height="356" filterUnits="userSpaceOnUse" color-interpolation-filters="sRGB">
<feFlood flood-opacity="0" result="BackgroundImageFix"/>
<feColorMatrix in="SourceAlpha" type="matrix" values="0 0 0 0 0 0 0 0 0 0 0 0 0 0 0 0 0 0 127 0" result="hardAlpha"/>
<feOffset dy="4"/>
<feGaussianBlur stdDeviation="31"/>
<feComposite in2="hardAlpha" operator="out"/>
<feColorMatrix type="matrix" values="0 0 0 0 0.600625 0 0 0 0 0.670375 0 0 0 0 0.775 0 0 0 0.18 0"/>
<feBlend mode="normal" in2="BackgroundImageFix" result="effect1_dropShadow_225_184"/>
<feBlend mode="normal" in="SourceGraphic" in2="effect1_dropShadow_225_184" result="shape"/>
</filter>
<filter id="filter1_d_225_184" x="-37" y="283" width="282" height="174" filterUnits="userSpaceOnUse" color-interpolation-filters="sRGB">
<feFlood flood-opacity="0" result="BackgroundImageFix"/>
<feColorMatrix in="SourceAlpha" type="matrix" values="0 0 0 0 0 0 0 0 0 0 0 0 0 0 0 0 0 0 127 0" result="hardAlpha"/>
<feOffset dy="4"/>
<feGaussianBlur stdDeviation="31"/>
<feComposite in2="hardAlpha" operator="out"/>
<feColorMatrix type="matrix" values="0 0 0 0 0.600625 0 0 0 0 0.670375 0 0 0 0 0.775 0 0 0 0.18 0"/>
<feBlend mode="normal" in2="BackgroundImageFix" result="effect1_dropShadow_225_184"/>
<feBlend mode="normal" in="SourceGraphic" in2="effect1_dropShadow_225_184" result="shape"/>
</filter>
<filter id="filter2_d_225_184" x="131" y="283" width="288" height="174" filterUnits="userSpaceOnUse" color-interpolation-filters="sRGB">
<feFlood flood-opacity="0" result="BackgroundImageFix"/>
<feColorMatrix in="SourceAlpha" type="matrix" values="0 0 0 0 0 0 0 0 0 0 0 0 0 0 0 0 0 0 127 0" result="hardAlpha"/>
<feOffset dy="4"/>
<feGaussianBlur stdDeviation="31"/>
<feComposite in2="hardAlpha" operator="out"/>
<feColorMatrix type="matrix" values="0 0 0 0 0.600625 0 0 0 0 0.670375 0 0 0 0 0.775 0 0 0 0.18 0"/>
<feBlend mode="normal" in2="BackgroundImageFix" result="effect1_dropShadow_225_184"/>
<feBlend mode="normal" in="SourceGraphic" in2="effect1_dropShadow_225_184" result="shape"/>
</filter>
<clipPath id="clip0_225_184">
<rect width="375" height="418" rx="30" fill="white"/>
</clipPath>
</defs>
</svg>
