<svg width="375" height="351" viewBox="0 0 375 351" fill="none" xmlns="http://www.w3.org/2000/svg">
<g clip-path="url(#clip0_229_57)">
<rect width="375" height="351" rx="30" fill="#F9F9F9"/>
<path d="M20.352 46L24.448 34.8H26.896L30.976 46H28.688L25.664 37.264L22.624 46H20.352ZM22.16 43.456L22.736 41.776H28.432L28.992 43.456H22.16ZM35.5931 46.192C34.8678 46.192 34.2118 46.0107 33.6251 45.648C33.0385 45.2853 32.5798 44.7893 32.2491 44.16C31.9185 43.52 31.7531 42.7947 31.7531 41.984C31.7531 41.1733 31.9185 40.4533 32.2491 39.824C32.5905 39.184 33.0545 38.6827 33.6411 38.32C34.2385 37.9573 34.9051 37.776 35.6411 37.776C36.2278 37.776 36.7345 37.8827 37.1611 38.096C37.5985 38.3093 37.9505 38.6133 38.2171 39.008V34.48H40.3771V46H38.4571L38.2171 44.896C38.0571 45.12 37.8545 45.3333 37.6091 45.536C37.3745 45.7387 37.0918 45.8987 36.7611 46.016C36.4305 46.1333 36.0411 46.192 35.5931 46.192ZM36.1051 44.304C36.5318 44.304 36.9051 44.208 37.2251 44.016C37.5558 43.8133 37.8118 43.536 37.9931 43.184C38.1851 42.832 38.2811 42.432 38.2811 41.984C38.2811 41.5253 38.1851 41.12 37.9931 40.768C37.8118 40.416 37.5558 40.144 37.2251 39.952C36.9051 39.76 36.5318 39.664 36.1051 39.664C35.6998 39.664 35.3318 39.76 35.0011 39.952C34.6705 40.144 34.4091 40.416 34.2171 40.768C34.0358 41.12 33.9451 41.52 33.9451 41.968C33.9451 42.4267 34.0358 42.832 34.2171 43.184C34.4091 43.536 34.6705 43.8133 35.0011 44.016C35.3318 44.208 35.6998 44.304 36.1051 44.304ZM46.0775 46.192C45.3522 46.192 44.6962 46.0107 44.1095 45.648C43.5228 45.2853 43.0642 44.7893 42.7335 44.16C42.4028 43.52 42.2375 42.7947 42.2375 41.984C42.2375 41.1733 42.4028 40.4533 42.7335 39.824C43.0748 39.184 43.5388 38.6827 44.1255 38.32C44.7228 37.9573 45.3895 37.776 46.1255 37.776C46.7122 37.776 47.2188 37.8827 47.6455 38.096C48.0828 38.3093 48.4348 38.6133 48.7015 39.008V34.48H50.8615V46H48.9415L48.7015 44.896C48.5415 45.12 48.3388 45.3333 48.0935 45.536C47.8588 45.7387 47.5762 45.8987 47.2455 46.016C46.9148 46.1333 46.5255 46.192 46.0775 46.192ZM46.5895 44.304C47.0162 44.304 47.3895 44.208 47.7095 44.016C48.0402 43.8133 48.2962 43.536 48.4775 43.184C48.6695 42.832 48.7655 42.432 48.7655 41.984C48.7655 41.5253 48.6695 41.12 48.4775 40.768C48.2962 40.416 48.0402 40.144 47.7095 39.952C47.3895 39.76 47.0162 39.664 46.5895 39.664C46.1842 39.664 45.8162 39.76 45.4855 39.952C45.1548 40.144 44.8935 40.416 44.7015 40.768C44.5202 41.12 44.4295 41.52 44.4295 41.968C44.4295 42.4267 44.5202 42.832 44.7015 43.184C44.8935 43.536 45.1548 43.8133 45.4855 44.016C45.8162 44.208 46.1842 44.304 46.5895 44.304ZM60.6475 46.192C59.8368 46.192 59.1115 46.0533 58.4715 45.776C57.8315 45.4987 57.3302 45.0933 56.9675 44.56C56.6048 44.0267 56.4128 43.3813 56.3915 42.624H58.6795C58.6902 42.9547 58.7755 43.2533 58.9355 43.52C59.0955 43.7867 59.3195 44 59.6075 44.16C59.8955 44.3093 60.2368 44.384 60.6315 44.384C60.9728 44.384 61.2662 44.3307 61.5115 44.224C61.7675 44.1067 61.9648 43.9467 62.1035 43.744C62.2422 43.5413 62.3115 43.3013 62.3115 43.024C62.3115 42.704 62.2315 42.4373 62.0715 42.224C61.9222 42.0107 61.7088 41.8293 61.4315 41.68C61.1542 41.52 60.8342 41.3813 60.4715 41.264C60.1195 41.136 59.7462 41.008 59.3515 40.88C58.4768 40.592 57.8048 40.208 57.3355 39.728C56.8768 39.248 56.6475 38.6133 56.6475 37.824C56.6475 37.152 56.8075 36.576 57.1275 36.096C57.4582 35.616 57.9062 35.248 58.4715 34.992C59.0475 34.736 59.7088 34.608 60.4555 34.608C61.2128 34.608 61.8742 34.7413 62.4395 35.008C63.0155 35.264 63.4688 35.6373 63.7995 36.128C64.1302 36.6187 64.3062 37.1947 64.3275 37.856H62.0075C62.0075 37.6107 61.9382 37.3813 61.7995 37.168C61.6715 36.944 61.4902 36.768 61.2555 36.64C61.0208 36.5013 60.7435 36.432 60.4235 36.432C60.1355 36.4213 59.8795 36.464 59.6555 36.56C59.4315 36.656 59.2502 36.8 59.1115 36.992C58.9835 37.1733 58.9195 37.4027 58.9195 37.68C58.9195 37.9467 58.9835 38.1707 59.1115 38.352C59.2395 38.5333 59.4208 38.6933 59.6555 38.832C59.9008 38.96 60.1782 39.0827 60.4875 39.2C60.8075 39.3067 61.1542 39.4187 61.5275 39.536C62.0928 39.728 62.6048 39.9573 63.0635 40.224C63.5328 40.48 63.9062 40.816 64.1835 41.232C64.4608 41.648 64.5995 42.1973 64.5995 42.88C64.5995 43.4667 64.4448 44.0107 64.1355 44.512C63.8368 45.0133 63.3942 45.4187 62.8075 45.728C62.2208 46.0373 61.5008 46.192 60.6475 46.192ZM71.6641 46L68.2241 41.6L71.2961 37.968H73.8561L69.8721 42.496V40.784L74.3521 46H71.6641ZM66.3841 46V34.48H68.5441V46H66.3841ZM75.6821 46V37.968H77.8421V46H75.6821ZM76.7701 36.848C76.3755 36.848 76.0555 36.736 75.8101 36.512C75.5648 36.2773 75.4421 35.984 75.4421 35.632C75.4421 35.28 75.5648 34.992 75.8101 34.768C76.0555 34.5333 76.3755 34.416 76.7701 34.416C77.1648 34.416 77.4848 34.5333 77.7301 34.768C77.9861 34.992 78.1141 35.28 78.1141 35.632C78.1141 35.984 77.9861 36.2773 77.7301 36.512C77.4848 36.736 77.1648 36.848 76.7701 36.848ZM80.0091 46V34.48H82.1691V46H80.0091ZM84.2591 46V34.48H86.4191V46H84.2591Z" fill="#150B3D"/>
<path opacity="0.2" d="M20 80C20 74.4772 24.4772 70 30 70H122C127.523 70 132 74.4772 132 80V96C132 101.523 127.523 106 122 106H30C24.4772 106 20 101.523 20 96V80Z" fill="#CBC9D5"/>
<path d="M118.536 84.4648L111.465 91.5359" stroke="#150A33" stroke-width="1.5" stroke-linecap="round"/>
<path d="M118.536 91.5352L111.465 84.4641" stroke="#150A33" stroke-width="1.5" stroke-linecap="round"/>
<path d="M35.912 92V83.6H36.92V91.196H40.832V92H35.912ZM44.562 92.144C44.002 92.144 43.502 92.012 43.062 91.748C42.63 91.476 42.29 91.1 42.042 90.62C41.794 90.132 41.67 89.568 41.67 88.928C41.67 88.28 41.794 87.716 42.042 87.236C42.29 86.748 42.63 86.372 43.062 86.108C43.502 85.836 44.01 85.7 44.586 85.7C45.186 85.7 45.69 85.836 46.098 86.108C46.514 86.372 46.83 86.724 47.046 87.164C47.262 87.604 47.37 88.084 47.37 88.604C47.37 88.684 47.37 88.768 47.37 88.856C47.37 88.944 47.366 89.044 47.358 89.156H42.426V88.376H46.374C46.358 87.792 46.178 87.344 45.834 87.032C45.498 86.712 45.074 86.552 44.562 86.552C44.226 86.552 43.914 86.632 43.626 86.792C43.338 86.952 43.102 87.188 42.918 87.5C42.742 87.804 42.654 88.188 42.654 88.652V88.988C42.654 89.492 42.742 89.916 42.918 90.26C43.102 90.604 43.338 90.864 43.626 91.04C43.914 91.208 44.226 91.292 44.562 91.292C45.002 91.292 45.354 91.204 45.618 91.028C45.882 90.844 46.078 90.588 46.206 90.26H47.202C47.098 90.62 46.926 90.944 46.686 91.232C46.454 91.512 46.158 91.736 45.798 91.904C45.446 92.064 45.034 92.144 44.562 92.144ZM50.7106 92.144C50.2226 92.144 49.8146 92.056 49.4866 91.88C49.1666 91.704 48.9266 91.472 48.7666 91.184C48.6066 90.896 48.5266 90.58 48.5266 90.236C48.5266 89.828 48.6306 89.48 48.8386 89.192C49.0546 88.904 49.3546 88.688 49.7386 88.544C50.1226 88.392 50.5746 88.316 51.0946 88.316H52.6786C52.6786 87.924 52.6266 87.6 52.5226 87.344C52.4186 87.08 52.2546 86.884 52.0306 86.756C51.8146 86.62 51.5386 86.552 51.2026 86.552C50.8266 86.552 50.5026 86.648 50.2306 86.84C49.9586 87.024 49.7906 87.3 49.7266 87.668H48.6946C48.7426 87.244 48.8866 86.888 49.1266 86.6C49.3666 86.304 49.6706 86.08 50.0386 85.928C50.4066 85.776 50.7946 85.7 51.2026 85.7C51.7626 85.7 52.2266 85.804 52.5946 86.012C52.9626 86.212 53.2346 86.496 53.4106 86.864C53.5946 87.224 53.6866 87.652 53.6866 88.148V92H52.7866L52.7266 90.92C52.6466 91.088 52.5426 91.248 52.4146 91.4C52.2946 91.544 52.1506 91.672 51.9826 91.784C51.8226 91.896 51.6346 91.984 51.4186 92.048C51.2026 92.112 50.9666 92.144 50.7106 92.144ZM50.8546 91.292C51.1266 91.292 51.3746 91.232 51.5986 91.112C51.8306 90.992 52.0266 90.832 52.1866 90.632C52.3466 90.432 52.4666 90.208 52.5466 89.96C52.6346 89.704 52.6786 89.44 52.6786 89.168V89.096H51.1786C50.7946 89.096 50.4826 89.144 50.2426 89.24C50.0106 89.328 49.8426 89.456 49.7386 89.624C49.6346 89.792 49.5826 89.98 49.5826 90.188C49.5826 90.412 49.6306 90.608 49.7266 90.776C49.8226 90.936 49.9666 91.064 50.1586 91.16C50.3506 91.248 50.5826 91.292 50.8546 91.292ZM57.9451 92.144C57.3691 92.144 56.8611 92.004 56.4211 91.724C55.9891 91.444 55.6491 91.06 55.4011 90.572C55.1611 90.084 55.0411 89.532 55.0411 88.916C55.0411 88.292 55.1611 87.74 55.4011 87.26C55.6491 86.78 55.9891 86.4 56.4211 86.12C56.8611 85.84 57.3731 85.7 57.9571 85.7C58.4451 85.7 58.8731 85.8 59.2411 86C59.6091 86.2 59.8931 86.48 60.0931 86.84V83.36H61.1011V92H60.1891L60.1051 91.004C59.9851 91.196 59.8251 91.38 59.6251 91.556C59.4251 91.732 59.1851 91.876 58.9051 91.988C58.6331 92.092 58.3131 92.144 57.9451 92.144ZM58.0651 91.268C58.4651 91.268 58.8131 91.172 59.1091 90.98C59.4131 90.788 59.6451 90.516 59.8051 90.164C59.9731 89.812 60.0571 89.4 60.0571 88.928C60.0571 88.448 59.9731 88.036 59.8051 87.692C59.6451 87.34 59.4131 87.068 59.1091 86.876C58.8131 86.676 58.4651 86.576 58.0651 86.576C57.6811 86.576 57.3371 86.676 57.0331 86.876C56.7371 87.068 56.5011 87.34 56.3251 87.692C56.1571 88.036 56.0731 88.448 56.0731 88.928C56.0731 89.4 56.1571 89.812 56.3251 90.164C56.5011 90.516 56.7371 90.788 57.0331 90.98C57.3371 91.172 57.6811 91.268 58.0651 91.268ZM65.4331 92.144C64.8731 92.144 64.3731 92.012 63.9331 91.748C63.5011 91.476 63.1611 91.1 62.9131 90.62C62.6651 90.132 62.5411 89.568 62.5411 88.928C62.5411 88.28 62.6651 87.716 62.9131 87.236C63.1611 86.748 63.5011 86.372 63.9331 86.108C64.3731 85.836 64.8811 85.7 65.4571 85.7C66.0571 85.7 66.5611 85.836 66.9691 86.108C67.3851 86.372 67.7011 86.724 67.9171 87.164C68.1331 87.604 68.2411 88.084 68.2411 88.604C68.2411 88.684 68.2411 88.768 68.2411 88.856C68.2411 88.944 68.2371 89.044 68.2291 89.156H63.2971V88.376H67.2451C67.2291 87.792 67.0491 87.344 66.7051 87.032C66.3691 86.712 65.9451 86.552 65.4331 86.552C65.0971 86.552 64.7851 86.632 64.4971 86.792C64.2091 86.952 63.9731 87.188 63.7891 87.5C63.6131 87.804 63.5251 88.188 63.5251 88.652V88.988C63.5251 89.492 63.6131 89.916 63.7891 90.26C63.9731 90.604 64.2091 90.864 64.4971 91.04C64.7851 91.208 65.0971 91.292 65.4331 91.292C65.8731 91.292 66.2251 91.204 66.4891 91.028C66.7531 90.844 66.9491 90.588 67.0771 90.26H68.0731C67.9691 90.62 67.7971 90.944 67.5571 91.232C67.3251 91.512 67.0291 91.736 66.6691 91.904C66.3171 92.064 65.9051 92.144 65.4331 92.144ZM69.6017 92V85.844H70.5137L70.5977 86.996C70.7337 86.716 70.9097 86.48 71.1257 86.288C71.3497 86.096 71.6177 85.952 71.9297 85.856C72.2417 85.752 72.5937 85.7 72.9857 85.7V86.756H72.5177C72.2697 86.756 72.0297 86.792 71.7977 86.864C71.5737 86.928 71.3697 87.036 71.1857 87.188C71.0097 87.332 70.8697 87.532 70.7657 87.788C70.6617 88.044 70.6097 88.364 70.6097 88.748V92H69.6017ZM76.4169 92.144C75.8889 92.144 75.4369 92.06 75.0609 91.892C74.6929 91.724 74.4049 91.488 74.1969 91.184C73.9889 90.88 73.8609 90.524 73.8129 90.116H74.8449C74.8849 90.324 74.9649 90.52 75.0849 90.704C75.2129 90.88 75.3849 91.024 75.6009 91.136C75.8249 91.24 76.1009 91.292 76.4289 91.292C76.7089 91.292 76.9409 91.252 77.1249 91.172C77.3169 91.084 77.4569 90.968 77.5449 90.824C77.6409 90.672 77.6889 90.508 77.6889 90.332C77.6889 90.076 77.6289 89.88 77.5089 89.744C77.3969 89.608 77.2289 89.504 77.0049 89.432C76.7889 89.352 76.5209 89.288 76.2009 89.24C75.8969 89.192 75.6129 89.128 75.3489 89.048C75.0929 88.96 74.8649 88.848 74.6649 88.712C74.4729 88.576 74.3209 88.408 74.2089 88.208C74.1049 88 74.0529 87.752 74.0529 87.464C74.0529 87.12 74.1409 86.816 74.3169 86.552C74.5009 86.288 74.7569 86.08 75.0849 85.928C75.4209 85.776 75.8169 85.7 76.2729 85.7C76.9289 85.7 77.4569 85.856 77.8569 86.168C78.2569 86.48 78.4929 86.928 78.5649 87.512H77.5689C77.5289 87.216 77.3929 86.984 77.1609 86.816C76.9369 86.64 76.6369 86.552 76.2609 86.552C75.8689 86.552 75.5729 86.628 75.3729 86.78C75.1729 86.932 75.0729 87.132 75.0729 87.38C75.0729 87.556 75.1209 87.712 75.2169 87.848C75.3209 87.976 75.4809 88.088 75.6969 88.184C75.9209 88.272 76.2009 88.344 76.5369 88.4C76.9609 88.464 77.3369 88.556 77.6649 88.676C77.9929 88.796 78.2529 88.98 78.4449 89.228C78.6369 89.468 78.7289 89.808 78.7209 90.248C78.7289 90.632 78.6369 90.968 78.4449 91.256C78.2529 91.544 77.9849 91.764 77.6409 91.916C77.2969 92.068 76.8889 92.144 76.4169 92.144ZM80.1955 92V83.36H81.2035V86.864C81.4115 86.504 81.6955 86.22 82.0555 86.012C82.4155 85.804 82.8075 85.7 83.2315 85.7C83.7115 85.7 84.1195 85.792 84.4555 85.976C84.7995 86.16 85.0635 86.444 85.2475 86.828C85.4315 87.204 85.5235 87.68 85.5235 88.256V92H84.5275V88.364C84.5275 87.772 84.3955 87.324 84.1315 87.02C83.8675 86.716 83.4955 86.564 83.0155 86.564C82.6875 86.564 82.3835 86.648 82.1035 86.816C81.8315 86.976 81.6115 87.212 81.4435 87.524C81.2835 87.828 81.2035 88.204 81.2035 88.652V92H80.1955ZM87.241 92V85.844H88.249V92H87.241ZM87.745 84.596C87.545 84.596 87.377 84.532 87.241 84.404C87.113 84.268 87.049 84.1 87.049 83.9C87.049 83.7 87.113 83.54 87.241 83.42C87.377 83.292 87.545 83.228 87.745 83.228C87.937 83.228 88.101 83.292 88.237 83.42C88.373 83.54 88.441 83.7 88.441 83.9C88.441 84.1 88.373 84.268 88.237 84.404C88.101 84.532 87.937 84.596 87.745 84.596ZM90.0158 94.64V85.844H90.9278L91.0238 86.828C91.1518 86.628 91.3118 86.444 91.5038 86.276C91.7038 86.108 91.9438 85.972 92.2238 85.868C92.5038 85.756 92.8238 85.7 93.1838 85.7C93.7598 85.7 94.2638 85.844 94.6958 86.132C95.1278 86.412 95.4638 86.796 95.7038 87.284C95.9518 87.764 96.0758 88.316 96.0758 88.94C96.0758 89.556 95.9518 90.108 95.7038 90.596C95.4638 91.076 95.1238 91.456 94.6838 91.736C94.2518 92.008 93.7478 92.144 93.1718 92.144C92.6838 92.144 92.2518 92.044 91.8758 91.844C91.5078 91.644 91.2238 91.364 91.0238 91.004V94.64H90.0158ZM93.0518 91.268C93.4438 91.268 93.7878 91.172 94.0838 90.98C94.3798 90.788 94.6118 90.516 94.7798 90.164C94.9558 89.812 95.0438 89.4 95.0438 88.928C95.0438 88.448 94.9558 88.036 94.7798 87.692C94.6118 87.34 94.3798 87.068 94.0838 86.876C93.7878 86.676 93.4438 86.576 93.0518 86.576C92.6518 86.576 92.2998 86.676 91.9958 86.876C91.6998 87.068 91.4678 87.34 91.2998 87.692C91.1398 88.036 91.0598 88.448 91.0598 88.928C91.0598 89.4 91.1398 89.812 91.2998 90.164C91.4678 90.516 91.6998 90.788 91.9958 90.98C92.2998 91.172 92.6518 91.268 93.0518 91.268Z" fill="#524B6B"/>
<path opacity="0.2" d="M142 80C142 74.4772 146.477 70 152 70H240C245.523 70 250 74.4772 250 80V96C250 101.523 245.523 106 240 106H152C146.477 106 142 101.523 142 96V80Z" fill="#CBC9D5"/>
<path d="M159.868 92V84.428H157.36V83.6H163.384V84.428H160.876V92H159.868ZM166.14 92.144C165.58 92.144 165.08 92.012 164.64 91.748C164.208 91.476 163.868 91.1 163.62 90.62C163.372 90.132 163.248 89.568 163.248 88.928C163.248 88.28 163.372 87.716 163.62 87.236C163.868 86.748 164.208 86.372 164.64 86.108C165.08 85.836 165.588 85.7 166.164 85.7C166.764 85.7 167.268 85.836 167.676 86.108C168.092 86.372 168.408 86.724 168.624 87.164C168.84 87.604 168.948 88.084 168.948 88.604C168.948 88.684 168.948 88.768 168.948 88.856C168.948 88.944 168.944 89.044 168.936 89.156H164.004V88.376H167.952C167.936 87.792 167.756 87.344 167.412 87.032C167.076 86.712 166.652 86.552 166.14 86.552C165.804 86.552 165.492 86.632 165.204 86.792C164.916 86.952 164.68 87.188 164.496 87.5C164.32 87.804 164.232 88.188 164.232 88.652V88.988C164.232 89.492 164.32 89.916 164.496 90.26C164.68 90.604 164.916 90.864 165.204 91.04C165.492 91.208 165.804 91.292 166.14 91.292C166.58 91.292 166.932 91.204 167.196 91.028C167.46 90.844 167.656 90.588 167.784 90.26H168.78C168.676 90.62 168.504 90.944 168.264 91.232C168.032 91.512 167.736 91.736 167.376 91.904C167.024 92.064 166.612 92.144 166.14 92.144ZM172.289 92.144C171.801 92.144 171.393 92.056 171.065 91.88C170.745 91.704 170.505 91.472 170.345 91.184C170.185 90.896 170.105 90.58 170.105 90.236C170.105 89.828 170.209 89.48 170.417 89.192C170.633 88.904 170.933 88.688 171.317 88.544C171.701 88.392 172.153 88.316 172.673 88.316H174.257C174.257 87.924 174.205 87.6 174.101 87.344C173.997 87.08 173.833 86.884 173.609 86.756C173.393 86.62 173.117 86.552 172.781 86.552C172.405 86.552 172.081 86.648 171.809 86.84C171.537 87.024 171.369 87.3 171.305 87.668H170.273C170.321 87.244 170.465 86.888 170.705 86.6C170.945 86.304 171.249 86.08 171.617 85.928C171.985 85.776 172.373 85.7 172.781 85.7C173.341 85.7 173.805 85.804 174.173 86.012C174.541 86.212 174.813 86.496 174.989 86.864C175.173 87.224 175.265 87.652 175.265 88.148V92H174.365L174.305 90.92C174.225 91.088 174.121 91.248 173.993 91.4C173.873 91.544 173.729 91.672 173.561 91.784C173.401 91.896 173.213 91.984 172.997 92.048C172.781 92.112 172.545 92.144 172.289 92.144ZM172.433 91.292C172.705 91.292 172.953 91.232 173.177 91.112C173.409 90.992 173.605 90.832 173.765 90.632C173.925 90.432 174.045 90.208 174.125 89.96C174.213 89.704 174.257 89.44 174.257 89.168V89.096H172.757C172.373 89.096 172.061 89.144 171.821 89.24C171.589 89.328 171.421 89.456 171.317 89.624C171.213 89.792 171.161 89.98 171.161 90.188C171.161 90.412 171.209 90.608 171.305 90.776C171.401 90.936 171.545 91.064 171.737 91.16C171.929 91.248 172.161 91.292 172.433 91.292ZM176.871 92V85.844H177.783L177.843 86.708C178.035 86.396 178.291 86.152 178.611 85.976C178.939 85.792 179.291 85.7 179.667 85.7C179.979 85.7 180.259 85.744 180.507 85.832C180.755 85.912 180.971 86.04 181.155 86.216C181.347 86.384 181.503 86.6 181.623 86.864C181.831 86.488 182.115 86.2 182.475 86C182.835 85.8 183.219 85.7 183.627 85.7C184.091 85.7 184.491 85.792 184.827 85.976C185.171 86.16 185.435 86.44 185.619 86.816C185.811 87.192 185.907 87.664 185.907 88.232V92H184.911V88.34C184.911 87.748 184.787 87.304 184.539 87.008C184.291 86.712 183.943 86.564 183.495 86.564C183.199 86.564 182.927 86.644 182.679 86.804C182.439 86.964 182.247 87.2 182.103 87.512C181.959 87.816 181.887 88.188 181.887 88.628V92H180.879V88.34C180.879 87.748 180.755 87.304 180.507 87.008C180.259 86.712 179.919 86.564 179.487 86.564C179.191 86.564 178.919 86.644 178.671 86.804C178.431 86.964 178.239 87.2 178.095 87.512C177.951 87.816 177.879 88.188 177.879 88.628V92H176.871ZM188.76 92L186.96 85.844H187.968L189.348 90.92H189.228L190.716 85.844H191.856L193.368 90.908L193.248 90.92L194.616 85.844H195.636L193.836 92H192.804L191.232 86.696H191.352L189.792 92H188.76ZM199.271 92.144C198.695 92.144 198.183 92.012 197.735 91.748C197.287 91.484 196.935 91.112 196.679 90.632C196.431 90.144 196.307 89.576 196.307 88.928C196.307 88.272 196.435 87.704 196.691 87.224C196.947 86.744 197.299 86.372 197.747 86.108C198.203 85.836 198.719 85.7 199.295 85.7C199.871 85.7 200.383 85.836 200.831 86.108C201.279 86.372 201.627 86.744 201.875 87.224C202.131 87.704 202.259 88.272 202.259 88.928C202.259 89.576 202.131 90.144 201.875 90.632C201.619 91.112 201.263 91.484 200.807 91.748C200.359 92.012 199.847 92.144 199.271 92.144ZM199.271 91.28C199.631 91.28 199.959 91.192 200.255 91.016C200.551 90.84 200.787 90.576 200.963 90.224C201.139 89.872 201.227 89.44 201.227 88.928C201.227 88.4 201.139 87.964 200.963 87.62C200.795 87.268 200.563 87.004 200.267 86.828C199.971 86.652 199.647 86.564 199.295 86.564C198.943 86.564 198.619 86.652 198.323 86.828C198.027 87.004 197.787 87.268 197.603 87.62C197.427 87.964 197.339 88.4 197.339 88.928C197.339 89.44 197.427 89.872 197.603 90.224C197.779 90.576 198.011 90.84 198.299 91.016C198.595 91.192 198.919 91.28 199.271 91.28ZM203.695 92V85.844H204.607L204.691 86.996C204.827 86.716 205.003 86.48 205.219 86.288C205.443 86.096 205.711 85.952 206.023 85.856C206.335 85.752 206.687 85.7 207.079 85.7V86.756H206.611C206.363 86.756 206.123 86.792 205.891 86.864C205.667 86.928 205.463 87.036 205.279 87.188C205.103 87.332 204.963 87.532 204.859 87.788C204.755 88.044 204.703 88.364 204.703 88.748V92H203.695ZM211.951 92L209.071 88.652L211.735 85.844H212.971L209.923 89.012L209.935 88.292L213.235 92H211.951ZM208.231 92V83.36H209.239V92H208.231Z" fill="#524B6B"/>
<path d="M236.536 84.4648L229.465 91.5359" stroke="#150A33" stroke-width="1.5" stroke-linecap="round"/>
<path d="M236.536 91.5352L229.465 84.4641" stroke="#150A33" stroke-width="1.5" stroke-linecap="round"/>
<path opacity="0.2" d="M20 126C20 120.477 24.4772 116 30 116H146C151.523 116 156 120.477 156 126V142C156 147.523 151.523 152 146 152H30C24.4772 152 20 147.523 20 142V126Z" fill="#CBC9D5"/>
<path d="M37.868 138V130.428H35.36V129.6H41.384V130.428H38.876V138H37.868ZM43.6677 138.144C43.1797 138.144 42.7717 138.056 42.4437 137.88C42.1237 137.704 41.8837 137.472 41.7237 137.184C41.5637 136.896 41.4837 136.58 41.4837 136.236C41.4837 135.828 41.5877 135.48 41.7957 135.192C42.0117 134.904 42.3117 134.688 42.6957 134.544C43.0797 134.392 43.5317 134.316 44.0517 134.316H45.6357C45.6357 133.924 45.5837 133.6 45.4797 133.344C45.3757 133.08 45.2117 132.884 44.9877 132.756C44.7717 132.62 44.4957 132.552 44.1597 132.552C43.7837 132.552 43.4597 132.648 43.1877 132.84C42.9157 133.024 42.7477 133.3 42.6837 133.668H41.6517C41.6997 133.244 41.8437 132.888 42.0837 132.6C42.3237 132.304 42.6277 132.08 42.9957 131.928C43.3637 131.776 43.7517 131.7 44.1597 131.7C44.7197 131.7 45.1837 131.804 45.5517 132.012C45.9197 132.212 46.1917 132.496 46.3677 132.864C46.5517 133.224 46.6437 133.652 46.6437 134.148V138H45.7437L45.6837 136.92C45.6037 137.088 45.4997 137.248 45.3717 137.4C45.2517 137.544 45.1077 137.672 44.9397 137.784C44.7797 137.896 44.5917 137.984 44.3757 138.048C44.1597 138.112 43.9237 138.144 43.6677 138.144ZM43.8117 137.292C44.0837 137.292 44.3317 137.232 44.5557 137.112C44.7877 136.992 44.9837 136.832 45.1437 136.632C45.3037 136.432 45.4237 136.208 45.5037 135.96C45.5917 135.704 45.6357 135.44 45.6357 135.168V135.096H44.1357C43.7517 135.096 43.4397 135.144 43.1997 135.24C42.9677 135.328 42.7997 135.456 42.6957 135.624C42.5917 135.792 42.5397 135.98 42.5397 136.188C42.5397 136.412 42.5877 136.608 42.6837 136.776C42.7797 136.936 42.9237 137.064 43.1157 137.16C43.3077 137.248 43.5397 137.292 43.8117 137.292ZM48.2502 138V131.844H49.1622L49.2462 132.996C49.3822 132.716 49.5582 132.48 49.7742 132.288C49.9982 132.096 50.2662 131.952 50.5782 131.856C50.8902 131.752 51.2422 131.7 51.6342 131.7V132.756H51.1662C50.9182 132.756 50.6782 132.792 50.4462 132.864C50.2222 132.928 50.0182 133.036 49.8342 133.188C49.6582 133.332 49.5182 133.532 49.4142 133.788C49.3102 134.044 49.2582 134.364 49.2582 134.748V138H48.2502ZM55.0687 140.784C54.5167 140.784 54.0287 140.712 53.6047 140.568C53.1807 140.432 52.8527 140.22 52.6207 139.932C52.3887 139.644 52.2727 139.288 52.2727 138.864C52.2727 138.672 52.3087 138.472 52.3807 138.264C52.4607 138.056 52.5927 137.852 52.7767 137.652C52.9687 137.452 53.2367 137.272 53.5807 137.112L54.3007 137.52C53.8687 137.696 53.5847 137.896 53.4487 138.12C53.3207 138.352 53.2567 138.568 53.2567 138.768C53.2567 139.032 53.3327 139.252 53.4847 139.428C53.6367 139.604 53.8487 139.736 54.1207 139.824C54.4007 139.912 54.7167 139.956 55.0687 139.956C55.4207 139.956 55.7207 139.908 55.9687 139.812C56.2247 139.716 56.4207 139.58 56.5567 139.404C56.6927 139.236 56.7607 139.032 56.7607 138.792C56.7607 138.496 56.6567 138.252 56.4487 138.06C56.2407 137.876 55.8367 137.768 55.2367 137.736C54.7567 137.704 54.3527 137.66 54.0247 137.604C53.7047 137.548 53.4407 137.484 53.2327 137.412C53.0247 137.332 52.8487 137.244 52.7047 137.148C52.5687 137.052 52.4447 136.952 52.3327 136.848V136.572L53.5087 135.42L54.4087 135.732L53.1727 136.812L53.3287 136.368C53.4167 136.432 53.5007 136.492 53.5807 136.548C53.6607 136.604 53.7687 136.656 53.9047 136.704C54.0407 136.744 54.2327 136.784 54.4807 136.824C54.7287 136.856 55.0567 136.888 55.4647 136.92C56.0247 136.96 56.4727 137.056 56.8087 137.208C57.1447 137.36 57.3847 137.568 57.5287 137.832C57.6807 138.088 57.7567 138.396 57.7567 138.756C57.7567 139.1 57.6607 139.424 57.4687 139.728C57.2847 140.04 56.9927 140.292 56.5927 140.484C56.2007 140.684 55.6927 140.784 55.0687 140.784ZM55.0567 136.08C54.5527 136.08 54.1207 135.984 53.7607 135.792C53.4087 135.592 53.1407 135.328 52.9567 135C52.7727 134.672 52.6807 134.304 52.6807 133.896C52.6807 133.48 52.7727 133.112 52.9567 132.792C53.1487 132.464 53.4207 132.2 53.7727 132C54.1247 131.8 54.5527 131.7 55.0567 131.7C55.5687 131.7 56.0007 131.8 56.3527 132C56.7047 132.2 56.9727 132.464 57.1567 132.792C57.3407 133.112 57.4327 133.48 57.4327 133.896C57.4327 134.304 57.3407 134.672 57.1567 135C56.9727 135.328 56.7047 135.592 56.3527 135.792C56.0007 135.984 55.5687 136.08 55.0567 136.08ZM55.0567 135.252C55.4967 135.252 55.8407 135.136 56.0887 134.904C56.3367 134.672 56.4607 134.336 56.4607 133.896C56.4607 133.448 56.3367 133.112 56.0887 132.888C55.8407 132.656 55.4967 132.54 55.0567 132.54C54.6327 132.54 54.2887 132.656 54.0247 132.888C53.7607 133.112 53.6287 133.448 53.6287 133.896C53.6287 134.336 53.7567 134.672 54.0127 134.904C54.2767 135.136 54.6247 135.252 55.0567 135.252ZM56.0647 132.696L55.7647 131.844H58.2367V132.6L56.0647 132.696ZM61.8355 138.144C61.2755 138.144 60.7755 138.012 60.3355 137.748C59.9035 137.476 59.5635 137.1 59.3155 136.62C59.0675 136.132 58.9435 135.568 58.9435 134.928C58.9435 134.28 59.0675 133.716 59.3155 133.236C59.5635 132.748 59.9035 132.372 60.3355 132.108C60.7755 131.836 61.2835 131.7 61.8595 131.7C62.4595 131.7 62.9635 131.836 63.3715 132.108C63.7875 132.372 64.1035 132.724 64.3195 133.164C64.5355 133.604 64.6435 134.084 64.6435 134.604C64.6435 134.684 64.6435 134.768 64.6435 134.856C64.6435 134.944 64.6395 135.044 64.6315 135.156H59.6995V134.376H63.6475C63.6315 133.792 63.4515 133.344 63.1075 133.032C62.7715 132.712 62.3475 132.552 61.8355 132.552C61.4995 132.552 61.1875 132.632 60.8995 132.792C60.6115 132.952 60.3755 133.188 60.1915 133.5C60.0155 133.804 59.9275 134.188 59.9275 134.652V134.988C59.9275 135.492 60.0155 135.916 60.1915 136.26C60.3755 136.604 60.6115 136.864 60.8995 137.04C61.1875 137.208 61.4995 137.292 61.8355 137.292C62.2755 137.292 62.6275 137.204 62.8915 137.028C63.1555 136.844 63.3515 136.588 63.4795 136.26H64.4755C64.3715 136.62 64.1995 136.944 63.9595 137.232C63.7275 137.512 63.4315 137.736 63.0715 137.904C62.7195 138.064 62.3075 138.144 61.8355 138.144ZM68.2168 138C67.8568 138 67.5448 137.944 67.2808 137.832C67.0168 137.72 66.8128 137.532 66.6688 137.268C66.5328 136.996 66.4648 136.632 66.4648 136.176V132.696H65.3848V131.844H66.4648L66.5968 130.344H67.4728V131.844H69.2368V132.696H67.4728V136.176C67.4728 136.552 67.5488 136.808 67.7008 136.944C67.8528 137.072 68.1208 137.136 68.5048 137.136H69.1768V138H68.2168ZM76.4856 138.144C75.9096 138.144 75.3976 138.012 74.9496 137.748C74.5016 137.484 74.1496 137.112 73.8936 136.632C73.6456 136.144 73.5216 135.576 73.5216 134.928C73.5216 134.272 73.6496 133.704 73.9056 133.224C74.1616 132.744 74.5136 132.372 74.9616 132.108C75.4176 131.836 75.9336 131.7 76.5096 131.7C77.0856 131.7 77.5976 131.836 78.0456 132.108C78.4936 132.372 78.8416 132.744 79.0896 133.224C79.3456 133.704 79.4736 134.272 79.4736 134.928C79.4736 135.576 79.3456 136.144 79.0896 136.632C78.8336 137.112 78.4776 137.484 78.0216 137.748C77.5736 138.012 77.0616 138.144 76.4856 138.144ZM76.4856 137.28C76.8456 137.28 77.1736 137.192 77.4696 137.016C77.7656 136.84 78.0016 136.576 78.1776 136.224C78.3536 135.872 78.4416 135.44 78.4416 134.928C78.4416 134.4 78.3536 133.964 78.1776 133.62C78.0096 133.268 77.7776 133.004 77.4816 132.828C77.1856 132.652 76.8616 132.564 76.5096 132.564C76.1576 132.564 75.8336 132.652 75.5376 132.828C75.2416 133.004 75.0016 133.268 74.8176 133.62C74.6416 133.964 74.5536 134.4 74.5536 134.928C74.5536 135.44 74.6416 135.872 74.8176 136.224C74.9936 136.576 75.2256 136.84 75.5136 137.016C75.8096 137.192 76.1336 137.28 76.4856 137.28ZM80.9103 138V131.844H81.8223L81.9063 132.996C82.0423 132.716 82.2183 132.48 82.4343 132.288C82.6583 132.096 82.9263 131.952 83.2383 131.856C83.5503 131.752 83.9023 131.7 84.2943 131.7V132.756H83.8263C83.5783 132.756 83.3383 132.792 83.1063 132.864C82.8823 132.928 82.6783 133.036 82.4943 133.188C82.3183 133.332 82.1783 133.532 82.0743 133.788C81.9703 134.044 81.9183 134.364 81.9183 134.748V138H80.9103ZM85.5535 138V131.844H86.5615V138H85.5535ZM86.0575 130.596C85.8575 130.596 85.6895 130.532 85.5535 130.404C85.4255 130.268 85.3615 130.1 85.3615 129.9C85.3615 129.7 85.4255 129.54 85.5535 129.42C85.6895 129.292 85.8575 129.228 86.0575 129.228C86.2495 129.228 86.4135 129.292 86.5495 129.42C86.6855 129.54 86.7535 129.7 86.7535 129.9C86.7535 130.1 86.6855 130.268 86.5495 130.404C86.4135 130.532 86.2495 130.596 86.0575 130.596ZM90.9683 138.144C90.4083 138.144 89.9083 138.012 89.4683 137.748C89.0363 137.476 88.6963 137.1 88.4483 136.62C88.2003 136.132 88.0763 135.568 88.0763 134.928C88.0763 134.28 88.2003 133.716 88.4483 133.236C88.6963 132.748 89.0363 132.372 89.4683 132.108C89.9083 131.836 90.4163 131.7 90.9923 131.7C91.5923 131.7 92.0963 131.836 92.5043 132.108C92.9203 132.372 93.2363 132.724 93.4523 133.164C93.6683 133.604 93.7763 134.084 93.7763 134.604C93.7763 134.684 93.7763 134.768 93.7763 134.856C93.7763 134.944 93.7723 135.044 93.7643 135.156H88.8323V134.376H92.7803C92.7643 133.792 92.5843 133.344 92.2403 133.032C91.9043 132.712 91.4803 132.552 90.9683 132.552C90.6323 132.552 90.3203 132.632 90.0323 132.792C89.7443 132.952 89.5083 133.188 89.3243 133.5C89.1483 133.804 89.0603 134.188 89.0603 134.652V134.988C89.0603 135.492 89.1483 135.916 89.3243 136.26C89.5083 136.604 89.7443 136.864 90.0323 137.04C90.3203 137.208 90.6323 137.292 90.9683 137.292C91.4083 137.292 91.7603 137.204 92.0243 137.028C92.2883 136.844 92.4843 136.588 92.6123 136.26H93.6083C93.5043 136.62 93.3323 136.944 93.0923 137.232C92.8603 137.512 92.5643 137.736 92.2043 137.904C91.8523 138.064 91.4403 138.144 90.9683 138.144ZM95.1369 138V131.844H96.0489L96.1089 132.876C96.2929 132.508 96.5609 132.22 96.9129 132.012C97.2649 131.804 97.6689 131.7 98.1249 131.7C98.5969 131.7 99.0049 131.792 99.3489 131.976C99.6929 132.16 99.9609 132.44 100.153 132.816C100.345 133.184 100.441 133.652 100.441 134.22V138H99.4329V134.328C99.4329 133.744 99.2969 133.304 99.0249 133.008C98.7529 132.712 98.3769 132.564 97.8969 132.564C97.5769 132.564 97.2809 132.644 97.0089 132.804C96.7449 132.964 96.5329 133.196 96.3729 133.5C96.2209 133.796 96.1449 134.164 96.1449 134.604V138H95.1369ZM104.451 138C104.091 138 103.779 137.944 103.515 137.832C103.251 137.72 103.047 137.532 102.903 137.268C102.767 136.996 102.699 136.632 102.699 136.176V132.696H101.619V131.844H102.699L102.831 130.344H103.707V131.844H105.471V132.696H103.707V136.176C103.707 136.552 103.783 136.808 103.935 136.944C104.087 137.072 104.355 137.136 104.739 137.136H105.411V138H104.451ZM109.285 138.144C108.725 138.144 108.225 138.012 107.785 137.748C107.353 137.476 107.013 137.1 106.765 136.62C106.517 136.132 106.393 135.568 106.393 134.928C106.393 134.28 106.517 133.716 106.765 133.236C107.013 132.748 107.353 132.372 107.785 132.108C108.225 131.836 108.733 131.7 109.309 131.7C109.909 131.7 110.413 131.836 110.821 132.108C111.237 132.372 111.553 132.724 111.769 133.164C111.985 133.604 112.093 134.084 112.093 134.604C112.093 134.684 112.093 134.768 112.093 134.856C112.093 134.944 112.089 135.044 112.081 135.156H107.149V134.376H111.097C111.081 133.792 110.901 133.344 110.557 133.032C110.221 132.712 109.797 132.552 109.285 132.552C108.949 132.552 108.637 132.632 108.349 132.792C108.061 132.952 107.825 133.188 107.641 133.5C107.465 133.804 107.377 134.188 107.377 134.652V134.988C107.377 135.492 107.465 135.916 107.641 136.26C107.825 136.604 108.061 136.864 108.349 137.04C108.637 137.208 108.949 137.292 109.285 137.292C109.725 137.292 110.077 137.204 110.341 137.028C110.605 136.844 110.801 136.588 110.929 136.26H111.925C111.821 136.62 111.649 136.944 111.409 137.232C111.177 137.512 110.881 137.736 110.521 137.904C110.169 138.064 109.757 138.144 109.285 138.144ZM116.105 138.144C115.529 138.144 115.021 138.004 114.581 137.724C114.149 137.444 113.809 137.06 113.561 136.572C113.321 136.084 113.201 135.532 113.201 134.916C113.201 134.292 113.321 133.74 113.561 133.26C113.809 132.78 114.149 132.4 114.581 132.12C115.021 131.84 115.533 131.7 116.117 131.7C116.605 131.7 117.033 131.8 117.401 132C117.769 132.2 118.053 132.48 118.253 132.84V129.36H119.261V138H118.349L118.265 137.004C118.145 137.196 117.985 137.38 117.785 137.556C117.585 137.732 117.345 137.876 117.065 137.988C116.793 138.092 116.473 138.144 116.105 138.144ZM116.225 137.268C116.625 137.268 116.973 137.172 117.269 136.98C117.573 136.788 117.805 136.516 117.965 136.164C118.133 135.812 118.217 135.4 118.217 134.928C118.217 134.448 118.133 134.036 117.965 133.692C117.805 133.34 117.573 133.068 117.269 132.876C116.973 132.676 116.625 132.576 116.225 132.576C115.841 132.576 115.497 132.676 115.193 132.876C114.897 133.068 114.661 133.34 114.485 133.692C114.317 134.036 114.233 134.448 114.233 134.928C114.233 135.4 114.317 135.812 114.485 136.164C114.661 136.516 114.897 136.788 115.193 136.98C115.497 137.172 115.841 137.268 116.225 137.268Z" fill="#524B6B"/>
<path d="M142.536 130.465L135.465 137.536" stroke="#150A33" stroke-width="1.5" stroke-linecap="round"/>
<path d="M142.536 137.535L135.465 130.464" stroke="#150A33" stroke-width="1.5" stroke-linecap="round"/>
<path d="M20 218C20 212.477 24.4772 208 30 208H137C142.523 208 147 212.477 147 218V234C147 239.523 142.523 244 137 244H30C24.4772 244 20 239.523 20 234V218Z" fill="#FCA34D"/>
<path d="M38.4863 222.434C39.1895 222.434 39.7695 222.521 40.2266 222.697C40.6875 222.869 41.0312 223.133 41.2578 223.488C41.4844 223.844 41.5977 224.297 41.5977 224.848C41.5977 225.301 41.5156 225.68 41.3516 225.984C41.1875 226.285 40.9727 226.529 40.707 226.717C40.4414 226.904 40.1582 227.049 39.8574 227.15L42.207 231H41.0469L38.9492 227.426H37.168V231H36.1719V222.434H38.4863ZM38.4277 223.295H37.168V226.582H38.5273C39.2266 226.582 39.7402 226.439 40.0684 226.154C40.4004 225.869 40.5664 225.449 40.5664 224.895C40.5664 224.312 40.3906 223.9 40.0391 223.658C39.6914 223.416 39.1543 223.295 38.4277 223.295ZM45.9043 224.461C46.4512 224.461 46.9199 224.582 47.3105 224.824C47.7012 225.066 48 225.406 48.207 225.844C48.4141 226.277 48.5176 226.785 48.5176 227.367V227.971H44.082C44.0938 228.725 44.2812 229.299 44.6445 229.693C45.0078 230.088 45.5195 230.285 46.1797 230.285C46.5859 230.285 46.9453 230.248 47.2578 230.174C47.5703 230.1 47.8945 229.99 48.2305 229.846V230.701C47.9062 230.846 47.584 230.951 47.2637 231.018C46.9473 231.084 46.5723 231.117 46.1387 231.117C45.5215 231.117 44.9824 230.992 44.5215 230.742C44.0645 230.488 43.709 230.117 43.4551 229.629C43.2012 229.141 43.0742 228.543 43.0742 227.836C43.0742 227.145 43.1895 226.547 43.4199 226.043C43.6543 225.535 43.9824 225.145 44.4043 224.871C44.8301 224.598 45.3301 224.461 45.9043 224.461ZM45.8926 225.258C45.373 225.258 44.959 225.428 44.6504 225.768C44.3418 226.107 44.1582 226.582 44.0996 227.191H47.498C47.4941 226.809 47.4336 226.473 47.3164 226.184C47.2031 225.891 47.0293 225.664 46.7949 225.504C46.5605 225.34 46.2598 225.258 45.8926 225.258ZM54.3242 229.242C54.3242 229.652 54.2207 229.998 54.0137 230.279C53.8105 230.557 53.5176 230.766 53.1348 230.906C52.7559 231.047 52.3027 231.117 51.7754 231.117C51.3262 231.117 50.9375 231.082 50.6094 231.012C50.2812 230.941 49.9941 230.842 49.748 230.713V229.816C50.0098 229.945 50.3223 230.062 50.6855 230.168C51.0488 230.273 51.4199 230.326 51.7988 230.326C52.3535 230.326 52.7559 230.236 53.0059 230.057C53.2559 229.877 53.3809 229.633 53.3809 229.324C53.3809 229.148 53.3301 228.994 53.2285 228.861C53.1309 228.725 52.9648 228.594 52.7305 228.469C52.4961 228.34 52.1719 228.199 51.7578 228.047C51.3477 227.891 50.9922 227.736 50.6914 227.584C50.3945 227.428 50.1641 227.238 50 227.016C49.8398 226.793 49.7598 226.504 49.7598 226.148C49.7598 225.605 49.9785 225.189 50.416 224.9C50.8574 224.607 51.4355 224.461 52.1504 224.461C52.5371 224.461 52.8984 224.5 53.2344 224.578C53.5742 224.652 53.8906 224.754 54.1836 224.883L53.8555 225.662C53.5898 225.549 53.3066 225.453 53.0059 225.375C52.7051 225.297 52.3984 225.258 52.0859 225.258C51.6367 225.258 51.291 225.332 51.0488 225.48C50.8105 225.629 50.6914 225.832 50.6914 226.09C50.6914 226.289 50.7461 226.453 50.8555 226.582C50.9688 226.711 51.1484 226.832 51.3945 226.945C51.6406 227.059 51.9648 227.191 52.3672 227.344C52.7695 227.492 53.1172 227.646 53.4102 227.807C53.7031 227.963 53.9277 228.154 54.084 228.381C54.2441 228.604 54.3242 228.891 54.3242 229.242ZM58.9062 224.461C59.707 224.461 60.3457 224.736 60.8223 225.287C61.2988 225.838 61.5371 226.666 61.5371 227.771C61.5371 228.502 61.4277 229.115 61.209 229.611C60.9902 230.107 60.6816 230.482 60.2832 230.736C59.8887 230.99 59.4219 231.117 58.8828 231.117C58.543 231.117 58.2441 231.072 57.9863 230.982C57.7285 230.893 57.5078 230.771 57.3242 230.619C57.1406 230.467 56.9883 230.301 56.8672 230.121H56.7969C56.8086 230.273 56.8223 230.457 56.8379 230.672C56.8574 230.887 56.8672 231.074 56.8672 231.234V233.871H55.8887V224.578H56.6914L56.8203 225.527H56.8672C56.9922 225.332 57.1445 225.154 57.3242 224.994C57.5039 224.83 57.7227 224.701 57.9805 224.607C58.2422 224.51 58.5508 224.461 58.9062 224.461ZM58.7363 225.281C58.291 225.281 57.9316 225.367 57.6582 225.539C57.3887 225.711 57.1914 225.969 57.0664 226.312C56.9414 226.652 56.875 227.08 56.8672 227.596V227.783C56.8672 228.326 56.9258 228.785 57.043 229.16C57.1641 229.535 57.3613 229.82 57.6348 230.016C57.9121 230.211 58.2832 230.309 58.748 230.309C59.1465 230.309 59.4785 230.201 59.7441 229.986C60.0098 229.771 60.207 229.473 60.3359 229.09C60.4688 228.703 60.5352 228.26 60.5352 227.76C60.5352 227.002 60.3867 226.4 60.0898 225.955C59.7969 225.506 59.3457 225.281 58.7363 225.281ZM68.7734 227.777C68.7734 228.305 68.7051 228.775 68.5684 229.189C68.4316 229.604 68.2344 229.953 67.9766 230.238C67.7188 230.523 67.4062 230.742 67.0391 230.895C66.6758 231.043 66.2637 231.117 65.8027 231.117C65.373 231.117 64.9785 231.043 64.6191 230.895C64.2637 230.742 63.9551 230.523 63.6934 230.238C63.4355 229.953 63.2344 229.604 63.0898 229.189C62.9492 228.775 62.8789 228.305 62.8789 227.777C62.8789 227.074 62.998 226.477 63.2363 225.984C63.4746 225.488 63.8145 225.111 64.2559 224.854C64.7012 224.592 65.2305 224.461 65.8438 224.461C66.4297 224.461 66.9414 224.592 67.3789 224.854C67.8203 225.115 68.1621 225.494 68.4043 225.99C68.6504 226.482 68.7734 227.078 68.7734 227.777ZM63.8867 227.777C63.8867 228.293 63.9551 228.74 64.0918 229.119C64.2285 229.498 64.4395 229.791 64.7246 229.998C65.0098 230.205 65.377 230.309 65.8262 230.309C66.2715 230.309 66.6367 230.205 66.9219 229.998C67.2109 229.791 67.4238 229.498 67.5605 229.119C67.6973 228.74 67.7656 228.293 67.7656 227.777C67.7656 227.266 67.6973 226.824 67.5605 226.453C67.4238 226.078 67.2129 225.789 66.9277 225.586C66.6426 225.383 66.2734 225.281 65.8203 225.281C65.1523 225.281 64.6621 225.502 64.3496 225.943C64.041 226.385 63.8867 226.996 63.8867 227.777ZM73.4961 224.461C74.2578 224.461 74.834 224.648 75.2246 225.023C75.6152 225.395 75.8105 225.992 75.8105 226.816V231H74.8496V226.881C74.8496 226.346 74.7266 225.945 74.4805 225.68C74.2383 225.414 73.8652 225.281 73.3613 225.281C72.6504 225.281 72.1504 225.482 71.8613 225.885C71.5723 226.287 71.4277 226.871 71.4277 227.637V231H70.4551V224.578H71.2402L71.3867 225.504H71.4395C71.5762 225.277 71.75 225.088 71.9609 224.936C72.1719 224.779 72.4082 224.662 72.6699 224.584C72.9316 224.502 73.207 224.461 73.4961 224.461ZM81.9688 229.242C81.9688 229.652 81.8652 229.998 81.6582 230.279C81.4551 230.557 81.1621 230.766 80.7793 230.906C80.4004 231.047 79.9473 231.117 79.4199 231.117C78.9707 231.117 78.582 231.082 78.2539 231.012C77.9258 230.941 77.6387 230.842 77.3926 230.713V229.816C77.6543 229.945 77.9668 230.062 78.3301 230.168C78.6934 230.273 79.0645 230.326 79.4434 230.326C79.998 230.326 80.4004 230.236 80.6504 230.057C80.9004 229.877 81.0254 229.633 81.0254 229.324C81.0254 229.148 80.9746 228.994 80.873 228.861C80.7754 228.725 80.6094 228.594 80.375 228.469C80.1406 228.34 79.8164 228.199 79.4023 228.047C78.9922 227.891 78.6367 227.736 78.3359 227.584C78.0391 227.428 77.8086 227.238 77.6445 227.016C77.4844 226.793 77.4043 226.504 77.4043 226.148C77.4043 225.605 77.623 225.189 78.0605 224.9C78.502 224.607 79.0801 224.461 79.7949 224.461C80.1816 224.461 80.543 224.5 80.8789 224.578C81.2188 224.652 81.5352 224.754 81.8281 224.883L81.5 225.662C81.2344 225.549 80.9512 225.453 80.6504 225.375C80.3496 225.297 80.043 225.258 79.7305 225.258C79.2812 225.258 78.9355 225.332 78.6934 225.48C78.4551 225.629 78.3359 225.832 78.3359 226.09C78.3359 226.289 78.3906 226.453 78.5 226.582C78.6133 226.711 78.793 226.832 79.0391 226.945C79.2852 227.059 79.6094 227.191 80.0117 227.344C80.4141 227.492 80.7617 227.646 81.0547 227.807C81.3477 227.963 81.5723 228.154 81.7285 228.381C81.8887 228.604 81.9688 228.891 81.9688 229.242ZM84.5059 224.578V231H83.5332V224.578H84.5059ZM84.0312 222.176C84.1914 222.176 84.3281 222.229 84.4414 222.334C84.5586 222.436 84.6172 222.596 84.6172 222.814C84.6172 223.029 84.5586 223.189 84.4414 223.295C84.3281 223.4 84.1914 223.453 84.0312 223.453C83.8633 223.453 83.7227 223.4 83.6094 223.295C83.5 223.189 83.4453 223.029 83.4453 222.814C83.4453 222.596 83.5 222.436 83.6094 222.334C83.7227 222.229 83.8633 222.176 84.0312 222.176ZM87.541 221.883V224.162C87.541 224.424 87.5332 224.678 87.5176 224.924C87.5059 225.17 87.4961 225.361 87.4883 225.498H87.541C87.7168 225.209 87.9707 224.965 88.3027 224.766C88.6348 224.566 89.0586 224.467 89.5742 224.467C90.3789 224.467 91.0195 224.746 91.4961 225.305C91.9766 225.859 92.2168 226.686 92.2168 227.783C92.2168 228.506 92.1074 229.115 91.8887 229.611C91.6699 230.107 91.3613 230.482 90.9629 230.736C90.5645 230.99 90.0938 231.117 89.5508 231.117C89.043 231.117 88.625 231.023 88.2969 230.836C87.9727 230.645 87.7227 230.412 87.5469 230.139H87.4707L87.2715 231H86.5684V221.883H87.541ZM89.416 225.281C88.9512 225.281 88.582 225.373 88.3086 225.557C88.0352 225.736 87.8379 226.01 87.7168 226.377C87.5996 226.74 87.541 227.201 87.541 227.76V227.812C87.541 228.621 87.6758 229.24 87.9453 229.67C88.2148 230.096 88.7051 230.309 89.416 230.309C90.0137 230.309 90.4609 230.09 90.7578 229.652C91.0586 229.215 91.209 228.59 91.209 227.777C91.209 226.949 91.0605 226.326 90.7637 225.908C90.4707 225.49 90.0215 225.281 89.416 225.281ZM94.8887 224.578V231H93.916V224.578H94.8887ZM94.4141 222.176C94.5742 222.176 94.7109 222.229 94.8242 222.334C94.9414 222.436 95 222.596 95 222.814C95 223.029 94.9414 223.189 94.8242 223.295C94.7109 223.4 94.5742 223.453 94.4141 223.453C94.2461 223.453 94.1055 223.4 93.9922 223.295C93.8828 223.189 93.8281 223.029 93.8281 222.814C93.8281 222.596 93.8828 222.436 93.9922 222.334C94.1055 222.229 94.2461 222.176 94.4141 222.176ZM97.9297 231H96.9512V221.883H97.9297V231ZM100.959 224.578V231H99.9863V224.578H100.959ZM100.484 222.176C100.645 222.176 100.781 222.229 100.895 222.334C101.012 222.436 101.07 222.596 101.07 222.814C101.07 223.029 101.012 223.189 100.895 223.295C100.781 223.4 100.645 223.453 100.484 223.453C100.316 223.453 100.176 223.4 100.062 223.295C99.9531 223.189 99.8984 223.029 99.8984 222.814C99.8984 222.596 99.9531 222.436 100.062 222.334C100.176 222.229 100.316 222.176 100.484 222.176ZM105.096 230.32C105.256 230.32 105.42 230.307 105.588 230.279C105.756 230.252 105.893 230.219 105.998 230.18V230.936C105.885 230.986 105.727 231.029 105.523 231.064C105.324 231.1 105.129 231.117 104.938 231.117C104.598 231.117 104.289 231.059 104.012 230.941C103.734 230.82 103.512 230.617 103.344 230.332C103.18 230.047 103.098 229.652 103.098 229.148V225.34H102.184V224.865L103.104 224.484L103.49 223.09H104.076V224.578H105.957V225.34H104.076V229.119C104.076 229.521 104.168 229.822 104.352 230.021C104.539 230.221 104.787 230.32 105.096 230.32ZM106.285 224.578H107.328L108.746 228.305C108.828 228.523 108.904 228.734 108.975 228.938C109.045 229.137 109.107 229.328 109.162 229.512C109.217 229.695 109.26 229.873 109.291 230.045H109.332C109.387 229.85 109.465 229.594 109.566 229.277C109.668 228.957 109.777 228.631 109.895 228.299L111.236 224.578H112.285L109.49 231.943C109.342 232.338 109.168 232.682 108.969 232.975C108.773 233.268 108.535 233.492 108.254 233.648C107.973 233.809 107.633 233.889 107.234 233.889C107.051 233.889 106.889 233.877 106.748 233.854C106.607 233.834 106.486 233.811 106.385 233.783V233.004C106.471 233.023 106.574 233.041 106.695 233.057C106.82 233.072 106.949 233.08 107.082 233.08C107.324 233.08 107.533 233.033 107.709 232.939C107.889 232.85 108.043 232.717 108.172 232.541C108.301 232.365 108.412 232.156 108.506 231.914L108.857 231.012L106.285 224.578Z" fill="white"/>
<path d="M133.536 222.465L126.465 229.536" stroke="white" stroke-width="1.5" stroke-linecap="round"/>
<path d="M133.536 229.535L126.465 222.464" stroke="white" stroke-width="1.5" stroke-linecap="round"/>
<path opacity="0.2" d="M20 172C20 166.477 24.4772 162 30 162H210C215.523 162 220 166.477 220 172V188C220 193.523 215.523 198 210 198H30C24.4772 198 20 193.523 20 188V172Z" fill="#CBC9D5"/>
<path d="M39.512 184.144C38.728 184.144 38.04 183.964 37.448 183.604C36.856 183.236 36.396 182.728 36.068 182.08C35.74 181.432 35.576 180.676 35.576 179.812C35.576 178.956 35.74 178.2 36.068 177.544C36.404 176.888 36.876 176.376 37.484 176.008C38.1 175.64 38.824 175.456 39.656 175.456C40.6 175.456 41.388 175.684 42.02 176.14C42.652 176.588 43.056 177.216 43.232 178.024H42.068C41.956 177.52 41.692 177.12 41.276 176.824C40.86 176.528 40.32 176.38 39.656 176.38C39.04 176.38 38.5 176.52 38.036 176.8C37.58 177.072 37.228 177.464 36.98 177.976C36.732 178.488 36.608 179.1 36.608 179.812C36.608 180.524 36.732 181.14 36.98 181.66C37.228 182.172 37.572 182.564 38.012 182.836C38.46 183.108 38.972 183.244 39.548 183.244C40.444 183.244 41.12 182.98 41.576 182.452C42.032 181.924 42.292 181.208 42.356 180.304H39.932V179.512H43.388V184H42.464L42.38 182.62C42.18 182.948 41.948 183.228 41.684 183.46C41.428 183.684 41.124 183.856 40.772 183.976C40.42 184.088 40 184.144 39.512 184.144ZM47.6692 184.144C47.0932 184.144 46.5812 184.012 46.1332 183.748C45.6852 183.484 45.3332 183.112 45.0772 182.632C44.8292 182.144 44.7052 181.576 44.7052 180.928C44.7052 180.272 44.8332 179.704 45.0892 179.224C45.3452 178.744 45.6972 178.372 46.1452 178.108C46.6012 177.836 47.1172 177.7 47.6932 177.7C48.2692 177.7 48.7812 177.836 49.2292 178.108C49.6772 178.372 50.0252 178.744 50.2732 179.224C50.5292 179.704 50.6572 180.272 50.6572 180.928C50.6572 181.576 50.5292 182.144 50.2732 182.632C50.0172 183.112 49.6612 183.484 49.2052 183.748C48.7572 184.012 48.2452 184.144 47.6692 184.144ZM47.6692 183.28C48.0292 183.28 48.3572 183.192 48.6532 183.016C48.9492 182.84 49.1852 182.576 49.3612 182.224C49.5372 181.872 49.6252 181.44 49.6252 180.928C49.6252 180.4 49.5372 179.964 49.3612 179.62C49.1932 179.268 48.9612 179.004 48.6652 178.828C48.3692 178.652 48.0452 178.564 47.6932 178.564C47.3412 178.564 47.0172 178.652 46.7212 178.828C46.4252 179.004 46.1852 179.268 46.0012 179.62C45.8252 179.964 45.7372 180.4 45.7372 180.928C45.7372 181.44 45.8252 181.872 46.0012 182.224C46.1772 182.576 46.4092 182.84 46.6972 183.016C46.9932 183.192 47.3172 183.28 47.6692 183.28ZM54.8059 184.144C54.2299 184.144 53.7179 184.012 53.2699 183.748C52.8219 183.484 52.4699 183.112 52.2139 182.632C51.9659 182.144 51.8419 181.576 51.8419 180.928C51.8419 180.272 51.9699 179.704 52.2259 179.224C52.4819 178.744 52.8339 178.372 53.2819 178.108C53.7379 177.836 54.2539 177.7 54.8299 177.7C55.4059 177.7 55.9179 177.836 56.3659 178.108C56.8139 178.372 57.1619 178.744 57.4099 179.224C57.6659 179.704 57.7939 180.272 57.7939 180.928C57.7939 181.576 57.6659 182.144 57.4099 182.632C57.1539 183.112 56.7979 183.484 56.3419 183.748C55.8939 184.012 55.3819 184.144 54.8059 184.144ZM54.8059 183.28C55.1659 183.28 55.4939 183.192 55.7899 183.016C56.0859 182.84 56.3219 182.576 56.4979 182.224C56.6739 181.872 56.7619 181.44 56.7619 180.928C56.7619 180.4 56.6739 179.964 56.4979 179.62C56.3299 179.268 56.0979 179.004 55.8019 178.828C55.5059 178.652 55.1819 178.564 54.8299 178.564C54.4779 178.564 54.1539 178.652 53.8579 178.828C53.5619 179.004 53.3219 179.268 53.1379 179.62C52.9619 179.964 52.8739 180.4 52.8739 180.928C52.8739 181.44 52.9619 181.872 53.1379 182.224C53.3139 182.576 53.5459 182.84 53.8339 183.016C54.1299 183.192 54.4539 183.28 54.8059 183.28ZM61.8826 184.144C61.3066 184.144 60.7986 184.004 60.3586 183.724C59.9266 183.444 59.5866 183.06 59.3386 182.572C59.0986 182.084 58.9786 181.532 58.9786 180.916C58.9786 180.292 59.0986 179.74 59.3386 179.26C59.5866 178.78 59.9266 178.4 60.3586 178.12C60.7986 177.84 61.3106 177.7 61.8946 177.7C62.3826 177.7 62.8106 177.8 63.1786 178C63.5466 178.2 63.8306 178.48 64.0306 178.84V175.36H65.0386V184H64.1266L64.0426 183.004C63.9226 183.196 63.7626 183.38 63.5626 183.556C63.3626 183.732 63.1226 183.876 62.8426 183.988C62.5706 184.092 62.2506 184.144 61.8826 184.144ZM62.0026 183.268C62.4026 183.268 62.7506 183.172 63.0466 182.98C63.3506 182.788 63.5826 182.516 63.7426 182.164C63.9106 181.812 63.9946 181.4 63.9946 180.928C63.9946 180.448 63.9106 180.036 63.7426 179.692C63.5826 179.34 63.3506 179.068 63.0466 178.876C62.7506 178.676 62.4026 178.576 62.0026 178.576C61.6186 178.576 61.2746 178.676 60.9706 178.876C60.6746 179.068 60.4386 179.34 60.2626 179.692C60.0946 180.036 60.0106 180.448 60.0106 180.928C60.0106 181.4 60.0946 181.812 60.2626 182.164C60.4386 182.516 60.6746 182.788 60.9706 182.98C61.2746 183.172 61.6186 183.268 62.0026 183.268ZM72.6658 184.144C72.0898 184.144 71.5738 184.012 71.1178 183.748C70.6698 183.476 70.3178 183.1 70.0618 182.62C69.8058 182.132 69.6778 181.568 69.6778 180.928C69.6778 180.28 69.8058 179.716 70.0618 179.236C70.3178 178.756 70.6698 178.38 71.1178 178.108C71.5738 177.836 72.0898 177.7 72.6658 177.7C73.3778 177.7 73.9738 177.892 74.4538 178.276C74.9418 178.652 75.2498 179.156 75.3778 179.788H74.3458C74.2658 179.404 74.0658 179.104 73.7458 178.888C73.4338 178.672 73.0698 178.564 72.6538 178.564C72.2938 178.564 71.9658 178.656 71.6698 178.84C71.3818 179.016 71.1498 179.28 70.9738 179.632C70.7978 179.976 70.7098 180.408 70.7098 180.928C70.7098 181.312 70.7578 181.652 70.8538 181.948C70.9578 182.244 71.0978 182.492 71.2738 182.692C71.4498 182.892 71.6538 183.044 71.8858 183.148C72.1258 183.244 72.3818 183.292 72.6538 183.292C72.9338 183.292 73.1898 183.244 73.4218 183.148C73.6618 183.052 73.8618 182.912 74.0218 182.728C74.1818 182.544 74.2898 182.324 74.3458 182.068H75.3778C75.2498 182.684 74.9418 183.184 74.4538 183.568C73.9738 183.952 73.3778 184.144 72.6658 184.144ZM79.5325 184.144C78.9565 184.144 78.4445 184.012 77.9965 183.748C77.5485 183.484 77.1965 183.112 76.9405 182.632C76.6925 182.144 76.5685 181.576 76.5685 180.928C76.5685 180.272 76.6965 179.704 76.9525 179.224C77.2085 178.744 77.5605 178.372 78.0085 178.108C78.4645 177.836 78.9805 177.7 79.5565 177.7C80.1325 177.7 80.6445 177.836 81.0925 178.108C81.5405 178.372 81.8885 178.744 82.1365 179.224C82.3925 179.704 82.5205 180.272 82.5205 180.928C82.5205 181.576 82.3925 182.144 82.1365 182.632C81.8805 183.112 81.5245 183.484 81.0685 183.748C80.6205 184.012 80.1085 184.144 79.5325 184.144ZM79.5325 183.28C79.8925 183.28 80.2205 183.192 80.5165 183.016C80.8125 182.84 81.0485 182.576 81.2245 182.224C81.4005 181.872 81.4885 181.44 81.4885 180.928C81.4885 180.4 81.4005 179.964 81.2245 179.62C81.0565 179.268 80.8245 179.004 80.5285 178.828C80.2325 178.652 79.9085 178.564 79.5565 178.564C79.2045 178.564 78.8805 178.652 78.5845 178.828C78.2885 179.004 78.0485 179.268 77.8645 179.62C77.6885 179.964 77.6005 180.4 77.6005 180.928C77.6005 181.44 77.6885 181.872 77.8645 182.224C78.0405 182.576 78.2725 182.84 78.5605 183.016C78.8565 183.192 79.1805 183.28 79.5325 183.28ZM83.9572 184V177.844H84.8692L84.9292 178.708C85.1212 178.396 85.3772 178.152 85.6972 177.976C86.0252 177.792 86.3772 177.7 86.7532 177.7C87.0652 177.7 87.3452 177.744 87.5932 177.832C87.8412 177.912 88.0572 178.04 88.2412 178.216C88.4332 178.384 88.5892 178.6 88.7092 178.864C88.9172 178.488 89.2012 178.2 89.5612 178C89.9212 177.8 90.3052 177.7 90.7132 177.7C91.1772 177.7 91.5772 177.792 91.9132 177.976C92.2572 178.16 92.5212 178.44 92.7052 178.816C92.8972 179.192 92.9932 179.664 92.9932 180.232V184H91.9972V180.34C91.9972 179.748 91.8732 179.304 91.6252 179.008C91.3772 178.712 91.0292 178.564 90.5812 178.564C90.2852 178.564 90.0132 178.644 89.7652 178.804C89.5252 178.964 89.3332 179.2 89.1892 179.512C89.0452 179.816 88.9732 180.188 88.9732 180.628V184H87.9652V180.34C87.9652 179.748 87.8412 179.304 87.5932 179.008C87.3452 178.712 87.0052 178.564 86.5732 178.564C86.2772 178.564 86.0052 178.644 85.7572 178.804C85.5172 178.964 85.3252 179.2 85.1812 179.512C85.0372 179.816 84.9652 180.188 84.9652 180.628V184H83.9572ZM94.5861 184V177.844H95.4981L95.5581 178.708C95.7501 178.396 96.0061 178.152 96.3261 177.976C96.6541 177.792 97.0061 177.7 97.3821 177.7C97.6941 177.7 97.9741 177.744 98.2221 177.832C98.4701 177.912 98.6861 178.04 98.8701 178.216C99.0621 178.384 99.2181 178.6 99.3381 178.864C99.5461 178.488 99.8301 178.2 100.19 178C100.55 177.8 100.934 177.7 101.342 177.7C101.806 177.7 102.206 177.792 102.542 177.976C102.886 178.16 103.15 178.44 103.334 178.816C103.526 179.192 103.622 179.664 103.622 180.232V184H102.626V180.34C102.626 179.748 102.502 179.304 102.254 179.008C102.006 178.712 101.658 178.564 101.21 178.564C100.914 178.564 100.642 178.644 100.394 178.804C100.154 178.964 99.9621 179.2 99.8181 179.512C99.6741 179.816 99.6021 180.188 99.6021 180.628V184H98.5941V180.34C98.5941 179.748 98.4701 179.304 98.2221 179.008C97.9741 178.712 97.6341 178.564 97.2021 178.564C96.9061 178.564 96.6341 178.644 96.3861 178.804C96.1461 178.964 95.9541 179.2 95.8101 179.512C95.6661 179.816 95.5941 180.188 95.5941 180.628V184H94.5861ZM107.447 184.144C106.983 184.144 106.575 184.056 106.223 183.88C105.879 183.696 105.611 183.416 105.419 183.04C105.235 182.664 105.143 182.192 105.143 181.624V177.844H106.151V181.516C106.151 182.108 106.283 182.552 106.547 182.848C106.819 183.136 107.191 183.28 107.663 183.28C107.999 183.28 108.299 183.204 108.563 183.052C108.827 182.892 109.035 182.66 109.187 182.356C109.347 182.052 109.427 181.684 109.427 181.252V177.844H110.435V184H109.523L109.463 182.968C109.279 183.336 109.011 183.624 108.659 183.832C108.307 184.04 107.903 184.144 107.447 184.144ZM112.117 184V177.844H113.029L113.089 178.876C113.273 178.508 113.541 178.22 113.893 178.012C114.245 177.804 114.649 177.7 115.105 177.7C115.577 177.7 115.985 177.792 116.329 177.976C116.673 178.16 116.941 178.44 117.133 178.816C117.325 179.184 117.421 179.652 117.421 180.22V184H116.413V180.328C116.413 179.744 116.277 179.304 116.005 179.008C115.733 178.712 115.357 178.564 114.877 178.564C114.557 178.564 114.261 178.644 113.989 178.804C113.725 178.964 113.513 179.196 113.353 179.5C113.201 179.796 113.125 180.164 113.125 180.604V184H112.117ZM119.128 184V177.844H120.136V184H119.128ZM119.632 176.596C119.432 176.596 119.264 176.532 119.128 176.404C119 176.268 118.936 176.1 118.936 175.9C118.936 175.7 119 175.54 119.128 175.42C119.264 175.292 119.432 175.228 119.632 175.228C119.824 175.228 119.988 175.292 120.124 175.42C120.26 175.54 120.328 175.7 120.328 175.9C120.328 176.1 120.26 176.268 120.124 176.404C119.988 176.532 119.824 176.596 119.632 176.596ZM124.639 184.144C124.063 184.144 123.547 184.012 123.091 183.748C122.643 183.476 122.291 183.1 122.035 182.62C121.779 182.132 121.651 181.568 121.651 180.928C121.651 180.28 121.779 179.716 122.035 179.236C122.291 178.756 122.643 178.38 123.091 178.108C123.547 177.836 124.063 177.7 124.639 177.7C125.351 177.7 125.947 177.892 126.427 178.276C126.915 178.652 127.223 179.156 127.351 179.788H126.319C126.239 179.404 126.039 179.104 125.719 178.888C125.407 178.672 125.043 178.564 124.627 178.564C124.267 178.564 123.939 178.656 123.643 178.84C123.355 179.016 123.123 179.28 122.947 179.632C122.771 179.976 122.683 180.408 122.683 180.928C122.683 181.312 122.731 181.652 122.826 181.948C122.931 182.244 123.071 182.492 123.247 182.692C123.423 182.892 123.627 183.044 123.859 183.148C124.099 183.244 124.355 183.292 124.627 183.292C124.907 183.292 125.163 183.244 125.395 183.148C125.635 183.052 125.835 182.912 125.995 182.728C126.155 182.544 126.263 182.324 126.319 182.068H127.351C127.223 182.684 126.915 183.184 126.427 183.568C125.947 183.952 125.351 184.144 124.639 184.144ZM130.773 184.144C130.285 184.144 129.877 184.056 129.549 183.88C129.229 183.704 128.989 183.472 128.829 183.184C128.669 182.896 128.589 182.58 128.589 182.236C128.589 181.828 128.693 181.48 128.901 181.192C129.117 180.904 129.417 180.688 129.801 180.544C130.185 180.392 130.637 180.316 131.157 180.316H132.741C132.741 179.924 132.689 179.6 132.585 179.344C132.481 179.08 132.317 178.884 132.093 178.756C131.877 178.62 131.601 178.552 131.265 178.552C130.889 178.552 130.565 178.648 130.293 178.84C130.021 179.024 129.853 179.3 129.789 179.668H128.757C128.805 179.244 128.949 178.888 129.189 178.6C129.429 178.304 129.733 178.08 130.101 177.928C130.469 177.776 130.857 177.7 131.265 177.7C131.825 177.7 132.289 177.804 132.657 178.012C133.025 178.212 133.297 178.496 133.473 178.864C133.657 179.224 133.749 179.652 133.749 180.148V184H132.849L132.789 182.92C132.709 183.088 132.605 183.248 132.477 183.4C132.357 183.544 132.213 183.672 132.045 183.784C131.885 183.896 131.697 183.984 131.481 184.048C131.265 184.112 131.029 184.144 130.773 184.144ZM130.917 183.292C131.189 183.292 131.437 183.232 131.661 183.112C131.893 182.992 132.089 182.832 132.249 182.632C132.409 182.432 132.529 182.208 132.609 181.96C132.697 181.704 132.741 181.44 132.741 181.168V181.096H131.241C130.857 181.096 130.545 181.144 130.305 181.24C130.073 181.328 129.905 181.456 129.801 181.624C129.697 181.792 129.645 181.98 129.645 182.188C129.645 182.412 129.693 182.608 129.789 182.776C129.885 182.936 130.029 183.064 130.221 183.16C130.413 183.248 130.645 183.292 130.917 183.292ZM137.604 184C137.244 184 136.932 183.944 136.668 183.832C136.404 183.72 136.2 183.532 136.056 183.268C135.92 182.996 135.852 182.632 135.852 182.176V178.696H134.772V177.844H135.852L135.984 176.344H136.86V177.844H138.624V178.696H136.86V182.176C136.86 182.552 136.936 182.808 137.088 182.944C137.24 183.072 137.508 183.136 137.892 183.136H138.564V184H137.604ZM140.069 184V177.844H141.077V184H140.069ZM140.573 176.596C140.373 176.596 140.205 176.532 140.069 176.404C139.941 176.268 139.877 176.1 139.877 175.9C139.877 175.7 139.941 175.54 140.069 175.42C140.205 175.292 140.373 175.228 140.573 175.228C140.765 175.228 140.929 175.292 141.065 175.42C141.201 175.54 141.269 175.7 141.269 175.9C141.269 176.1 141.201 176.268 141.065 176.404C140.929 176.532 140.765 176.596 140.573 176.596ZM145.556 184.144C144.98 184.144 144.468 184.012 144.02 183.748C143.572 183.484 143.22 183.112 142.964 182.632C142.716 182.144 142.592 181.576 142.592 180.928C142.592 180.272 142.72 179.704 142.976 179.224C143.232 178.744 143.584 178.372 144.032 178.108C144.488 177.836 145.004 177.7 145.58 177.7C146.156 177.7 146.668 177.836 147.116 178.108C147.564 178.372 147.912 178.744 148.16 179.224C148.416 179.704 148.544 180.272 148.544 180.928C148.544 181.576 148.416 182.144 148.16 182.632C147.904 183.112 147.548 183.484 147.092 183.748C146.644 184.012 146.132 184.144 145.556 184.144ZM145.556 183.28C145.916 183.28 146.244 183.192 146.54 183.016C146.836 182.84 147.072 182.576 147.248 182.224C147.424 181.872 147.512 181.44 147.512 180.928C147.512 180.4 147.424 179.964 147.248 179.62C147.08 179.268 146.848 179.004 146.552 178.828C146.256 178.652 145.932 178.564 145.58 178.564C145.228 178.564 144.904 178.652 144.608 178.828C144.312 179.004 144.072 179.268 143.888 179.62C143.712 179.964 143.624 180.4 143.624 180.928C143.624 181.44 143.712 181.872 143.888 182.224C144.064 182.576 144.296 182.84 144.584 183.016C144.88 183.192 145.204 183.28 145.556 183.28ZM149.981 184V177.844H150.893L150.953 178.876C151.137 178.508 151.405 178.22 151.757 178.012C152.109 177.804 152.513 177.7 152.969 177.7C153.441 177.7 153.849 177.792 154.193 177.976C154.537 178.16 154.805 178.44 154.997 178.816C155.189 179.184 155.285 179.652 155.285 180.22V184H154.277V180.328C154.277 179.744 154.141 179.304 153.869 179.008C153.597 178.712 153.221 178.564 152.741 178.564C152.421 178.564 152.125 178.644 151.853 178.804C151.589 178.964 151.377 179.196 151.217 179.5C151.065 179.796 150.989 180.164 150.989 180.604V184H149.981ZM162.362 184.144C161.834 184.144 161.382 184.06 161.006 183.892C160.638 183.724 160.35 183.488 160.142 183.184C159.934 182.88 159.806 182.524 159.758 182.116H160.79C160.83 182.324 160.91 182.52 161.03 182.704C161.158 182.88 161.33 183.024 161.546 183.136C161.77 183.24 162.046 183.292 162.374 183.292C162.654 183.292 162.886 183.252 163.07 183.172C163.262 183.084 163.402 182.968 163.49 182.824C163.586 182.672 163.634 182.508 163.634 182.332C163.634 182.076 163.574 181.88 163.454 181.744C163.342 181.608 163.174 181.504 162.95 181.432C162.734 181.352 162.466 181.288 162.146 181.24C161.842 181.192 161.558 181.128 161.294 181.048C161.038 180.96 160.81 180.848 160.61 180.712C160.418 180.576 160.266 180.408 160.154 180.208C160.05 180 159.998 179.752 159.998 179.464C159.998 179.12 160.086 178.816 160.262 178.552C160.446 178.288 160.702 178.08 161.03 177.928C161.366 177.776 161.762 177.7 162.218 177.7C162.874 177.7 163.402 177.856 163.802 178.168C164.202 178.48 164.438 178.928 164.51 179.512H163.514C163.474 179.216 163.338 178.984 163.106 178.816C162.882 178.64 162.582 178.552 162.206 178.552C161.814 178.552 161.518 178.628 161.318 178.78C161.118 178.932 161.018 179.132 161.018 179.38C161.018 179.556 161.066 179.712 161.162 179.848C161.266 179.976 161.426 180.088 161.642 180.184C161.866 180.272 162.146 180.344 162.482 180.4C162.906 180.464 163.282 180.556 163.61 180.676C163.938 180.796 164.198 180.98 164.39 181.228C164.582 181.468 164.674 181.808 164.666 182.248C164.674 182.632 164.582 182.968 164.39 183.256C164.198 183.544 163.93 183.764 163.586 183.916C163.242 184.068 162.834 184.144 162.362 184.144ZM169.861 184L166.981 180.652L169.645 177.844H170.881L167.833 181.012L167.845 180.292L171.145 184H169.861ZM166.141 184V175.36H167.149V184H166.141ZM172.307 184V177.844H173.315V184H172.307ZM172.811 176.596C172.611 176.596 172.443 176.532 172.307 176.404C172.179 176.268 172.115 176.1 172.115 175.9C172.115 175.7 172.179 175.54 172.307 175.42C172.443 175.292 172.611 175.228 172.811 175.228C173.003 175.228 173.167 175.292 173.303 175.42C173.439 175.54 173.507 175.7 173.507 175.9C173.507 176.1 173.439 176.268 173.303 176.404C173.167 176.532 173.003 176.596 172.811 176.596ZM175.082 184V175.36H176.09V184H175.082ZM177.766 184V175.36H178.774V184H177.766ZM182.729 184.144C182.201 184.144 181.749 184.06 181.373 183.892C181.005 183.724 180.717 183.488 180.509 183.184C180.301 182.88 180.173 182.524 180.125 182.116H181.157C181.197 182.324 181.277 182.52 181.397 182.704C181.525 182.88 181.697 183.024 181.913 183.136C182.137 183.24 182.413 183.292 182.741 183.292C183.021 183.292 183.253 183.252 183.437 183.172C183.629 183.084 183.769 182.968 183.857 182.824C183.953 182.672 184.001 182.508 184.001 182.332C184.001 182.076 183.941 181.88 183.821 181.744C183.709 181.608 183.541 181.504 183.317 181.432C183.101 181.352 182.833 181.288 182.513 181.24C182.209 181.192 181.925 181.128 181.661 181.048C181.405 180.96 181.177 180.848 180.977 180.712C180.785 180.576 180.633 180.408 180.521 180.208C180.417 180 180.365 179.752 180.365 179.464C180.365 179.12 180.453 178.816 180.629 178.552C180.813 178.288 181.069 178.08 181.397 177.928C181.733 177.776 182.129 177.7 182.585 177.7C183.241 177.7 183.769 177.856 184.169 178.168C184.569 178.48 184.805 178.928 184.877 179.512H183.881C183.841 179.216 183.705 178.984 183.473 178.816C183.249 178.64 182.949 178.552 182.573 178.552C182.181 178.552 181.885 178.628 181.685 178.78C181.485 178.932 181.385 179.132 181.385 179.38C181.385 179.556 181.433 179.712 181.529 179.848C181.633 179.976 181.793 180.088 182.009 180.184C182.233 180.272 182.513 180.344 182.849 180.4C183.273 180.464 183.649 180.556 183.977 180.676C184.305 180.796 184.565 180.98 184.757 181.228C184.949 181.468 185.041 181.808 185.033 182.248C185.041 182.632 184.949 182.968 184.757 183.256C184.565 183.544 184.297 183.764 183.953 183.916C183.609 184.068 183.201 184.144 182.729 184.144Z" fill="#524B6B"/>
<path d="M206.536 176.465L199.465 183.536" stroke="#150A33" stroke-width="1.5" stroke-linecap="round"/>
<path d="M206.536 183.535L199.465 176.464" stroke="#150A33" stroke-width="1.5" stroke-linecap="round"/>
<path opacity="0.2" d="M166 126C166 120.477 170.477 116 176 116H265C270.523 116 275 120.477 275 126V142C275 147.523 270.523 152 265 152H176C170.477 152 166 147.523 166 142V126Z" fill="#CBC9D5"/>
<path d="M185.512 138.144C184.704 138.144 184.004 137.964 183.412 137.604C182.828 137.236 182.376 136.728 182.056 136.08C181.736 135.424 181.576 134.664 181.576 133.8C181.576 132.936 181.736 132.18 182.056 131.532C182.376 130.876 182.828 130.368 183.412 130.008C184.004 129.64 184.704 129.456 185.512 129.456C186.472 129.456 187.248 129.684 187.84 130.14C188.44 130.596 188.824 131.24 188.992 132.072H187.888C187.752 131.552 187.488 131.136 187.096 130.824C186.712 130.504 186.184 130.344 185.512 130.344C184.928 130.344 184.416 130.484 183.976 130.764C183.536 131.036 183.196 131.432 182.956 131.952C182.724 132.464 182.608 133.08 182.608 133.8C182.608 134.52 182.724 135.14 182.956 135.66C183.196 136.172 183.536 136.568 183.976 136.848C184.416 137.12 184.928 137.256 185.512 137.256C186.184 137.256 186.712 137.104 187.096 136.8C187.488 136.488 187.752 136.076 187.888 135.564H188.992C188.824 136.372 188.44 137.004 187.84 137.46C187.248 137.916 186.472 138.144 185.512 138.144ZM193.118 138.144C192.542 138.144 192.03 138.012 191.582 137.748C191.134 137.484 190.782 137.112 190.526 136.632C190.278 136.144 190.154 135.576 190.154 134.928C190.154 134.272 190.282 133.704 190.538 133.224C190.794 132.744 191.146 132.372 191.594 132.108C192.05 131.836 192.566 131.7 193.142 131.7C193.718 131.7 194.23 131.836 194.678 132.108C195.126 132.372 195.474 132.744 195.722 133.224C195.978 133.704 196.106 134.272 196.106 134.928C196.106 135.576 195.978 136.144 195.722 136.632C195.466 137.112 195.11 137.484 194.654 137.748C194.206 138.012 193.694 138.144 193.118 138.144ZM193.118 137.28C193.478 137.28 193.806 137.192 194.102 137.016C194.398 136.84 194.634 136.576 194.81 136.224C194.986 135.872 195.074 135.44 195.074 134.928C195.074 134.4 194.986 133.964 194.81 133.62C194.642 133.268 194.41 133.004 194.114 132.828C193.818 132.652 193.494 132.564 193.142 132.564C192.79 132.564 192.466 132.652 192.17 132.828C191.874 133.004 191.634 133.268 191.45 133.62C191.274 133.964 191.186 134.4 191.186 134.928C191.186 135.44 191.274 135.872 191.45 136.224C191.626 136.576 191.858 136.84 192.146 137.016C192.442 137.192 192.766 137.28 193.118 137.28ZM197.543 138V131.844H198.455L198.515 132.876C198.699 132.508 198.967 132.22 199.319 132.012C199.671 131.804 200.075 131.7 200.531 131.7C201.003 131.7 201.411 131.792 201.755 131.976C202.099 132.16 202.367 132.44 202.559 132.816C202.751 133.184 202.847 133.652 202.847 134.22V138H201.839V134.328C201.839 133.744 201.703 133.304 201.431 133.008C201.159 132.712 200.783 132.564 200.303 132.564C199.983 132.564 199.687 132.644 199.415 132.804C199.151 132.964 198.939 133.196 198.779 133.5C198.627 133.796 198.551 134.164 198.551 134.604V138H197.543ZM206.725 138.144C206.197 138.144 205.745 138.06 205.369 137.892C205.001 137.724 204.713 137.488 204.505 137.184C204.297 136.88 204.169 136.524 204.121 136.116H205.153C205.193 136.324 205.273 136.52 205.393 136.704C205.521 136.88 205.693 137.024 205.909 137.136C206.133 137.24 206.409 137.292 206.737 137.292C207.017 137.292 207.249 137.252 207.433 137.172C207.625 137.084 207.765 136.968 207.853 136.824C207.949 136.672 207.997 136.508 207.997 136.332C207.997 136.076 207.937 135.88 207.817 135.744C207.705 135.608 207.537 135.504 207.313 135.432C207.097 135.352 206.829 135.288 206.509 135.24C206.205 135.192 205.921 135.128 205.657 135.048C205.401 134.96 205.173 134.848 204.973 134.712C204.781 134.576 204.629 134.408 204.517 134.208C204.413 134 204.361 133.752 204.361 133.464C204.361 133.12 204.449 132.816 204.625 132.552C204.809 132.288 205.065 132.08 205.393 131.928C205.729 131.776 206.125 131.7 206.581 131.7C207.237 131.7 207.765 131.856 208.165 132.168C208.565 132.48 208.801 132.928 208.873 133.512H207.877C207.837 133.216 207.701 132.984 207.469 132.816C207.245 132.64 206.945 132.552 206.569 132.552C206.177 132.552 205.881 132.628 205.681 132.78C205.481 132.932 205.381 133.132 205.381 133.38C205.381 133.556 205.429 133.712 205.525 133.848C205.629 133.976 205.789 134.088 206.005 134.184C206.229 134.272 206.509 134.344 206.845 134.4C207.269 134.464 207.645 134.556 207.973 134.676C208.301 134.796 208.561 134.98 208.753 135.228C208.945 135.468 209.037 135.808 209.029 136.248C209.037 136.632 208.945 136.968 208.753 137.256C208.561 137.544 208.293 137.764 207.949 137.916C207.605 138.068 207.197 138.144 206.725 138.144ZM210.612 138V131.844H211.62V138H210.612ZM211.116 130.596C210.916 130.596 210.748 130.532 210.612 130.404C210.484 130.268 210.42 130.1 210.42 129.9C210.42 129.7 210.484 129.54 210.612 129.42C210.748 129.292 210.916 129.228 211.116 129.228C211.308 129.228 211.472 129.292 211.608 129.42C211.744 129.54 211.812 129.7 211.812 129.9C211.812 130.1 211.744 130.268 211.608 130.404C211.472 130.532 211.308 130.596 211.116 130.596ZM215.667 138.144C215.139 138.144 214.687 138.06 214.311 137.892C213.943 137.724 213.655 137.488 213.447 137.184C213.239 136.88 213.111 136.524 213.063 136.116H214.095C214.135 136.324 214.215 136.52 214.335 136.704C214.463 136.88 214.635 137.024 214.851 137.136C215.075 137.24 215.351 137.292 215.679 137.292C215.959 137.292 216.191 137.252 216.375 137.172C216.567 137.084 216.707 136.968 216.795 136.824C216.891 136.672 216.939 136.508 216.939 136.332C216.939 136.076 216.879 135.88 216.759 135.744C216.647 135.608 216.479 135.504 216.255 135.432C216.039 135.352 215.771 135.288 215.451 135.24C215.147 135.192 214.863 135.128 214.599 135.048C214.343 134.96 214.115 134.848 213.915 134.712C213.723 134.576 213.571 134.408 213.459 134.208C213.355 134 213.303 133.752 213.303 133.464C213.303 133.12 213.391 132.816 213.567 132.552C213.751 132.288 214.007 132.08 214.335 131.928C214.671 131.776 215.067 131.7 215.523 131.7C216.179 131.7 216.707 131.856 217.107 132.168C217.507 132.48 217.743 132.928 217.815 133.512H216.819C216.779 133.216 216.643 132.984 216.411 132.816C216.187 132.64 215.887 132.552 215.511 132.552C215.119 132.552 214.823 132.628 214.623 132.78C214.423 132.932 214.323 133.132 214.323 133.38C214.323 133.556 214.371 133.712 214.467 133.848C214.571 133.976 214.731 134.088 214.947 134.184C215.171 134.272 215.451 134.344 215.787 134.4C216.211 134.464 216.587 134.556 216.915 134.676C217.243 134.796 217.503 134.98 217.695 135.228C217.887 135.468 217.979 135.808 217.971 136.248C217.979 136.632 217.887 136.968 217.695 137.256C217.503 137.544 217.235 137.764 216.891 137.916C216.547 138.068 216.139 138.144 215.667 138.144ZM221.588 138C221.228 138 220.916 137.944 220.652 137.832C220.388 137.72 220.184 137.532 220.04 137.268C219.904 136.996 219.836 136.632 219.836 136.176V132.696H218.756V131.844H219.836L219.968 130.344H220.844V131.844H222.608V132.696H220.844V136.176C220.844 136.552 220.92 136.808 221.072 136.944C221.224 137.072 221.492 137.136 221.876 137.136H222.548V138H221.588ZM226.421 138.144C225.861 138.144 225.361 138.012 224.921 137.748C224.489 137.476 224.149 137.1 223.901 136.62C223.653 136.132 223.529 135.568 223.529 134.928C223.529 134.28 223.653 133.716 223.901 133.236C224.149 132.748 224.489 132.372 224.921 132.108C225.361 131.836 225.869 131.7 226.445 131.7C227.045 131.7 227.549 131.836 227.957 132.108C228.373 132.372 228.689 132.724 228.905 133.164C229.121 133.604 229.229 134.084 229.229 134.604C229.229 134.684 229.229 134.768 229.229 134.856C229.229 134.944 229.225 135.044 229.217 135.156H224.285V134.376H228.233C228.217 133.792 228.037 133.344 227.693 133.032C227.357 132.712 226.933 132.552 226.421 132.552C226.085 132.552 225.773 132.632 225.485 132.792C225.197 132.952 224.961 133.188 224.777 133.5C224.601 133.804 224.513 134.188 224.513 134.652V134.988C224.513 135.492 224.601 135.916 224.777 136.26C224.961 136.604 225.197 136.864 225.485 137.04C225.773 137.208 226.085 137.292 226.421 137.292C226.861 137.292 227.213 137.204 227.477 137.028C227.741 136.844 227.937 136.588 228.065 136.26H229.061C228.957 136.62 228.785 136.944 228.545 137.232C228.313 137.512 228.017 137.736 227.657 137.904C227.305 138.064 226.893 138.144 226.421 138.144ZM230.59 138V131.844H231.502L231.562 132.876C231.746 132.508 232.014 132.22 232.366 132.012C232.718 131.804 233.122 131.7 233.578 131.7C234.05 131.7 234.458 131.792 234.802 131.976C235.146 132.16 235.414 132.44 235.606 132.816C235.798 133.184 235.894 133.652 235.894 134.22V138H234.886V134.328C234.886 133.744 234.75 133.304 234.478 133.008C234.206 132.712 233.83 132.564 233.35 132.564C233.03 132.564 232.734 132.644 232.462 132.804C232.198 132.964 231.986 133.196 231.826 133.5C231.674 133.796 231.598 134.164 231.598 134.604V138H230.59ZM239.904 138C239.544 138 239.232 137.944 238.968 137.832C238.704 137.72 238.5 137.532 238.356 137.268C238.22 136.996 238.152 136.632 238.152 136.176V132.696H237.072V131.844H238.152L238.284 130.344H239.16V131.844H240.924V132.696H239.16V136.176C239.16 136.552 239.236 136.808 239.388 136.944C239.54 137.072 239.808 137.136 240.192 137.136H240.864V138H239.904Z" fill="#524B6B"/>
<path d="M261.536 130.465L254.465 137.536" stroke="#150A33" stroke-width="1.5" stroke-linecap="round"/>
<path d="M261.536 137.535L254.465 130.464" stroke="#150A33" stroke-width="1.5" stroke-linecap="round"/>
<path opacity="0.2" d="M230 172C230 166.477 234.477 162 240 162H309C314.523 162 319 166.477 319 172V188C319 193.523 314.523 198 309 198H240C234.477 198 230 193.523 230 188V172Z" fill="#CBC9D5"/>
<path d="M245.912 184V175.6H251.108V176.428H246.92V179.356H250.748V180.172H246.92V183.172H251.108V184H245.912ZM252.649 184V177.844H253.561L253.621 178.876C253.805 178.508 254.073 178.22 254.425 178.012C254.777 177.804 255.181 177.7 255.637 177.7C256.109 177.7 256.517 177.792 256.861 177.976C257.205 178.16 257.473 178.44 257.665 178.816C257.857 179.184 257.953 179.652 257.953 180.22V184H256.945V180.328C256.945 179.744 256.809 179.304 256.537 179.008C256.265 178.712 255.889 178.564 255.409 178.564C255.089 178.564 254.793 178.644 254.521 178.804C254.257 178.964 254.045 179.196 253.885 179.5C253.733 179.796 253.657 180.164 253.657 180.604V184H252.649ZM261.975 186.784C261.423 186.784 260.935 186.712 260.511 186.568C260.087 186.432 259.759 186.22 259.527 185.932C259.295 185.644 259.179 185.288 259.179 184.864C259.179 184.672 259.215 184.472 259.287 184.264C259.367 184.056 259.499 183.852 259.683 183.652C259.875 183.452 260.143 183.272 260.487 183.112L261.207 183.52C260.775 183.696 260.491 183.896 260.355 184.12C260.227 184.352 260.163 184.568 260.163 184.768C260.163 185.032 260.239 185.252 260.391 185.428C260.543 185.604 260.755 185.736 261.027 185.824C261.307 185.912 261.623 185.956 261.975 185.956C262.327 185.956 262.627 185.908 262.875 185.812C263.131 185.716 263.327 185.58 263.463 185.404C263.599 185.236 263.667 185.032 263.667 184.792C263.667 184.496 263.563 184.252 263.355 184.06C263.147 183.876 262.743 183.768 262.143 183.736C261.663 183.704 261.259 183.66 260.931 183.604C260.611 183.548 260.347 183.484 260.139 183.412C259.931 183.332 259.755 183.244 259.611 183.148C259.475 183.052 259.351 182.952 259.239 182.848V182.572L260.415 181.42L261.315 181.732L260.079 182.812L260.235 182.368C260.323 182.432 260.407 182.492 260.487 182.548C260.567 182.604 260.675 182.656 260.811 182.704C260.947 182.744 261.139 182.784 261.387 182.824C261.635 182.856 261.963 182.888 262.371 182.92C262.931 182.96 263.379 183.056 263.715 183.208C264.051 183.36 264.291 183.568 264.435 183.832C264.587 184.088 264.663 184.396 264.663 184.756C264.663 185.1 264.567 185.424 264.375 185.728C264.191 186.04 263.899 186.292 263.499 186.484C263.107 186.684 262.599 186.784 261.975 186.784ZM261.963 182.08C261.459 182.08 261.027 181.984 260.667 181.792C260.315 181.592 260.047 181.328 259.863 181C259.679 180.672 259.587 180.304 259.587 179.896C259.587 179.48 259.679 179.112 259.863 178.792C260.055 178.464 260.327 178.2 260.679 178C261.031 177.8 261.459 177.7 261.963 177.7C262.475 177.7 262.907 177.8 263.259 178C263.611 178.2 263.879 178.464 264.063 178.792C264.247 179.112 264.339 179.48 264.339 179.896C264.339 180.304 264.247 180.672 264.063 181C263.879 181.328 263.611 181.592 263.259 181.792C262.907 181.984 262.475 182.08 261.963 182.08ZM261.963 181.252C262.403 181.252 262.747 181.136 262.995 180.904C263.243 180.672 263.367 180.336 263.367 179.896C263.367 179.448 263.243 179.112 262.995 178.888C262.747 178.656 262.403 178.54 261.963 178.54C261.539 178.54 261.195 178.656 260.931 178.888C260.667 179.112 260.535 179.448 260.535 179.896C260.535 180.336 260.663 180.672 260.919 180.904C261.183 181.136 261.531 181.252 261.963 181.252ZM262.971 178.696L262.671 177.844H265.143V178.6L262.971 178.696ZM266.336 184V175.36H267.344V184H266.336ZM269.128 184V177.844H270.136V184H269.128ZM269.632 176.596C269.432 176.596 269.264 176.532 269.128 176.404C269 176.268 268.936 176.1 268.936 175.9C268.936 175.7 269 175.54 269.128 175.42C269.264 175.292 269.432 175.228 269.632 175.228C269.824 175.228 269.988 175.292 270.124 175.42C270.26 175.54 270.328 175.7 270.328 175.9C270.328 176.1 270.26 176.268 270.124 176.404C269.988 176.532 269.824 176.596 269.632 176.596ZM274.183 184.144C273.655 184.144 273.203 184.06 272.826 183.892C272.459 183.724 272.171 183.488 271.963 183.184C271.755 182.88 271.627 182.524 271.579 182.116H272.611C272.651 182.324 272.731 182.52 272.851 182.704C272.979 182.88 273.151 183.024 273.367 183.136C273.591 183.24 273.867 183.292 274.195 183.292C274.475 183.292 274.707 183.252 274.891 183.172C275.083 183.084 275.223 182.968 275.311 182.824C275.407 182.672 275.455 182.508 275.455 182.332C275.455 182.076 275.395 181.88 275.275 181.744C275.163 181.608 274.995 181.504 274.771 181.432C274.555 181.352 274.287 181.288 273.967 181.24C273.663 181.192 273.379 181.128 273.115 181.048C272.859 180.96 272.631 180.848 272.431 180.712C272.239 180.576 272.087 180.408 271.975 180.208C271.871 180 271.819 179.752 271.819 179.464C271.819 179.12 271.907 178.816 272.083 178.552C272.267 178.288 272.523 178.08 272.851 177.928C273.187 177.776 273.583 177.7 274.039 177.7C274.695 177.7 275.223 177.856 275.623 178.168C276.023 178.48 276.259 178.928 276.331 179.512H275.335C275.295 179.216 275.159 178.984 274.927 178.816C274.703 178.64 274.403 178.552 274.027 178.552C273.635 178.552 273.339 178.628 273.139 178.78C272.939 178.932 272.839 179.132 272.839 179.38C272.839 179.556 272.887 179.712 272.983 179.848C273.087 179.976 273.247 180.088 273.463 180.184C273.687 180.272 273.967 180.344 274.303 180.4C274.727 180.464 275.103 180.556 275.431 180.676C275.759 180.796 276.019 180.98 276.211 181.228C276.403 181.468 276.495 181.808 276.487 182.248C276.495 182.632 276.403 182.968 276.211 183.256C276.019 183.544 275.751 183.764 275.407 183.916C275.063 184.068 274.655 184.144 274.183 184.144ZM277.961 184V175.36H278.969V178.864C279.177 178.504 279.461 178.22 279.821 178.012C280.181 177.804 280.573 177.7 280.997 177.7C281.477 177.7 281.885 177.792 282.221 177.976C282.565 178.16 282.829 178.444 283.013 178.828C283.197 179.204 283.289 179.68 283.289 180.256V184H282.293V180.364C282.293 179.772 282.161 179.324 281.897 179.02C281.633 178.716 281.261 178.564 280.781 178.564C280.453 178.564 280.149 178.648 279.869 178.816C279.597 178.976 279.377 179.212 279.209 179.524C279.049 179.828 278.969 180.204 278.969 180.652V184H277.961Z" fill="#524B6B"/>
<path d="M305.536 176.465L298.465 183.536" stroke="#150A33" stroke-width="1.5" stroke-linecap="round"/>
<path d="M305.536 183.535L298.465 176.464" stroke="#150A33" stroke-width="1.5" stroke-linecap="round"/>
<path opacity="0.2" d="M260 80C260 74.4772 264.477 70 270 70H345C350.523 70 355 74.4772 355 80V96C355 101.523 350.523 106 345 106H270C264.477 106 260 101.523 260 96V80Z" fill="#CBC9D5"/>
<path d="M278.432 92L275.276 83.6H276.368L279.02 90.932L281.696 83.6H282.764L279.608 92H278.432ZM283.975 92V85.844H284.983V92H283.975ZM284.479 84.596C284.279 84.596 284.111 84.532 283.975 84.404C283.847 84.268 283.783 84.1 283.783 83.9C283.783 83.7 283.847 83.54 283.975 83.42C284.111 83.292 284.279 83.228 284.479 83.228C284.671 83.228 284.835 83.292 284.971 83.42C285.107 83.54 285.175 83.7 285.175 83.9C285.175 84.1 285.107 84.268 284.971 84.404C284.835 84.532 284.671 84.596 284.479 84.596ZM289.03 92.144C288.502 92.144 288.05 92.06 287.674 91.892C287.306 91.724 287.018 91.488 286.81 91.184C286.602 90.88 286.474 90.524 286.426 90.116H287.458C287.498 90.324 287.578 90.52 287.698 90.704C287.826 90.88 287.998 91.024 288.214 91.136C288.438 91.24 288.714 91.292 289.042 91.292C289.322 91.292 289.554 91.252 289.738 91.172C289.93 91.084 290.07 90.968 290.158 90.824C290.254 90.672 290.302 90.508 290.302 90.332C290.302 90.076 290.242 89.88 290.122 89.744C290.01 89.608 289.842 89.504 289.618 89.432C289.402 89.352 289.134 89.288 288.814 89.24C288.51 89.192 288.226 89.128 287.962 89.048C287.706 88.96 287.478 88.848 287.278 88.712C287.086 88.576 286.934 88.408 286.822 88.208C286.718 88 286.666 87.752 286.666 87.464C286.666 87.12 286.754 86.816 286.93 86.552C287.114 86.288 287.37 86.08 287.698 85.928C288.034 85.776 288.43 85.7 288.886 85.7C289.542 85.7 290.07 85.856 290.47 86.168C290.87 86.48 291.106 86.928 291.178 87.512H290.182C290.142 87.216 290.006 86.984 289.774 86.816C289.55 86.64 289.25 86.552 288.874 86.552C288.482 86.552 288.186 86.628 287.986 86.78C287.786 86.932 287.686 87.132 287.686 87.38C287.686 87.556 287.734 87.712 287.83 87.848C287.934 87.976 288.094 88.088 288.31 88.184C288.534 88.272 288.814 88.344 289.15 88.4C289.574 88.464 289.95 88.556 290.278 88.676C290.606 88.796 290.866 88.98 291.058 89.228C291.25 89.468 291.342 89.808 291.334 90.248C291.342 90.632 291.25 90.968 291.058 91.256C290.866 91.544 290.598 91.764 290.254 91.916C289.91 92.068 289.502 92.144 289.03 92.144ZM292.917 92V85.844H293.925V92H292.917ZM293.421 84.596C293.221 84.596 293.053 84.532 292.917 84.404C292.789 84.268 292.725 84.1 292.725 83.9C292.725 83.7 292.789 83.54 292.917 83.42C293.053 83.292 293.221 83.228 293.421 83.228C293.613 83.228 293.777 83.292 293.913 83.42C294.049 83.54 294.117 83.7 294.117 83.9C294.117 84.1 294.049 84.268 293.913 84.404C293.777 84.532 293.613 84.596 293.421 84.596ZM298.404 92.144C297.828 92.144 297.316 92.012 296.868 91.748C296.42 91.484 296.068 91.112 295.812 90.632C295.564 90.144 295.44 89.576 295.44 88.928C295.44 88.272 295.568 87.704 295.824 87.224C296.08 86.744 296.432 86.372 296.88 86.108C297.336 85.836 297.852 85.7 298.428 85.7C299.004 85.7 299.516 85.836 299.964 86.108C300.412 86.372 300.76 86.744 301.008 87.224C301.264 87.704 301.392 88.272 301.392 88.928C301.392 89.576 301.264 90.144 301.008 90.632C300.752 91.112 300.396 91.484 299.94 91.748C299.492 92.012 298.98 92.144 298.404 92.144ZM298.404 91.28C298.764 91.28 299.092 91.192 299.388 91.016C299.684 90.84 299.92 90.576 300.096 90.224C300.272 89.872 300.36 89.44 300.36 88.928C300.36 88.4 300.272 87.964 300.096 87.62C299.928 87.268 299.696 87.004 299.4 86.828C299.104 86.652 298.78 86.564 298.428 86.564C298.076 86.564 297.752 86.652 297.456 86.828C297.16 87.004 296.92 87.268 296.736 87.62C296.56 87.964 296.472 88.4 296.472 88.928C296.472 89.44 296.56 89.872 296.736 90.224C296.912 90.576 297.144 90.84 297.432 91.016C297.728 91.192 298.052 91.28 298.404 91.28ZM302.828 92V85.844H303.74L303.8 86.876C303.984 86.508 304.252 86.22 304.604 86.012C304.956 85.804 305.36 85.7 305.816 85.7C306.288 85.7 306.696 85.792 307.04 85.976C307.384 86.16 307.652 86.44 307.844 86.816C308.036 87.184 308.132 87.652 308.132 88.22V92H307.124V88.328C307.124 87.744 306.988 87.304 306.716 87.008C306.444 86.712 306.068 86.564 305.588 86.564C305.268 86.564 304.972 86.644 304.7 86.804C304.436 86.964 304.224 87.196 304.064 87.5C303.912 87.796 303.836 88.164 303.836 88.604V92H302.828ZM312.371 92.144C311.811 92.144 311.311 92.012 310.871 91.748C310.439 91.476 310.099 91.1 309.851 90.62C309.603 90.132 309.479 89.568 309.479 88.928C309.479 88.28 309.603 87.716 309.851 87.236C310.099 86.748 310.439 86.372 310.871 86.108C311.311 85.836 311.819 85.7 312.395 85.7C312.995 85.7 313.499 85.836 313.907 86.108C314.323 86.372 314.639 86.724 314.855 87.164C315.071 87.604 315.179 88.084 315.179 88.604C315.179 88.684 315.179 88.768 315.179 88.856C315.179 88.944 315.175 89.044 315.167 89.156H310.235V88.376H314.183C314.167 87.792 313.987 87.344 313.643 87.032C313.307 86.712 312.883 86.552 312.371 86.552C312.035 86.552 311.723 86.632 311.435 86.792C311.147 86.952 310.911 87.188 310.727 87.5C310.551 87.804 310.463 88.188 310.463 88.652V88.988C310.463 89.492 310.551 89.916 310.727 90.26C310.911 90.604 311.147 90.864 311.435 91.04C311.723 91.208 312.035 91.292 312.371 91.292C312.811 91.292 313.163 91.204 313.427 91.028C313.691 90.844 313.887 90.588 314.015 90.26H315.011C314.907 90.62 314.735 90.944 314.495 91.232C314.263 91.512 313.967 91.736 313.607 91.904C313.255 92.064 312.843 92.144 312.371 92.144ZM316.539 92V85.844H317.451L317.535 86.996C317.671 86.716 317.847 86.48 318.063 86.288C318.287 86.096 318.555 85.952 318.867 85.856C319.179 85.752 319.531 85.7 319.923 85.7V86.756H319.455C319.207 86.756 318.967 86.792 318.735 86.864C318.511 86.928 318.307 87.036 318.123 87.188C317.947 87.332 317.807 87.532 317.703 87.788C317.599 88.044 317.547 88.364 317.547 88.748V92H316.539Z" fill="#524B6B"/>
<path d="M341.536 84.4648L334.465 91.5359" stroke="#150A33" stroke-width="1.5" stroke-linecap="round"/>
<path d="M341.536 91.5352L334.465 84.4641" stroke="#150A33" stroke-width="1.5" stroke-linecap="round"/>
<g filter="url(#filter0_d_229_57)">
<rect x="19" y="271" width="158" height="50" rx="6" fill="#130160"/>
</g>
<path d="M83.4774 301.168C82.7681 301.168 82.1334 301.047 81.5734 300.804C81.0228 300.561 80.5841 300.207 80.2574 299.74C79.9401 299.273 79.7768 298.709 79.7674 298.046H81.7694C81.7788 298.335 81.8534 298.597 81.9934 298.83C82.1334 299.063 82.3248 299.25 82.5674 299.39C82.8194 299.521 83.1181 299.586 83.4634 299.586C83.7621 299.586 84.0188 299.539 84.2334 299.446C84.4574 299.343 84.6301 299.203 84.7514 299.026C84.8728 298.849 84.9334 298.639 84.9334 298.396C84.9334 298.116 84.8634 297.883 84.7234 297.696C84.5928 297.509 84.4061 297.351 84.1634 297.22C83.9301 297.089 83.6548 296.973 83.3374 296.87C83.0294 296.758 82.7028 296.641 82.3574 296.52C81.5828 296.268 80.9901 295.932 80.5794 295.512C80.1781 295.092 79.9774 294.537 79.9774 293.846C79.9774 293.258 80.1174 292.754 80.3974 292.334C80.6868 291.914 81.0834 291.592 81.5874 291.368C82.0914 291.144 82.6654 291.032 83.3094 291.032C83.9721 291.032 84.5508 291.149 85.0454 291.382C85.5494 291.606 85.9461 291.933 86.2354 292.362C86.5341 292.791 86.6881 293.295 86.6974 293.874H84.6814C84.6721 293.659 84.6068 293.459 84.4854 293.272C84.3734 293.076 84.2148 292.922 84.0094 292.81C83.8041 292.689 83.5614 292.628 83.2814 292.628C83.0388 292.619 82.8148 292.656 82.6094 292.74C82.4134 292.824 82.2548 292.95 82.1334 293.118C82.0214 293.277 81.9654 293.477 81.9654 293.72C81.9654 293.953 82.0214 294.149 82.1334 294.308C82.2548 294.467 82.4181 294.607 82.6234 294.728C82.8288 294.84 83.0714 294.947 83.3514 295.05C83.6314 295.143 83.9348 295.241 84.2614 295.344C84.7468 295.512 85.1948 295.713 85.6054 295.946C86.0161 296.17 86.3428 296.464 86.5854 296.828C86.8281 297.192 86.9494 297.673 86.9494 298.27C86.9494 298.783 86.8141 299.259 86.5434 299.698C86.2728 300.137 85.8808 300.491 85.3674 300.762C84.8634 301.033 84.2334 301.168 83.4774 301.168ZM88.7347 301L92.3187 291.2H94.4607L98.0307 301H96.0287L93.3827 293.356L90.7227 301H88.7347ZM90.3167 298.774L90.8207 297.304H95.8047L96.2947 298.774H90.3167ZM101.756 301L98.1856 291.2H100.202L102.918 299.068L105.648 291.2H107.65L104.08 301H101.756ZM109.666 301V291.2H116.106V292.726H111.556V295.288H115.686V296.758H111.556V299.474H116.106V301H109.666Z" fill="white"/>
<g filter="url(#filter1_d_229_57)">
<rect x="187.5" y="271.5" width="163" height="49" rx="5.5" stroke="#130160" shape-rendering="crispEdges"/>
</g>
<path d="M250.253 301.168C249.273 301.168 248.429 300.958 247.719 300.538C247.019 300.109 246.478 299.516 246.095 298.76C245.722 297.995 245.535 297.113 245.535 296.114C245.535 295.115 245.722 294.233 246.095 293.468C246.478 292.703 247.019 292.105 247.719 291.676C248.429 291.247 249.273 291.032 250.253 291.032C251.439 291.032 252.409 291.326 253.165 291.914C253.921 292.502 254.393 293.333 254.579 294.406H252.521C252.4 293.883 252.143 293.477 251.751 293.188C251.369 292.889 250.865 292.74 250.239 292.74C249.661 292.74 249.161 292.88 248.741 293.16C248.331 293.431 248.013 293.818 247.789 294.322C247.565 294.817 247.453 295.414 247.453 296.114C247.453 296.805 247.565 297.402 247.789 297.906C248.013 298.41 248.331 298.797 248.741 299.068C249.161 299.339 249.661 299.474 250.239 299.474C250.865 299.474 251.369 299.339 251.751 299.068C252.134 298.788 252.386 298.401 252.507 297.906H254.579C254.393 298.923 253.921 299.721 253.165 300.3C252.409 300.879 251.439 301.168 250.253 301.168ZM257.033 301V291.2H258.923V299.53H263.221V301H257.033ZM269.327 301.168C268.375 301.168 267.535 300.953 266.807 300.524C266.079 300.095 265.51 299.502 265.099 298.746C264.688 297.981 264.483 297.099 264.483 296.1C264.483 295.101 264.688 294.224 265.099 293.468C265.51 292.703 266.079 292.105 266.807 291.676C267.535 291.247 268.375 291.032 269.327 291.032C270.288 291.032 271.133 291.247 271.861 291.676C272.589 292.105 273.154 292.703 273.555 293.468C273.966 294.224 274.171 295.101 274.171 296.1C274.171 297.099 273.966 297.981 273.555 298.746C273.154 299.502 272.589 300.095 271.861 300.524C271.133 300.953 270.288 301.168 269.327 301.168ZM269.327 299.474C269.924 299.474 270.438 299.339 270.867 299.068C271.306 298.788 271.646 298.396 271.889 297.892C272.132 297.388 272.253 296.791 272.253 296.1C272.253 295.4 272.132 294.803 271.889 294.308C271.646 293.804 271.306 293.417 270.867 293.146C270.438 292.875 269.924 292.74 269.327 292.74C268.739 292.74 268.226 292.875 267.787 293.146C267.348 293.417 267.008 293.804 266.765 294.308C266.522 294.803 266.401 295.4 266.401 296.1C266.401 296.791 266.522 297.388 266.765 297.892C267.008 298.396 267.348 298.788 267.787 299.068C268.226 299.339 268.739 299.474 269.327 299.474ZM279.997 301.168C279.288 301.168 278.653 301.047 278.093 300.804C277.543 300.561 277.104 300.207 276.777 299.74C276.46 299.273 276.297 298.709 276.287 298.046H278.289C278.299 298.335 278.373 298.597 278.513 298.83C278.653 299.063 278.845 299.25 279.087 299.39C279.339 299.521 279.638 299.586 279.983 299.586C280.282 299.586 280.539 299.539 280.753 299.446C280.977 299.343 281.15 299.203 281.271 299.026C281.393 298.849 281.453 298.639 281.453 298.396C281.453 298.116 281.383 297.883 281.243 297.696C281.113 297.509 280.926 297.351 280.683 297.22C280.45 297.089 280.175 296.973 279.857 296.87C279.549 296.758 279.223 296.641 278.877 296.52C278.103 296.268 277.51 295.932 277.099 295.512C276.698 295.092 276.497 294.537 276.497 293.846C276.497 293.258 276.637 292.754 276.917 292.334C277.207 291.914 277.603 291.592 278.107 291.368C278.611 291.144 279.185 291.032 279.829 291.032C280.492 291.032 281.071 291.149 281.565 291.382C282.069 291.606 282.466 291.933 282.755 292.362C283.054 292.791 283.208 293.295 283.217 293.874H281.201C281.192 293.659 281.127 293.459 281.005 293.272C280.893 293.076 280.735 292.922 280.529 292.81C280.324 292.689 280.081 292.628 279.801 292.628C279.559 292.619 279.335 292.656 279.129 292.74C278.933 292.824 278.775 292.95 278.653 293.118C278.541 293.277 278.485 293.477 278.485 293.72C278.485 293.953 278.541 294.149 278.653 294.308C278.775 294.467 278.938 294.607 279.143 294.728C279.349 294.84 279.591 294.947 279.871 295.05C280.151 295.143 280.455 295.241 280.781 295.344C281.267 295.512 281.715 295.713 282.125 295.946C282.536 296.17 282.863 296.464 283.105 296.828C283.348 297.192 283.469 297.673 283.469 298.27C283.469 298.783 283.334 299.259 283.063 299.698C282.793 300.137 282.401 300.491 281.887 300.762C281.383 301.033 280.753 301.168 279.997 301.168ZM285.913 301V291.2H292.353V292.726H287.803V295.288H291.933V296.758H287.803V299.474H292.353V301H285.913Z" fill="#130160"/>
</g>
<defs>
<filter id="filter0_d_229_57" x="-43" y="213" width="282" height="174" filterUnits="userSpaceOnUse" color-interpolation-filters="sRGB">
<feFlood flood-opacity="0" result="BackgroundImageFix"/>
<feColorMatrix in="SourceAlpha" type="matrix" values="0 0 0 0 0 0 0 0 0 0 0 0 0 0 0 0 0 0 127 0" result="hardAlpha"/>
<feOffset dy="4"/>
<feGaussianBlur stdDeviation="31"/>
<feComposite in2="hardAlpha" operator="out"/>
<feColorMatrix type="matrix" values="0 0 0 0 0.600625 0 0 0 0 0.670375 0 0 0 0 0.775 0 0 0 0.18 0"/>
<feBlend mode="normal" in2="BackgroundImageFix" result="effect1_dropShadow_229_57"/>
<feBlend mode="normal" in="SourceGraphic" in2="effect1_dropShadow_229_57" result="shape"/>
</filter>
<filter id="filter1_d_229_57" x="125" y="213" width="288" height="174" filterUnits="userSpaceOnUse" color-interpolation-filters="sRGB">
<feFlood flood-opacity="0" result="BackgroundImageFix"/>
<feColorMatrix in="SourceAlpha" type="matrix" values="0 0 0 0 0 0 0 0 0 0 0 0 0 0 0 0 0 0 127 0" result="hardAlpha"/>
<feOffset dy="4"/>
<feGaussianBlur stdDeviation="31"/>
<feComposite in2="hardAlpha" operator="out"/>
<feColorMatrix type="matrix" values="0 0 0 0 0.600625 0 0 0 0 0.670375 0 0 0 0 0.775 0 0 0 0.18 0"/>
<feBlend mode="normal" in2="BackgroundImageFix" result="effect1_dropShadow_229_57"/>
<feBlend mode="normal" in="SourceGraphic" in2="effect1_dropShadow_229_57" result="shape"/>
</filter>
<clipPath id="clip0_229_57">
<rect width="375" height="351" rx="30" fill="white"/>
</clipPath>
</defs>
</svg>
