<svg width="20" height="21" viewBox="0 0 20 21" fill="none" xmlns="http://www.w3.org/2000/svg">
<path d="M9.10254 1.1377C9.59335 0.622598 10.4147 0.621182 10.9082 1.13379L18.8086 9.34082C19.0915 9.63469 19.25 10.0267 19.25 10.4346V10.4854C19.2498 11.2755 18.6494 11.9257 17.8799 12.0039L17.7236 12.0117C17.278 12.0117 16.917 12.3727 16.917 12.8184V18.1084C16.917 18.7986 16.3572 19.3582 15.667 19.3584H12.417V15.21C12.4167 14.2438 11.6332 13.4601 10.667 13.46H9.33301C8.36682 13.4601 7.58327 14.2438 7.58301 15.21V19.3584H4.33301C3.6428 19.3582 3.08301 18.7986 3.08301 18.1084V12.8184C3.083 12.3727 2.722 12.0117 2.27637 12.0117H2.25195C1.42243 12.0116 0.75 11.3383 0.75 10.5088C0.750124 10.1234 0.898366 9.75279 1.16406 9.47363L9.10254 1.1377Z" stroke="#A49EB5" stroke-width="1.5"/>
</svg>
